<?xml version="1.0" encoding="UTF-8" standalone="no"?>
<!DOCTYPE svg PUBLIC "-//W3C//DTD SVG 20010904//EN"
              "http://www.w3.org/TR/2001/REC-SVG-20010904/DTD/svg10.dtd">

<svg xmlns="http://www.w3.org/2000/svg"
     width="15.0633in" height="10.66in"
     viewBox="0 0 4519 3198">
  <path id="msk-bmstu-fk.1-1.4-rm"
        fill="none" stroke="black" stroke-width="1"
        d="M 1929.50,1336.50
           C 1929.50,1336.50 1964.00,1335.50 1964.00,1335.50
             1964.00,1335.50 1965.00,1367.50 1965.00,1367.50
             1965.00,1367.50 2076.50,1367.00 2076.50,1367.00
             2076.50,1367.00 2076.00,1255.00 2076.00,1255.00
             2076.00,1255.00 1930.00,1256.00 1930.00,1256.00
             1930.00,1256.00 1929.50,1336.50 1929.50,1336.50 Z" />
  <path id="msk-bmstu-fk.1-1.59-dr"
        fill="none" stroke="black" stroke-width="1"
        d="M 3607.50,2259.00
           C 3607.50,2259.00 3605.50,2309.50 3605.50,2309.50" />
  <path id="msk-bmstu-fk.1-1.39-dr"
        fill="none" stroke="black" stroke-width="1"
        d="M 1051.50,2636.00
           C 1051.50,2636.00 1051.00,2693.00 1051.00,2693.00" />
  <path id="msk-bmstu-fk.1-1.58-dr"
        fill="none" stroke="black" stroke-width="1"
        d="M 3811.00,1453.50
           C 3811.00,1453.50 3863.50,1453.00 3863.50,1453.00" />
  <path id="msk-bmstu-fk.1-1.57-dr"
        fill="none" stroke="black" stroke-width="1"
        d="M 3779.50,1384.50
           C 3779.50,1384.50 3780.00,1433.00 3780.00,1433.00" />
  <path id="msk-bmstu-fk.1-1.44-dr"
        fill="none" stroke="black" stroke-width="1"
        d="M 3346.00,1160.50
           C 3346.00,1160.50 3394.50,1160.00 3394.50,1160.00" />
  <path id="msk-bmstu-fk.1-1.56-dr"
        fill="none" stroke="black" stroke-width="1"
        d="M 3811.00,1365.50
           C 3811.00,1365.50 3864.00,1364.50 3864.00,1364.50" />
  <path id="msk-bmstu-fk.1-1.54-dr"
        fill="none" stroke="black" stroke-width="1"
        d="M 3700.00,1047.00
           C 3700.00,1047.00 3700.00,1077.50 3700.00,1077.50" />
  <path id="msk-bmstu-fk.1-1.47-dr"
        fill="none" stroke="black" stroke-width="1"
        d="M 3350.50,855.50
           C 3350.50,855.50 3351.00,904.00 3351.00,904.00" />
  <path id="msk-bmstu-fk.1-1.53-dr"
        fill="none" stroke="black" stroke-width="1"
        d="M 3646.00,1098.50
           C 3646.00,1098.50 3674.50,1099.00 3674.50,1099.00" />
  <path id="msk-bmstu-fk.1-1.35-dr"
        fill="none" stroke="black" stroke-width="1"
        d="M 901.50,2017.50
           C 901.50,2017.50 935.50,2018.00 935.50,2018.00" />
  <path id="msk-bmstu-fk.1-1.46-dr"
        fill="none" stroke="black" stroke-width="1"
        d="M 3347.00,1041.00
           C 3347.00,1041.00 3392.50,1041.00 3392.50,1041.00" />
  <path id="msk-bmstu-fk.1-1.40-dr"
        fill="none" stroke="black" stroke-width="1"
        d="M 946.00,2510.50
           C 946.00,2510.50 946.50,2545.50 946.50,2545.50" />
  <path id="msk-bmstu-fk.1-1.41-dr-2"
        fill="none" stroke="black" stroke-width="1"
        d="M 899.50,2724.50
           C 899.50,2724.50 934.00,2725.00 934.00,2725.00" />
  <path id="msk-bmstu-fk.1-1.45-dr"
        fill="none" stroke="black" stroke-width="1"
        d="M 3334.00,1089.00
           C 3334.00,1089.00 3333.50,1126.50 3333.50,1126.50" />
  <path id="msk-bmstu-fk.1-1.41-dr-1"
        fill="none" stroke="black" stroke-width="1"
        d="M 809.50,2723.50
           C 809.50,2723.50 846.50,2725.00 846.50,2725.00" />
  <path id="msk-bmstu-fk.1-1.38-dr"
        fill="none" stroke="black" stroke-width="1"
        d="M 946.50,2420.50
           C 946.50,2420.50 946.50,2454.50 946.50,2454.50" />
  <path id="msk-bmstu-fk.1-1.36-dr"
        fill="none" stroke="black" stroke-width="1"
        d="M 974.50,2376.00
           C 974.50,2376.00 1023.50,2377.50 1023.50,2377.50" />
  <path id="msk-bmstu-fk.1-1.18-dr"
        fill="none" stroke="black" stroke-width="1"
        d="M 976.00,759.50
           C 976.00,759.50 1024.50,758.50 1024.50,758.50" />
  <path id="msk-bmstu-fk.1-1.32-dr-2"
        fill="none" stroke="black" stroke-width="1"
        d="M 853.00,1773.00
           C 853.00,1773.00 853.00,1806.50 853.00,1806.50" />
  <path id="msk-bmstu-fk.1-1.34-dr"
        fill="none" stroke="black" stroke-width="1"
        d="M 971.00,1827.00
           C 971.00,1827.00 1022.00,1827.50 1022.00,1827.50" />
  <path id="msk-bmstu-fk.1-1.29-dr"
        fill="none" stroke="black" stroke-width="1"
        d="M 1316.00,491.00
           C 1316.00,491.00 1316.00,518.50 1316.00,518.50" />
  <path id="msk-bmstu-fk.1-1.32-dr-1"
        fill="none" stroke="black" stroke-width="1"
        d="M 853.00,1635.50
           C 853.00,1635.50 853.50,1670.00 853.50,1670.00" />
  <path id="msk-bmstu-fk.1-1.30-dr"
        fill="none" stroke="black" stroke-width="1"
        d="M 1378.50,437.50
           C 1378.50,437.50 1409.00,437.50 1409.00,437.50" />
  <path id="msk-bmstu-fk.1-1.47-st-up"
        fill="none" stroke="black" stroke-width="1"
        d="M 3294.00,915.50
           C 3294.00,915.50 3294.50,872.50 3294.50,872.50" />
  <path id="msk-bmstu-fk.1-1.39-st"
        fill="none" stroke="black" stroke-width="1"
        d="M 1070.00,2629.50
           C 1070.00,2629.50 1134.00,2629.50 1134.00,2629.50" />
  <path id="msk-bmstu-fk.1-1.44-st"
        fill="none" stroke="black" stroke-width="1"
        d="M 3257.50,1223.00
           C 3257.50,1223.00 3257.00,1172.00 3257.00,1172.00" />
  <path id="msk-bmstu-fk.1-1.59-st"
        fill="none" stroke="black" stroke-width="1"
        d="M 3521.00,2201.50
           C 3521.00,2201.50 3586.50,2202.50 3586.50,2202.50" />
  <path id="msk-bmstu-fk.1-entry-st-right"
        fill="none" stroke="black" stroke-width="1"
        d="M 2458.00,1876.50
           C 2458.00,1876.50 2537.50,1876.50 2537.50,1876.50" />
  <path id="msk-bmstu-fk.1-1.46-st-down"
        fill="none" stroke="black" stroke-width="1"
        d="M 3294.50,975.00
           C 3294.50,975.00 3294.50,925.50 3294.50,925.50" />
  <path id="msk-bmstu-fk.1-1.47-st-down"
        fill="none" stroke="black" stroke-width="1"
        d="M 3294.50,865.00
           C 3294.50,865.00 3294.50,822.00 3294.50,822.00" />
  <path id="msk-bmstu-fk.1-entry-st-left"
        fill="none" stroke="black" stroke-width="1"
        d="M 2118.00,1868.00
           C 2118.00,1868.00 2198.50,1868.00 2198.50,1868.00" />
  <path id="msk-bmstu-fk.1-1.40-ps"
        fill="none" stroke="black" stroke-width="1"
        d="M 792.00,2595.00
           C 792.00,2595.00 862.00,2594.50 862.00,2594.50" />
  <path id="msk-bmstu-fk.1-1.19-st-down"
        fill="none" stroke="black" stroke-width="1"
        d="M 1109.00,593.00
           C 1109.00,593.00 1110.00,557.50 1110.00,557.50" />
  <path id="msk-bmstu-fk.1-1.21-st-up"
        fill="none" stroke="black" stroke-width="1"
        d="M 824.50,516.00
           C 824.50,516.00 783.50,516.00 783.50,516.00" />
  <path id="msk-bmstu-fk.1-1.46-st-up"
        fill="none" stroke="black" stroke-width="1"
        d="M 3294.50,1029.50
           C 3294.50,1029.50 3295.00,979.50 3295.00,979.50" />
  <path id="msk-bmstu-fk.1-1.19-st-up"
        fill="none" stroke="black" stroke-width="1"
        d="M 1109.50,600.50
           C 1109.50,600.50 1109.50,636.00 1109.50,636.00" />
  <path id="msk-bmstu-fk.1-1.23-ps"
        fill="none" stroke="black" stroke-width="1"
        d="M 1051.50,475.00
           C 1051.50,475.00 1052.50,511.00 1052.50,511.00" />
  <path id="msk-bmstu-fk.1-1.21-st-down"
        fill="none" stroke="black" stroke-width="1"
        d="M 832.00,516.00
           C 832.00,516.00 874.00,515.50 874.00,515.50" />
  <path id="msk-bmstu-fk.1-1.42-ps"
        fill="none" stroke="black" stroke-width="1"
        d="M 2744.50,1379.00
           C 2744.50,1379.00 2743.50,1432.00 2743.50,1432.00" />
  <path id="msk-bmstu-fk.1-1.39-ps"
        fill="none" stroke="black" stroke-width="1"
        d="M 967.50,2594.00
           C 967.50,2594.00 1018.50,2595.00 1018.50,2595.00" />
  <path id="msk-bmstu-fk.1-1.26-ps"
        fill="none" stroke="black" stroke-width="1"
        d="M 1241.00,477.00
           C 1241.00,477.00 1240.50,514.50 1240.50,514.50" />
  <path id="msk-bmstu-fk.1-1.33-ps"
        fill="none" stroke="black" stroke-width="1"
        d="M 971.50,1627.00
           C 971.50,1627.00 1021.50,1627.00 1021.50,1627.00" />
  <path id="msk-bmstu-fk.1-1.31-ps"
        fill="none" stroke="black" stroke-width="1"
        d="M 789.00,1626.50
           C 789.00,1626.50 838.00,1626.00 838.00,1626.00" />
  <path id="msk-bmstu-fk.1-1.20a-ps"
        fill="none" stroke="black" stroke-width="1"
        d="M 893.00,500.50
           C 893.00,500.50 927.00,501.50 927.00,501.50" />
  <path id="msk-bmstu-fk.1-1.12-ps"
        fill="none" stroke="black" stroke-width="1"
        d="M 2488.00,1355.00
           C 2488.00,1355.00 2540.00,1354.50 2540.00,1354.50" />
  <path id="msk-bmstu-fk.1-1.15-ps"
        fill="none" stroke="black" stroke-width="1"
        d="M 1050.00,1471.50
           C 1050.00,1471.50 1051.00,1526.00 1051.00,1526.00" />
  <path id="msk-bmstu-fk.1-1.17-ps"
        fill="none" stroke="black" stroke-width="1"
        d="M 959.00,709.50
           C 959.00,709.50 959.00,743.50 959.00,743.50" />
  <path id="msk-bmstu-fk.1-1.7-ps"
        fill="none" stroke="black" stroke-width="1"
        d="M 2402.50,885.50
           C 2402.50,885.50 2436.50,885.00 2436.50,885.00" />
  <path id="msk-bmstu-fk.1-1.11-ps"
        fill="none" stroke="black" stroke-width="1"
        d="M 2562.50,1268.50
           C 2562.50,1268.50 2562.50,1301.50 2562.50,1301.50" />
  <path id="msk-bmstu-fk.1-1.13-ps"
        fill="none" stroke="black" stroke-width="1"
        d="M 1915.50,1380.50
           C 1915.50,1380.50 1917.00,1443.00 1917.00,1443.00" />
  <path id="msk-bmstu-fk.1-1.28-dr"
        fill="none" stroke="black" stroke-width="1"
        d="M 1316.50,443.50
           C 1316.50,443.50 1316.50,475.50 1316.50,475.50" />
  <path id="msk-bmstu-fk.1-1.3-ps-1"
        fill="none" stroke="black" stroke-width="1"
        d="M 2208.00,1389.00
           C 2208.00,1389.00 2208.00,1441.50 2208.00,1441.50" />
  <path id="msk-bmstu-fk.1-1.9-ps"
        fill="none" stroke="black" stroke-width="1"
        d="M 2517.00,849.50
           C 2517.00,849.50 2570.00,848.50 2570.00,848.50" />
  <path id="msk-bmstu-fk.1-1.10-ps"
        fill="none" stroke="black" stroke-width="1"
        d="M 2494.00,1085.50
           C 2494.00,1085.50 2546.00,1085.50 2546.00,1085.50" />
  <path id="msk-bmstu-fk.1-1.6-ps"
        fill="none" stroke="black" stroke-width="1"
        d="M 2099.50,1079.50
           C 2099.50,1079.50 2142.00,1078.00 2142.00,1078.00" />
  <path id="msk-bmstu-fk.1-1.8-ps"
        fill="none" stroke="black" stroke-width="1"
        d="M 2479.50,901.50
           C 2479.50,901.50 2478.00,951.00 2478.00,951.00" />
  <path id="msk-bmstu-fk.1-1.27-dr"
        fill="none" stroke="black" stroke-width="1"
        d="M 1265.50,437.00
           C 1265.50,437.00 1295.00,437.50 1295.00,437.50" />
  <path id="msk-bmstu-fk.1-1.3-ps-2"
        fill="none" stroke="black" stroke-width="1"
        d="M 2083.50,1354.00
           C 2083.50,1354.00 2163.00,1355.00 2163.00,1355.00" />
  <path id="msk-bmstu-fk.1-1.2-ps"
        fill="none" stroke="black" stroke-width="1"
        d="M 2302.00,1356.00
           C 2302.00,1356.00 2354.00,1354.00 2354.00,1354.00" />
  <path id="msk-bmstu-fk.1-1.19-dr-2"
        fill="none" stroke="black" stroke-width="1"
        d="M 1299.00,577.00
           C 1299.00,577.00 1299.00,626.00 1299.00,626.00" />
  <path id="msk-bmstu-fk.1-1.1-ps"
        fill="none" stroke="black" stroke-width="1"
        d="M 2446.00,1382.00
           C 2446.00,1382.00 2445.00,1435.00 2445.00,1435.00" />
  <path id="msk-bmstu-fk.1-1.19-dr-1"
        fill="none" stroke="black" stroke-width="1"
        d="M 1052.00,561.50
           C 1052.00,561.50 1051.00,614.00 1051.00,614.00" />
  <path id="msk-bmstu-fk.1-1.25-dr"
        fill="none" stroke="black" stroke-width="1"
        d="M 1172.00,469.00
           C 1172.00,469.00 1202.00,469.00 1202.00,469.00" />
  <path id="msk-bmstu-fk.1-1.24-dr"
        fill="none" stroke="black" stroke-width="1"
        d="M 1103.00,469.50
           C 1103.00,469.50 1134.00,469.50 1134.00,469.50" />
  <path id="msk-bmstu-fk.1-1.20-dr"
        fill="none" stroke="black" stroke-width="1"
        d="M 975.50,617.50
           C 975.50,617.50 1025.00,617.50 1025.00,617.50" />
  <path id="msk-bmstu-fk.1-1.21-dr"
        fill="none" stroke="black" stroke-width="1"
        d="M 878.50,559.00
           C 878.50,559.00 878.00,608.00 878.00,608.00" />
  <path id="msk-bmstu-fk.1-1.22-dr"
        fill="none" stroke="black" stroke-width="1"
        d="M 969.50,441.00
           C 969.50,441.00 1001.00,441.50 1001.00,441.50" />
  <path id="msk-bmstu-fk.1-1.12-dr"
        fill="none" stroke="black" stroke-width="1"
        d="M 2444.00,1472.50
           C 2444.00,1472.50 2445.00,1519.00 2445.00,1519.00" />
  <path id="msk-bmstu-fk.1-1.3-rm-2"
        fill="none" stroke="black" stroke-width="1"
        d="M 2195.00,1096.50
           C 2195.00,1096.50 2195.50,1336.00 2195.50,1336.00
             2195.50,1336.00 2084.00,1336.50 2084.00,1336.50
             2084.00,1336.50 2083.50,1095.50 2083.50,1095.50
             2083.50,1095.50 2195.00,1096.50 2195.00,1096.50 Z" />
  <path id="msk-bmstu-fk.1-1.4-dr"
        fill="none" stroke="black" stroke-width="1"
        d="M 2080.00,1298.00
           C 2080.00,1298.00 2080.00,1329.00 2080.00,1329.00" />
  <path id="msk-bmstu-fk.1-1.16-dr"
        fill="none" stroke="black" stroke-width="1"
        d="M 909.00,1386.00
           C 909.00,1386.00 959.00,1386.00 959.00,1386.00" />
  <path id="msk-bmstu-fk.1-1.14-dr-1"
        fill="none" stroke="black" stroke-width="1"
        d="M 1100.00,1364.00
           C 1100.00,1364.00 1145.00,1365.00 1145.00,1365.00" />
  <path id="msk-bmstu-fk.1-1.8-dr"
        fill="none" stroke="black" stroke-width="1"
        d="M 2178.00,1024.00
           C 2178.00,1024.00 2178.50,1056.00 2178.50,1056.00" />
  <path id="msk-bmstu-fk.1-1.14-dr-2"
        fill="none" stroke="black" stroke-width="1"
        d="M 1231.50,1172.00
           C 1231.50,1172.00 1232.00,1199.50 1232.00,1199.50" />
  <path id="msk-bmstu-fk.1-1.6-dr"
        fill="none" stroke="black" stroke-width="1"
        d="M 2179.00,902.00
           C 2179.00,902.00 2178.00,944.00 2178.00,944.00" />
  <path id="msk-bmstu-fk.1-1.5-dr"
        fill="none" stroke="black" stroke-width="1"
        d="M 2079.50,1186.50
           C 2079.50,1186.50 2079.00,1221.00 2079.00,1221.00" />
  <path id="msk-bmstu-fk.1-1.3-rm-1"
        fill="none" stroke="black" stroke-width="1"
        d="M 1928.00,1375.00
           C 1928.00,1375.00 1927.50,1652.50 1927.50,1652.50
             1927.50,1652.50 2189.00,1652.00 2189.00,1652.00
             2189.00,1652.00 2194.50,1375.00 2194.50,1375.00
             2194.50,1375.00 1928.00,1375.00 1928.00,1375.00 Z" />
  <path id="msk-bmstu-fk.1-1.1-dr"
        fill="none" stroke="black" stroke-width="1"
        d="M 2303.50,1587.50
           C 2303.50,1587.50 2353.00,1588.00 2353.00,1588.00" />
  <path id="msk-bmstu-fk.1-1.9-sc"
        fill="none" stroke="black" stroke-width="1"
        d="M 2498.50,831.00
           C 2498.50,831.00 2733.00,831.50 2733.00,831.50
             2733.00,831.50 2732.50,714.50 2732.50,714.50
             2732.50,714.50 2498.50,715.00 2498.50,715.00
             2498.50,715.00 2498.50,831.00 2498.50,831.00 Z" />
  <path id="msk-bmstu-fk.1-1.12-rm"
        fill="none" stroke="black" stroke-width="1"
        d="M 2462.00,1652.67
           C 2462.00,1652.67 2462.00,1373.33 2462.00,1373.33
             2462.00,1373.33 2722.00,1374.00 2722.00,1374.00
             2722.00,1374.00 2724.00,1652.67 2724.00,1652.67
             2724.00,1652.67 2462.00,1652.67 2462.00,1652.67 Z" />
  <path id="msk-bmstu-fk.1-entry-dr"
        fill="none" stroke="black" stroke-width="1"
        d="M 2352.50,1678.00
           C 2352.50,1678.00 2302.50,1677.00 2302.50,1677.00" />
  <path id="msk-bmstu-fk.1-1.11-rm"
        fill="none" stroke="black" stroke-width="1"
        d="M 2567.33,1339.33
           C 2567.33,1339.33 2567.33,1102.67 2567.33,1102.67
             2567.33,1102.67 2728.00,1100.00 2728.00,1100.00
             2728.00,1100.00 2728.00,1340.67 2728.00,1340.67
             2728.00,1340.67 2567.33,1339.33 2567.33,1339.33 Z" />
  <path id="msk-bmstu-fk.1-1.2-sc"
        fill="none" stroke="black" stroke-width="1"
        d="M 2429.50,1338.00
           C 2429.50,1338.00 2226.00,1339.00 2226.00,1339.00
             2226.00,1339.00 2225.50,1100.00 2225.50,1100.00
             2225.50,1100.00 2430.00,1100.50 2430.00,1100.50
             2430.00,1100.50 2429.50,1338.00 2429.50,1338.00 Z" />
  <path id="msk-bmstu-fk.1-1.8-rm"
        fill="none" stroke="black" stroke-width="1"
        d="M 2195.50,889.50
           C 2195.50,889.50 2463.00,890.00 2463.00,890.00
             2463.00,890.00 2463.50,1068.50 2463.50,1068.50
             2463.50,1068.50 2194.00,1067.50 2194.00,1067.50
             2194.00,1067.50 2195.50,889.50 2195.50,889.50 Z" />
  <path id="msk-bmstu-fk.1-1.10-pass"
        fill="none" stroke="black" stroke-width="1"
        d="M 2486.50,1100.00
           C 2486.50,1100.00 2558.50,1100.50 2558.50,1100.50
             2558.50,1100.50 2559.00,1340.50 2559.00,1340.50
             2559.00,1340.50 2487.50,1339.50 2487.50,1339.50
             2487.50,1339.50 2486.50,1100.00 2486.50,1100.00 Z" />
  <path id="msk-bmstu-fk.1-1.40-rm-1"
        fill="none" stroke="black" stroke-width="1"
        d="M 781.00,2585.50
           C 781.00,2585.00 780.50,2484.50 780.50,2484.50
             780.50,2484.50 943.00,2485.50 943.00,2485.50
             943.00,2485.50 943.50,2579.50 943.50,2579.50
             943.50,2579.50 862.00,2579.00 862.00,2579.00
             862.00,2579.00 862.00,2585.50 862.00,2585.50
             862.00,2585.50 781.00,2586.00 781.00,2585.50 Z" />
  <path id="msk-bmstu-fk.1-1.30-sr"
        fill="none" stroke="black" stroke-width="1"
        d="M 1374.00,441.50
           C 1374.00,441.50 1373.50,524.50 1373.50,524.50
             1373.50,524.50 1415.00,524.50 1415.00,524.50
             1415.00,524.50 1415.00,442.00 1415.00,442.00
             1415.00,442.00 1374.00,441.50 1374.00,441.50 Z" />
  <path id="msk-bmstu-fk.1-1.35-rm"
        fill="none" stroke="black" stroke-width="1"
        d="M 781.50,2020.50
           C 781.50,2020.50 1035.00,2021.50 1035.00,2021.50
             1035.00,2021.50 1031.00,2364.00 1031.00,2364.00
             1031.00,2364.00 828.00,2365.50 828.00,2365.50
             828.00,2365.50 828.00,2369.50 828.00,2369.50
             828.00,2369.50 780.50,2369.50 780.50,2369.50
             780.50,2369.50 781.50,2020.50 781.50,2020.50 Z" />
  <path id="msk-bmstu-fk.1-1.40-rm-2"
        fill="none" stroke="black" stroke-width="1"
        d="M 781.00,2607.00
           C 781.00,2607.00 873.50,2606.50 873.50,2606.50
             873.50,2606.50 875.00,2719.50 875.00,2719.50
             875.00,2719.50 781.50,2720.50 781.50,2720.50
             781.50,2720.50 781.00,2607.00 781.00,2607.00 Z" />
  <path id="msk-bmstu-fk.1-1.41-rm"
        fill="none" stroke="black" stroke-width="1"
        d="M 780.50,2728.50
           C 780.50,2728.50 1034.00,2729.00 1034.00,2729.00
             1034.00,2729.00 1033.50,2960.00 1033.50,2960.00
             1033.50,2960.00 780.00,2990.00 780.00,2990.00
             780.00,2990.00 780.50,2728.50 780.50,2728.50 Z" />
  <path id="msk-bmstu-fk.1-1.39-rm"
        fill="none" stroke="black" stroke-width="1"
        d="M 1034.00,2721.00
           C 1034.00,2721.00 882.50,2721.00 882.50,2721.00
             882.50,2721.00 883.00,2608.00 883.00,2608.00
             883.00,2608.00 1033.50,2606.00 1033.50,2606.00
             1033.50,2606.00 1034.00,2721.00 1034.00,2721.00 Z" />
  <path id="msk-bmstu-fk.1-1.31-rm"
        fill="none" stroke="black" stroke-width="1"
        d="M 850.00,1815.00
           C 850.00,1815.00 849.50,1630.00 849.50,1630.00
             849.50,1630.00 776.50,1630.00 776.50,1630.00
             776.50,1630.00 779.00,1817.00 779.00,1817.00
             779.00,1817.00 850.00,1815.00 850.00,1815.00 Z" />
  <path id="msk-bmstu-fk.1-1.34-rm"
        fill="none" stroke="black" stroke-width="1"
        d="M 781.00,2013.00
           C 781.00,2013.00 780.50,1835.50 780.50,1835.50
             780.50,1835.50 1031.00,1835.50 1031.00,1835.50
             1031.00,1835.50 1034.00,2013.00 1034.00,2013.00
             1034.00,2013.00 781.00,2013.00 781.00,2013.00 Z" />
  <path id="msk-bmstu-fk.1-1.55-ps"
        fill="none" stroke="black" stroke-width="1"
        d="M 3605.50,1196.00
           C 3605.50,1196.00 3606.00,1231.50 3606.00,1231.50" />
  <path id="msk-bmstu-fk.1-1.51-ps-1"
        fill="none" stroke="black" stroke-width="1"
        d="M 3606.00,567.00
           C 3606.00,567.00 3606.00,601.00 3606.00,601.00" />
  <path id="msk-bmstu-fk.1-1.14-st-up"
        fill="none" stroke="black" stroke-width="1"
        d="M 1179.00,1296.50
           C 1179.00,1296.50 1216.50,1296.00 1216.50,1296.00" />
  <path id="msk-bmstu-fk.1-1.59-ps"
        fill="none" stroke="black" stroke-width="1"
        d="M 3628.50,1830.00
           C 3628.50,1830.00 3680.00,1830.50 3680.00,1830.50" />
  <path id="msk-bmstu-fk.1-1.14-st-down"
        fill="none" stroke="black" stroke-width="1"
        d="M 1105.50,1296.00
           C 1105.50,1296.00 1071.00,1296.00 1071.00,1296.00" />
  <path id="msk-bmstu-fk.1-1.9-st-down"
        fill="none" stroke="black" stroke-width="1"
        d="M 2552.50,766.00
           C 2552.50,766.00 2552.00,715.50 2552.00,715.50" />
  <path id="msk-bmstu-fk.1-1.2-st-up"
        fill="none" stroke="black" stroke-width="1"
        d="M 2301.50,1285.50
           C 2301.50,1285.50 2301.50,1338.00 2301.50,1338.00" />
  <path id="msk-bmstu-fk.1-1.9-st-up"
        fill="none" stroke="black" stroke-width="1"
        d="M 2575.50,781.00
           C 2575.50,781.00 2575.00,830.50 2575.00,830.50" />
  <path id="msk-bmstu-fk.1-1.38-rm"
        fill="none" stroke="black" stroke-width="1"
        d="M 943.00,2383.00
           C 943.00,2383.00 943.00,2477.50 943.00,2477.50
             943.00,2477.50 781.50,2476.50 781.50,2476.50
             781.50,2476.50 782.00,2386.50 782.00,2386.50
             782.00,2386.50 879.00,2388.00 879.00,2388.00
             879.00,2388.00 879.00,2383.00 879.00,2383.00
             879.00,2383.00 943.00,2383.00 943.00,2383.00 Z" />
  <path id="msk-bmstu-fk.1-1.2-st-down"
        fill="none" stroke="black" stroke-width="1"
        d="M 2372.00,1230.00
           C 2372.00,1230.00 2429.50,1230.00 2429.50,1230.00" />
  <path id="msk-bmstu-fk.1-1.52-ps"
        fill="none" stroke="black" stroke-width="1"
        d="M 3606.00,806.50
           C 3606.00,806.50 3605.00,844.00 3605.00,844.00" />
  <path id="msk-bmstu-fk.1-1.51-ps-2"
        fill="none" stroke="black" stroke-width="1"
        d="M 3605.00,688.00
           C 3605.00,688.00 3606.50,723.50 3606.50,723.50" />
  <path id="msk-bmstu-fk.1-1.48-ps"
        fill="none" stroke="black" stroke-width="1"
        d="M 3421.50,681.50
           C 3421.50,681.50 3422.00,719.00 3422.00,719.00" />
  <path id="msk-bmstu-fk.1-1.50-ps"
        fill="none" stroke="black" stroke-width="1"
        d="M 3606.00,384.50
           C 3606.00,384.50 3606.00,420.00 3606.00,420.00" />
  <path id="msk-bmstu-fk.1-1.49-ps"
        fill="none" stroke="black" stroke-width="1"
        d="M 3420.50,566.00
           C 3420.50,566.00 3420.50,598.50 3420.50,598.50" />
  <path id="msk-bmstu-fk.1-1.43-ps-5"
        fill="none" stroke="black" stroke-width="1"
        d="M 3605.50,1049.50
           C 3605.50,1049.50 3606.00,1086.00 3606.00,1086.00" />
  <path id="msk-bmstu-fk.1-1.43-ps-6"
        fill="none" stroke="black" stroke-width="1"
        d="M 3423.50,845.50
           C 3423.50,845.50 3424.00,879.50 3424.00,879.50" />
  <path id="msk-bmstu-fk.1-1.44-ps"
        fill="none" stroke="black" stroke-width="1"
        d="M 3423.50,1080.50
           C 3423.50,1080.50 3424.50,1128.00 3424.50,1128.00" />
  <path id="msk-bmstu-fk.1-1.43-ps-4"
        fill="none" stroke="black" stroke-width="1"
        d="M 3447.50,539.00
           C 3447.50,539.00 3578.50,540.50 3578.50,540.50" />
  <path id="msk-bmstu-fk.1-1.43-pass-6"
        fill="none" stroke="black" stroke-width="1"
        d="M 3410.50,916.00
           C 3410.50,916.00 3353.50,916.50 3353.50,916.50
             3353.50,916.50 3354.00,821.00 3354.00,821.00
             3354.00,821.00 3410.50,821.00 3410.50,821.00
             3410.50,821.00 3410.50,916.00 3410.50,916.00 Z" />
  <path id="msk-bmstu-fk.1-1.43-ps-3"
        fill="none" stroke="black" stroke-width="1"
        d="M 3452.00,781.00
           C 3452.00,781.00 3577.50,781.00 3577.50,781.00" />
  <path id="msk-bmstu-fk.1-1.43-pass-5"
        fill="none" stroke="black" stroke-width="1"
        d="M 3622.00,1040.50
           C 3622.00,1040.50 3698.50,1040.00 3698.50,1040.00
             3698.50,1040.00 3698.50,1096.50 3698.50,1096.50
             3698.50,1096.50 3622.00,1096.50 3622.00,1096.50
             3622.00,1096.50 3622.00,1040.50 3622.00,1040.50 Z" />
  <path id="msk-bmstu-fk.1-1.43-ps-1"
        fill="none" stroke="black" stroke-width="1"
        d="M 3468.50,1354.50
           C 3468.50,1354.50 3563.00,1355.00 3563.00,1355.00" />
  <path id="msk-bmstu-fk.1-1.43-ps-2"
        fill="none" stroke="black" stroke-width="1"
        d="M 3451.50,1161.00
           C 3451.50,1161.00 3578.00,1160.50 3578.00,1160.50" />
  <path id="msk-bmstu-fk.1-1.57-rm"
        fill="none" stroke="black" stroke-width="1"
        d="M 3777.00,1450.50
           C 3777.00,1450.50 3776.50,1370.50 3776.50,1370.50
             3776.50,1370.50 3623.50,1370.50 3623.50,1370.50
             3623.50,1370.50 3623.50,1449.00 3623.50,1449.00
             3623.50,1449.00 3777.00,1450.50 3777.00,1450.50 Z" />
  <path id="msk-bmstu-fk.1-1.55-rm"
        fill="none" stroke="black" stroke-width="1"
        d="M 3623.50,1362.00
           C 3623.50,1362.00 3624.00,1183.50 3624.00,1183.50
             3624.00,1183.50 3877.50,1182.50 3877.50,1182.50
             3877.50,1182.50 3878.50,1195.00 3878.50,1195.00
             3878.50,1195.00 3882.00,1194.00 3882.00,1194.00
             3882.00,1194.00 3882.50,1362.00 3882.50,1362.00
             3882.50,1362.00 3623.50,1362.00 3623.50,1362.00 Z" />
  <path id="msk-bmstu-fk.1-1.59-rm"
        fill="none" stroke="black" stroke-width="1"
        d="M 3872.00,2610.00
           C 3872.00,2610.00 3624.00,2637.00 3624.00,2637.00
             3624.00,2637.00 3622.00,1838.50 3622.00,1838.50
             3622.00,1838.50 3872.50,1838.00 3872.50,1838.00
             3872.50,1838.00 3872.00,2610.00 3872.00,2610.00 Z" />
  <path id="msk-bmstu-fk.1-1.58-rm"
        fill="none" stroke="black" stroke-width="1"
        d="M 3624.50,1457.50
           C 3624.50,1457.50 3883.00,1457.00 3883.00,1457.00
             3883.00,1457.00 3879.00,1823.00 3879.00,1823.00
             3879.00,1823.00 3623.50,1823.50 3623.50,1823.50
             3623.50,1823.50 3624.50,1457.50 3624.50,1457.50 Z" />
  <path id="msk-bmstu-fk.1-1.56-rm"
        fill="none" stroke="black" stroke-width="1"
        d="M 3783.50,1450.00
           C 3783.50,1450.00 3783.50,1370.50 3783.50,1370.50
             3783.50,1370.50 3883.00,1370.50 3883.00,1370.50
             3883.00,1370.50 3882.00,1449.00 3882.00,1449.00
             3882.00,1449.00 3783.50,1450.00 3783.50,1450.00 Z" />
  <path id="msk-bmstu-fk.1-1.54-wc"
        fill="none" stroke="black" stroke-width="1"
        d="M 3703.00,1039.00
           C 3703.00,1039.00 3703.00,1165.50 3703.00,1165.50
             3703.00,1165.50 3878.00,1164.50 3878.00,1164.50
             3878.00,1164.50 3878.50,1040.00 3878.50,1040.00
             3878.50,1040.00 3703.00,1039.00 3703.00,1039.00 Z" />
  <path id="msk-bmstu-fk.1-1.53-rm"
        fill="none" stroke="black" stroke-width="1"
        d="M 3623.00,1102.00
           C 3623.00,1102.00 3622.00,1164.50 3622.00,1164.50
             3622.00,1164.50 3698.00,1164.50 3698.00,1164.50
             3698.00,1164.50 3697.50,1101.50 3697.50,1101.50
             3697.50,1101.50 3623.00,1102.00 3623.00,1102.00 Z" />
  <path id="msk-bmstu-fk.1-1.46-sc"
        fill="none" stroke="black" stroke-width="1"
        d="M 3411.00,1031.00
           C 3411.00,1031.00 3410.50,924.50 3410.50,924.50
             3410.50,924.50 3134.50,924.50 3134.50,924.50
             3134.50,924.50 3134.00,1030.00 3134.00,1030.00
             3134.00,1030.00 3411.00,1031.00 3411.00,1031.00 Z" />
  <path id="msk-bmstu-fk.1-1.52-rm"
        fill="none" stroke="black" stroke-width="1"
        d="M 3877.00,777.50
           C 3877.00,777.50 3623.00,777.50 3623.00,777.50
             3623.00,777.50 3623.00,1032.50 3623.00,1032.50
             3623.00,1032.50 3878.50,1032.50 3878.50,1032.50
             3878.50,1032.50 3877.00,777.50 3877.00,777.50 Z" />
  <path id="msk-bmstu-fk.1-1.51-rm"
        fill="none" stroke="black" stroke-width="1"
        d="M 3623.50,544.00
           C 3623.50,544.00 3623.00,769.50 3623.00,769.50
             3623.00,769.50 3878.50,769.50 3878.50,769.50
             3878.50,769.50 3879.00,545.00 3879.00,545.00
             3879.00,545.00 3623.50,544.00 3623.50,544.00 Z" />
  <path id="msk-bmstu-fk.1-1.50-rm"
        fill="none" stroke="black" stroke-width="1"
        d="M 3878.00,536.50
           C 3878.00,536.50 3622.50,536.50 3622.50,536.50
             3622.50,536.50 3622.50,371.00 3622.50,371.00
             3622.50,371.00 3878.50,370.50 3878.50,370.50
             3878.50,370.50 3878.00,536.50 3878.00,536.50 Z" />
  <path id="msk-bmstu-fk.1-1.32-wc"
        fill="none" stroke="black" stroke-width="1"
        d="M 858.00,1815.50
           C 858.00,1815.50 858.00,1630.00 858.00,1630.00
             858.00,1630.00 929.50,1630.00 929.50,1630.00
             929.50,1630.00 929.00,1816.00 929.00,1816.00
             929.00,1816.00 858.00,1815.50 858.00,1815.50 Z" />
  <path id="msk-bmstu-fk.1-1.49-rm"
        fill="none" stroke="black" stroke-width="1"
        d="M 3409.50,378.00
           C 3409.50,378.00 3410.50,626.50 3410.50,626.50
             3410.50,626.50 3134.00,625.50 3134.00,625.50
             3134.00,625.50 3134.00,379.00 3134.00,379.00
             3134.00,379.00 3409.50,378.00 3409.50,378.00 Z" />
  <path id="msk-bmstu-fk.1-1.48-rm"
        fill="none" stroke="black" stroke-width="1"
        d="M 3410.50,813.00
           C 3410.50,813.00 3134.50,814.00 3134.50,814.00
             3134.50,814.00 3135.00,642.50 3135.00,642.50
             3135.00,642.50 3403.00,641.00 3403.00,641.00
             3403.00,641.00 3403.50,657.00 3403.50,657.00
             3403.50,657.00 3412.50,656.00 3412.50,656.00
             3412.50,656.00 3410.50,813.00 3410.50,813.00 Z" />
  <path id="msk-bmstu-fk.1-1.47-wc"
        fill="none" stroke="black" stroke-width="1"
        d="M 3347.50,917.00
           C 3347.50,917.00 3134.00,916.50 3134.00,916.50
             3134.00,916.50 3135.00,821.50 3135.00,821.50
             3135.00,821.50 3347.00,821.00 3347.00,821.00
             3347.00,821.00 3347.50,917.00 3347.50,917.00 Z" />
  <path id="msk-bmstu-fk.1-1.44-rm"
        fill="none" stroke="black" stroke-width="1"
        d="M 3337.00,1050.50
           C 3337.00,1050.50 3411.50,1051.00 3411.50,1051.00
             3411.50,1051.00 3411.50,1144.00 3411.50,1144.00
             3411.50,1144.00 3336.50,1143.50 3336.50,1143.50
             3336.50,1143.50 3337.00,1050.50 3337.00,1050.50 Z" />
  <path id="msk-bmstu-fk.1-1.45-wc"
        fill="none" stroke="black" stroke-width="1"
        d="M 3331.00,1051.00
           C 3331.00,1051.00 3330.50,1144.00 3330.50,1144.00
             3330.50,1144.00 3130.50,1144.50 3130.50,1144.50
             3130.50,1144.50 3130.50,1051.00 3130.50,1051.00
             3130.50,1051.00 3331.00,1051.00 3331.00,1051.00 Z" />
  <path id="msk-bmstu-fk.1-1.36-pass"
        fill="none" stroke="black" stroke-width="1"
        d="M 951.50,2387.50
           C 951.50,2387.50 951.50,2579.00 951.50,2579.00
             951.50,2579.00 1034.00,2580.50 1034.00,2580.50
             1034.00,2580.50 1034.00,2388.00 1034.00,2388.00
             1034.00,2388.00 951.50,2387.50 951.50,2387.50 Z" />
  <path id="msk-bmstu-fk.1-1.43-pass-4"
        fill="none" stroke="black" stroke-width="1"
        d="M 3587.50,524.50
           C 3587.50,524.50 3438.00,525.00 3438.00,525.00
             3438.00,525.00 3437.00,364.00 3437.00,364.00
             3437.00,364.00 3588.00,364.00 3588.00,364.00
             3588.00,364.00 3587.50,524.50 3587.50,524.50 Z" />
  <path id="msk-bmstu-fk.1-1.43-pass-2"
        fill="none" stroke="black" stroke-width="1"
        d="M 3439.50,1148.50
           C 3439.50,1148.50 3440.50,791.00 3440.50,791.00
             3440.50,791.00 3589.00,793.00 3589.00,793.00
             3589.00,793.00 3588.00,1147.50 3588.00,1147.50
             3588.00,1147.50 3439.50,1148.50 3439.50,1148.50 Z" />
  <path id="msk-bmstu-fk.1-1.43-pass-3"
        fill="none" stroke="black" stroke-width="1"
        d="M 3433.50,774.00
           C 3433.50,774.00 3588.00,773.00 3588.00,773.00
             3588.00,773.00 3588.00,555.50 3588.00,555.50
             3588.00,555.50 3434.50,554.50 3434.50,554.50
             3434.50,554.50 3433.50,774.00 3433.50,774.00 Z" />
  <path id="msk-bmstu-fk.1-1.43-pass-1"
        fill="none" stroke="black" stroke-width="1"
        d="M 3592.50,1343.50
           C 3592.50,1343.50 3445.00,1343.50 3445.00,1343.50
             3445.00,1343.50 3445.00,1180.00 3445.00,1180.00
             3445.00,1180.00 3593.50,1178.50 3593.50,1178.50
             3593.50,1178.50 3592.50,1343.50 3592.50,1343.50 Z" />
  <path id="msk-bmstu-fk.1-1.42-rm"
        fill="none" stroke="black" stroke-width="1"
        d="M 2761.00,1373.00
           C 2761.00,1373.00 2761.50,1625.00 2761.50,1625.00
             2761.50,1625.00 3591.00,1626.50 3591.00,1626.50
             3591.00,1626.50 3591.50,1373.00 3591.50,1373.00
             3591.50,1373.00 2761.00,1373.00 2761.00,1373.00 Z" />
  <path id="msk-bmstu-fk.1-1.33-pass"
        fill="none" stroke="black" stroke-width="1"
        d="M 938.00,1816.00
           C 938.00,1816.00 937.50,1631.00 937.50,1631.00
             937.50,1631.00 1031.00,1630.00 1031.00,1630.00
             1031.00,1630.00 1034.50,1816.50 1034.50,1816.50
             1034.50,1816.50 938.00,1816.00 938.00,1816.00 Z" />
  <path id="msk-bmstu-fk.1-1.29-rm"
        fill="none" stroke="black" stroke-width="1"
        d="M 1320.50,524.50
           C 1320.50,524.50 1320.00,485.50 1320.00,485.50
             1320.00,485.50 1365.50,487.00 1365.50,487.00
             1365.50,487.00 1365.00,525.50 1365.00,525.50
             1365.00,525.50 1320.50,524.50 1320.50,524.50 Z" />
  <path id="msk-bmstu-fk.1-1.1-rm"
        fill="none" stroke="black" stroke-width="1"
        d="M 2281.50,1652.00
           C 2281.50,1652.00 2226.00,1652.00 2226.00,1652.00
             2226.00,1652.00 2226.00,1375.00 2226.00,1375.00
             2226.00,1375.00 2430.50,1374.00 2430.50,1374.00
             2430.50,1374.00 2431.00,1651.00 2431.00,1651.00
             2431.00,1651.00 2374.00,1651.00 2374.00,1651.00
             2374.00,1651.00 2375.00,1583.50 2375.00,1583.50
             2375.00,1583.50 2281.50,1584.00 2281.50,1584.00
             2281.50,1584.00 2281.50,1652.00 2281.50,1652.00 Z" />
  <path id="msk-bmstu-fk.1-1.28-wc"
        fill="none" stroke="black" stroke-width="1"
        d="M 1320.00,479.00
           C 1320.00,479.00 1320.50,441.50 1320.50,441.50
             1320.50,441.50 1365.00,441.50 1365.00,441.50
             1365.00,441.50 1365.00,479.00 1365.00,479.00
             1365.00,479.00 1320.00,479.00 1320.00,479.00 Z" />
  <path id="msk-bmstu-fk.1-1.8-pass"
        fill="none" stroke="black" stroke-width="1"
        d="M 2495.00,864.00
           C 2495.00,864.00 2494.50,1070.50 2494.50,1070.50
             2494.50,1070.50 2730.50,1070.50 2730.50,1070.50
             2730.50,1070.50 2730.00,890.50 2730.00,890.50
             2730.00,890.50 2575.00,890.50 2575.00,890.50
             2575.00,890.50 2574.50,863.00 2574.50,863.00
             2574.50,863.00 2495.00,864.00 2495.00,864.00 Z" />
  <path id="msk-bmstu-fk.1-1.27-rm"
        fill="none" stroke="black" stroke-width="1"
        d="M 1255.00,434.00
           C 1255.00,434.00 1255.50,367.00 1255.50,367.00
             1255.50,367.00 1415.00,366.50 1415.00,366.50
             1415.00,366.50 1416.00,434.00 1416.00,434.00
             1416.00,434.00 1255.00,434.00 1255.00,434.00 Z" />
  <path id="msk-bmstu-fk.1-1.26-pass"
        fill="none" stroke="black" stroke-width="1"
        d="M 1255.50,525.00
           C 1255.50,525.00 1255.00,442.00 1255.00,442.00
             1255.00,442.00 1313.00,440.50 1313.00,440.50
             1313.00,440.50 1312.00,525.00 1312.00,525.00
             1312.00,525.00 1255.50,525.00 1255.50,525.00 Z" />
  <path id="msk-bmstu-fk.1-1.25-rm"
        fill="none" stroke="black" stroke-width="1"
        d="M 1153.50,466.50
           C 1153.50,466.50 1154.00,363.50 1154.00,363.50
             1154.00,363.50 1228.00,362.50 1228.00,362.50
             1228.00,362.50 1228.50,465.50 1228.50,465.50
             1228.50,465.50 1153.50,466.50 1153.50,466.50 Z" />
  <path id="msk-bmstu-fk.1-1.22-rm"
        fill="none" stroke="black" stroke-width="1"
        d="M 1036.00,436.50
           C 1036.00,436.50 1036.50,368.00 1036.50,368.00
             1036.50,368.00 883.00,368.00 883.00,368.00
             883.00,368.00 882.00,437.00 882.50,437.00
             883.00,437.00 1036.00,436.50 1036.00,436.50 Z" />
  <path id="msk-bmstu-fk.1-1.24-rm"
        fill="none" stroke="black" stroke-width="1"
        d="M 1070.50,465.00
           C 1070.50,465.00 1070.50,363.00 1070.50,363.00
             1070.50,363.00 1145.00,362.50 1145.00,362.50
             1145.00,362.50 1145.00,465.00 1145.00,465.00
             1145.00,465.00 1070.50,465.00 1070.50,465.00 Z" />
  <path id="msk-bmstu-fk.1-1.21-rm"
        fill="none" stroke="black" stroke-width="1"
        d="M 875.00,613.50
           C 875.00,613.50 782.00,614.00 782.00,614.00
             782.00,614.00 782.00,368.50 782.00,368.50
             782.00,368.50 875.50,368.50 875.50,368.50
             875.50,368.50 875.00,613.50 875.00,613.50 Z" />
  <path id="msk-bmstu-fk.1-1.23-pass"
        fill="none" stroke="black" stroke-width="1"
        d="M 1228.00,527.50
           C 1228.00,527.50 1226.50,473.00 1226.50,473.00
             1226.50,473.00 1070.00,473.50 1070.00,473.50
             1070.00,473.50 1070.50,528.00 1070.50,528.00
             1070.50,528.00 1228.00,527.50 1228.00,527.50 Z" />
  <path id="msk-bmstu-fk.1-1.19-sc"
        fill="none" stroke="black" stroke-width="1"
        d="M 1071.50,556.00
           C 1071.50,556.00 1286.50,556.50 1286.50,556.50
             1286.50,556.50 1287.50,637.50 1287.50,637.50
             1287.50,637.50 1070.50,637.50 1070.50,637.50
             1070.50,637.50 1071.50,556.00 1071.50,556.00 Z" />
  <path id="msk-bmstu-fk.1-1.6-rm"
        fill="none" stroke="black" stroke-width="1"
        d="M 2161.50,711.50
           C 2161.50,711.50 1929.00,712.00 1929.00,712.00
             1929.00,712.00 1930.00,1065.50 1930.00,1065.50
             1930.00,1065.50 2161.50,1066.00 2161.50,1066.00
             2161.50,1066.00 2161.50,711.50 2161.50,711.50 Z" />
  <path id="msk-bmstu-fk.1-1.20a-rm"
        fill="none" stroke="black" stroke-width="1"
        d="M 883.50,504.50
           C 883.50,504.50 936.50,504.50 936.50,504.50
             936.50,504.50 936.50,545.00 936.50,545.00
             936.50,545.00 882.00,546.50 882.00,546.50
             882.00,546.50 883.50,504.50 883.50,504.50 Z" />
  <path id="msk-bmstu-fk.1-1.20-rm"
        fill="none" stroke="black" stroke-width="1"
        d="M 883.00,497.00
           C 883.00,497.00 883.50,445.00 883.50,445.00
             883.50,445.00 1037.50,445.50 1037.50,445.50
             1037.50,445.50 1035.00,614.00 1035.00,614.00
             1035.00,614.00 883.00,615.00 883.00,615.00
             883.00,615.00 883.50,553.50 883.50,553.50
             883.50,553.50 945.00,553.00 945.00,553.00
             945.00,553.00 943.50,496.50 943.50,496.50
             943.50,496.50 883.00,497.00 883.00,497.00 Z" />
  <path id="msk-bmstu-fk.1-1.17-rm"
        fill="none" stroke="black" stroke-width="1"
        d="M 782.00,621.50
           C 782.00,621.50 956.00,622.50 956.00,622.50
             956.00,622.50 955.50,756.00 955.50,756.00
             955.50,756.00 782.00,754.50 782.00,754.50
             782.00,754.50 782.00,621.50 782.00,621.50 Z" />
  <path id="msk-bmstu-fk.1-1.18-rm"
        fill="none" stroke="black" stroke-width="1"
        d="M 962.50,755.50
           C 962.50,755.50 963.00,621.00 963.00,621.00
             963.00,621.00 1033.00,622.50 1033.00,622.50
             1033.00,622.50 1033.50,632.00 1033.50,632.00
             1033.50,632.00 1037.50,632.00 1037.50,632.00
             1037.50,632.00 1037.50,754.50 1037.50,754.50
             1037.50,754.50 962.50,755.50 962.50,755.50 Z" />
  <path id="msk-bmstu-fk.1-1.16-rm"
        fill="none" stroke="black" stroke-width="1"
        d="M 1038.00,1383.00
           C 1038.00,1383.00 1037.50,763.00 1037.50,763.00
             1037.50,763.00 781.50,762.50 781.50,762.50
             781.50,762.50 779.00,1382.00 779.00,1382.00
             779.00,1382.00 1038.00,1383.00 1038.00,1383.00 Z" />
  <path id="msk-bmstu-fk.1-1.7-rm"
        fill="none" stroke="black" stroke-width="1"
        d="M 2464.00,713.50
           C 2464.00,713.50 2463.00,882.00 2463.00,882.00
             2463.00,882.00 2194.50,882.00 2194.50,882.00
             2194.50,882.00 2195.00,713.00 2195.00,713.00
             2195.00,713.00 2464.00,713.50 2464.00,713.50 Z" />
  <path id="msk-bmstu-fk.1-1.15-rm"
        fill="none" stroke="black" stroke-width="1"
        d="M 1038.50,1623.00
           C 1038.50,1623.00 779.00,1622.50 779.00,1622.50
             779.00,1622.50 778.00,1391.00 778.00,1391.00
             778.00,1391.00 1039.00,1390.00 1039.00,1390.00
             1039.00,1390.00 1038.50,1623.00 1038.50,1623.00 Z" />
  <path id="msk-bmstu-fk.1-1.14-sc"
        fill="none" stroke="black" stroke-width="1"
        d="M 1217.00,1332.50
           C 1217.00,1332.50 1068.50,1332.00 1068.50,1332.00
             1068.50,1332.00 1068.50,1169.00 1068.50,1169.00
             1068.50,1169.00 1217.00,1168.50 1217.00,1168.50
             1217.00,1168.50 1217.00,1332.50 1217.00,1332.50 Z" />
  <path id="msk-bmstu-fk.1-1.5-rm"
        fill="none" stroke="black" stroke-width="1"
        d="M 2075.50,1094.00
           C 2075.50,1094.00 2076.50,1248.00 2076.50,1248.00
             2076.50,1248.00 1929.00,1247.50 1929.00,1247.50
             1929.00,1247.50 1930.50,1097.00 1930.50,1097.00
             1930.50,1097.00 1968.00,1097.50 1968.00,1097.50
             1968.00,1097.50 1968.00,1093.50 1968.00,1093.50
             1968.00,1093.50 2075.50,1094.00 2075.50,1094.00 Z" />
  <path id="msk-bmstu-fk.1-1.13-rm"
        fill="none" stroke="black" stroke-width="1"
        d="M 1894.50,1624.00
           C 1894.50,1624.00 1892.50,1373.50 1892.50,1373.50
             1892.50,1373.50 1064.00,1373.00 1064.00,1373.00
             1064.00,1373.00 1060.50,1623.50 1060.50,1623.50
             1060.50,1623.50 1894.50,1624.00 1894.50,1624.00 Z" />
  <path id="msk-bmstu-fk.1-entry-rm"
        fill="none" stroke="black" stroke-width="1"
        d="M 2303.50,1671.50
           C 2303.50,1671.50 2304.00,1652.00 2304.00,1652.00
             2304.00,1652.00 2289.50,1652.50 2289.50,1652.50
             2289.50,1652.50 2289.00,1591.50 2289.00,1591.50
             2289.00,1591.50 2367.50,1591.50 2367.50,1591.50
             2367.50,1591.50 2368.00,1651.00 2368.00,1651.00
             2368.00,1651.00 2353.50,1652.00 2353.50,1652.00
             2353.50,1652.00 2354.00,1672.00 2354.00,1672.00
             2354.00,1672.00 2303.50,1671.50 2303.50,1671.50 Z" />
  <path id="msk-bmstu-fk.1-bld"
        fill="none" stroke="black" stroke-width="1"
        d="M 2101.00,1899.00
           C 2101.00,1899.00 2117.50,1899.50 2117.50,1899.50
             2117.50,1899.50 2117.00,1879.00 2117.00,1879.00
             2117.00,1879.00 2199.00,1880.00 2199.00,1880.00
             2199.00,1880.00 2199.00,1899.50 2199.00,1899.50
             2199.00,1899.50 2216.50,1900.00 2216.50,1900.00
             2216.50,1900.00 2216.50,1874.00 2216.50,1874.00
             2216.50,1874.00 2439.50,1874.00 2439.50,1874.00
             2439.50,1874.00 2439.50,1900.00 2439.50,1900.00
             2439.50,1900.00 2456.50,1900.00 2456.50,1900.00
             2456.50,1900.00 2456.50,1888.00 2456.50,1888.00
             2456.50,1888.00 2537.50,1888.00 2537.50,1888.00
             2537.50,1888.00 2537.00,1900.50 2537.00,1900.50
             2537.00,1900.50 2554.50,1900.00 2554.50,1900.00
             2554.50,1900.00 2554.50,1757.50 2554.50,1757.50
             2554.50,1757.50 2444.50,1758.00 2444.50,1758.00
             2444.50,1758.00 2449.25,1754.00 2449.25,1754.00
             2449.25,1754.00 2455.50,1748.25 2455.50,1748.25
             2455.50,1748.25 2460.50,1742.25 2460.50,1742.25
             2460.50,1742.25 2464.75,1735.25 2464.75,1735.25
             2464.75,1735.25 2467.75,1727.50 2467.75,1727.50
             2467.75,1727.50 2469.75,1717.50 2469.75,1717.50
             2469.75,1717.50 2469.50,1709.00 2469.50,1709.00
             2469.50,1709.00 2467.75,1698.50 2467.75,1698.50
             2467.75,1698.50 2504.00,1697.25 2504.00,1697.25
             2504.00,1697.25 2503.50,1681.00 2503.50,1681.00
             2503.50,1681.00 2534.00,1680.00 2534.00,1680.00
             2534.00,1680.00 2534.00,1686.00 2534.00,1686.00
             2534.00,1686.00 2559.50,1686.00 2559.50,1686.00
             2559.50,1686.00 2559.50,1681.50 2559.50,1681.50
             2559.50,1681.50 2614.00,1681.00 2614.00,1681.00
             2614.00,1681.00 2614.00,1685.50 2614.00,1685.50
             2614.00,1685.50 2641.00,1686.50 2641.00,1686.50
             2641.00,1686.50 2641.50,1681.50 2641.50,1681.50
             2641.50,1681.50 2671.00,1681.00 2671.00,1681.00
             2671.00,1681.00 2671.00,1697.50 2671.00,1697.50
             2671.00,1697.50 2759.50,1697.00 2759.50,1697.00
             2759.50,1697.00 2760.50,1659.50 2760.50,1659.50
             2760.50,1659.50 3588.00,1658.50 3588.00,1658.50
             3588.00,1658.50 3587.50,2111.00 3587.50,2111.00
             3587.50,2111.00 3499.50,2111.50 3499.50,2111.50
             3499.50,2111.50 3500.00,2358.50 3500.00,2358.50
             3500.00,2358.50 3587.00,2359.00 3587.00,2359.00
             3587.00,2359.00 3586.50,2683.00 3586.50,2683.00
             3586.50,2683.00 3909.00,2649.50 3909.00,2649.50
             3909.00,2649.50 3910.00,1843.50 3910.00,1843.50
             3910.00,1843.50 3926.50,1843.50 3926.50,1843.50
             3926.50,1843.50 3924.50,1143.50 3924.50,1143.50
             3924.50,1143.50 3911.50,1144.00 3911.50,1144.00
             3911.50,1144.00 3912.00,337.50 3912.00,337.50
             3912.00,337.50 3405.50,337.00 3405.50,337.00
             3405.50,337.00 3405.50,343.00 3405.50,343.00
             3405.50,343.00 3099.50,343.00 3099.50,343.00
             3099.50,343.00 3099.50,1171.00 3099.50,1171.00
             3099.50,1171.00 3177.00,1169.50 3177.00,1169.50
             3177.00,1169.50 3177.50,1223.50 3177.50,1223.50
             3177.50,1223.50 3173.00,1223.50 3173.00,1223.50
             3173.00,1223.50 3173.00,1233.50 3173.00,1233.50
             3173.00,1233.50 3409.50,1232.50 3409.50,1232.50
             3409.50,1232.50 3410.00,1339.00 3410.00,1339.00
             3410.00,1339.00 2769.00,1340.00 2769.00,1340.00
             2769.00,1340.00 2767.00,676.50 2767.00,676.50
             2767.00,676.50 1894.00,675.50 1894.00,675.50
             1894.00,675.50 1894.50,1339.00 1894.50,1339.00
             1894.50,1339.00 1249.00,1339.50 1249.00,1339.50
             1249.00,1339.50 1249.00,1222.50 1249.00,1222.50
             1249.00,1222.50 1297.00,1222.50 1297.00,1222.50
             1297.00,1222.50 1297.00,1150.00 1297.00,1150.00
             1297.00,1150.00 1248.50,1150.00 1248.50,1150.00
             1248.50,1150.00 1250.00,1142.50 1250.00,1142.50
             1250.00,1142.50 1069.00,1142.00 1069.00,1142.00
             1069.00,1142.00 1069.50,659.50 1069.50,659.50
             1069.50,659.50 1310.50,659.50 1310.50,659.50
             1310.50,659.50 1309.50,556.00 1309.50,556.00
             1309.50,556.00 1442.50,555.00 1442.50,555.00
             1442.50,555.00 1442.50,336.50 1442.50,336.50
             1442.50,336.50 748.00,335.50 748.00,335.50
             748.00,335.50 746.50,1145.50 746.50,1145.50
             746.50,1145.50 727.00,1146.00 727.00,1146.00
             727.00,1146.00 726.00,1846.50 726.00,1846.50
             726.00,1846.50 746.00,1847.50 746.00,1847.50
             746.00,1847.50 746.50,3030.50 746.50,3030.50
             746.50,3030.50 1069.00,2994.50 1069.00,2994.50
             1069.00,2994.50 1069.50,2741.00 1069.50,2741.00
             1069.50,2741.00 1159.00,2742.00 1159.00,2742.00
             1159.00,2742.00 1158.50,2515.50 1158.00,2515.50
             1157.50,2515.50 1069.50,2516.00 1069.50,2516.00
             1069.50,2516.00 1070.00,1658.50 1070.00,1658.50
             1070.00,1658.50 1897.00,1657.00 1897.00,1657.00
             1897.00,1657.00 1896.00,1696.50 1896.00,1696.50
             1896.00,1696.50 1985.50,1698.00 1985.50,1698.00
             1985.50,1698.00 1987.50,1682.00 1987.50,1682.00
             1987.50,1682.00 2017.00,1682.00 2017.00,1682.00
             2017.00,1682.00 2017.50,1686.50 2017.50,1686.50
             2017.50,1686.50 2043.50,1687.50 2043.50,1687.50
             2043.50,1687.50 2043.00,1683.00 2043.00,1683.00
             2043.00,1683.00 2093.00,1682.00 2093.00,1682.00
             2093.00,1682.00 2097.00,1681.00 2097.00,1681.00
             2097.00,1681.00 2096.50,1688.00 2096.50,1688.00
             2096.50,1688.00 2123.50,1688.00 2123.50,1688.00
             2123.50,1688.00 2123.50,1681.50 2123.50,1681.50
             2123.50,1681.50 2153.50,1682.00 2153.50,1682.00
             2153.50,1682.00 2153.00,1696.50 2153.00,1696.50
             2153.00,1696.50 2190.50,1696.00 2190.50,1696.00
             2190.50,1696.00 2188.25,1703.00 2188.25,1703.00
             2188.25,1703.00 2187.25,1711.00 2187.25,1711.00
             2187.25,1711.00 2187.75,1719.50 2187.75,1719.50
             2187.75,1719.50 2190.00,1727.75 2190.00,1727.75
             2190.00,1727.75 2193.75,1736.50 2193.75,1736.50
             2193.75,1736.50 2198.50,1743.50 2198.50,1743.50
             2198.50,1743.50 2203.75,1749.50 2203.75,1749.50
             2203.75,1749.50 2210.50,1754.50 2210.50,1754.50
             2210.50,1754.50 2214.75,1757.50 2214.75,1757.50
             2214.75,1757.50 2100.75,1757.25 2100.75,1757.25
             2100.75,1757.25 2101.00,1899.00 2101.00,1899.00 Z" />
  <path id="length-6"
        fill="none" stroke="black" stroke-width="1"
        d="M 2217.00,306.50
           C 2217.00,306.50 2444.50,306.50 2444.50,306.50" />
</svg>
