<?xml version="1.0" encoding="UTF-8" standalone="no"?>
<!DOCTYPE svg PUBLIC "-//W3C//DTD SVG 20010904//EN"
              "http://www.w3.org/TR/2001/REC-SVG-20010904/DTD/svg10.dtd">

<svg xmlns="http://www.w3.org/2000/svg"
     width="15.0633in" height="10.66in"
     viewBox="0 0 4519 3198">
  <path id="msk-bmstu-fk.2-2.6-rm"
        fill="none" stroke="black" stroke-width="1"
        d="M 2181.00,1549.50
           C 2181.00,1549.50 1923.00,1550.00 1923.00,1550.00
             1923.00,1550.00 1923.50,1290.00 1923.50,1290.00
             1923.50,1290.00 2192.50,1290.00 2192.50,1290.00
             2192.50,1290.00 2192.00,1535.00 2192.00,1535.00
             2192.00,1535.00 2182.00,1535.00 2182.00,1535.00
             2182.00,1535.00 2181.00,1549.50 2181.00,1549.50 Z" />
  <path id="msk-bmstu-fk.2-2.12-rm"
        fill="none" stroke="black" stroke-width="1"
        d="M 2586.00,1173.00
           C 2586.00,1173.00 2730.00,1173.00 2730.00,1173.00
             2730.00,1173.00 2731.00,1266.50 2731.00,1266.50
             2731.00,1266.50 2586.00,1264.50 2586.00,1264.50
             2586.00,1264.50 2586.00,1173.00 2586.00,1173.00 Z" />
  <path id="msk-bmstu-fk.2-2.5-rm"
        fill="none" stroke="black" stroke-width="1"
        d="M 2193.50,1851.00
           C 2193.50,1851.00 2192.50,1637.50 2192.50,1637.50
             2192.50,1637.50 1924.00,1636.50 1924.00,1636.50
             1924.00,1636.50 1924.00,1852.50 1924.00,1852.50
             1924.00,1852.50 2193.50,1851.00 2193.50,1851.00 Z" />
  <path id="msk-bmstu-fk.2-2.11-wc"
        fill="none" stroke="black" stroke-width="1"
        d="M 2585.50,1165.00
           C 2585.50,1165.00 2585.50,1048.00 2585.50,1048.00
             2585.50,1048.00 2731.00,1047.00 2731.00,1047.00
             2731.00,1047.00 2731.50,1165.00 2731.50,1165.00
             2731.50,1165.00 2585.50,1165.00 2585.50,1165.00 Z" />
  <path id="msk-bmstu-fk.2-2.10-rm"
        fill="none" stroke="black" stroke-width="1"
        d="M 2576.50,1048.00
           C 2576.50,1048.00 2577.50,1264.50 2577.50,1264.50
             2577.50,1264.50 2491.00,1265.00 2491.00,1265.00
             2491.00,1265.00 2490.00,1049.00 2490.00,1049.00
             2490.00,1049.00 2576.50,1048.00 2576.50,1048.00 Z" />
  <path id="msk-bmstu-fk.2-2.13-rm"
        fill="none" stroke="black" stroke-width="1"
        d="M 2730.00,1535.50
           C 2730.00,1535.50 2454.50,1536.50 2454.50,1536.50
             2454.50,1536.50 2454.50,1287.50 2454.50,1287.50
             2454.50,1287.50 2730.50,1287.00 2730.50,1287.00
             2730.50,1287.00 2730.00,1535.50 2730.00,1535.50 Z" />
  <path id="msk-bmstu-fk.2-bld"
        fill="none" stroke="black" stroke-width="1"
        d="M 2760.00,874.00
           C 2760.00,874.00 2760.50,1536.00 2760.50,1536.00
             2760.50,1536.00 3407.50,1535.50 3407.50,1535.50
             3407.50,1535.50 3407.00,1363.50 3407.00,1363.50
             3407.00,1363.50 3095.50,1364.50 3095.50,1364.50
             3095.50,1364.50 3097.00,539.00 3097.00,539.00
             3097.00,539.00 3905.00,539.00 3905.00,539.00
             3905.00,539.00 3905.00,1337.50 3905.00,1337.50
             3905.00,1337.50 3926.00,1336.00 3926.00,1336.00
             3926.00,1336.00 3926.50,2036.50 3926.50,2036.50
             3926.50,2036.50 3930.00,2036.75 3930.00,2036.75
             3930.00,2036.75 3930.25,2133.25 3930.25,2133.25
             3930.25,2133.25 3559.75,2133.25 3559.75,2133.25
             3559.75,2133.25 3560.25,2012.25 3560.25,2012.25
             3560.25,2012.25 3584.25,2012.75 3584.25,2012.75
             3584.25,2012.75 3584.00,1849.75 3584.00,1849.75
             3584.00,1849.75 2756.50,1849.50 2756.50,1849.50
             2756.50,1849.50 2757.00,1894.00 2757.00,1894.00
             2757.00,1894.00 1891.50,1894.50 1891.50,1894.50
             1891.50,1894.50 1892.00,1847.50 1892.00,1847.50
             1892.00,1847.50 1065.50,1846.50 1065.50,1846.50
             1065.50,1846.50 1066.00,2002.00 1066.00,2002.00
             1066.00,2002.00 1090.00,2002.00 1090.00,2002.00
             1090.00,2002.00 1090.00,2133.00 1090.00,2133.00
             1090.00,2133.00 717.50,2133.50 717.50,2133.50
             717.50,2133.50 719.00,2040.00 719.00,2040.00
             719.00,2040.00 724.50,2039.50 724.50,2039.50
             724.50,2039.50 725.50,1338.50 725.50,1338.50
             725.50,1338.50 742.50,1338.50 742.50,1338.50
             742.50,1338.50 743.00,532.00 743.00,532.00
             743.00,532.00 1438.50,532.00 1438.50,532.00
             1438.50,532.00 1438.50,747.50 1438.50,747.50
             1438.50,747.50 1064.50,748.00 1064.50,748.00
             1064.50,748.00 1064.50,1334.50 1064.50,1334.50
             1064.50,1334.50 1244.50,1334.50 1244.50,1334.50
             1244.50,1334.50 1246.00,1537.00 1246.00,1537.00
             1246.00,1537.00 1894.50,1536.00 1894.50,1536.00
             1894.50,1536.00 1895.50,880.50 1895.50,880.50
             1895.50,880.50 2162.75,880.25 2162.75,880.25
             2162.75,880.25 2163.25,874.25 2163.25,874.25
             2163.25,874.25 2760.00,874.00 2760.00,874.00 Z" />
  <path id="msk-bmstu-fk.2-2.14-pass-3"
        fill="none" stroke="black" stroke-width="1"
        d="M 1643.00,1554.00
           C 1643.00,1554.00 1643.50,1628.50 1643.50,1628.50
             1643.50,1628.50 1564.00,1628.50 1564.00,1628.50
             1564.00,1628.50 1562.50,1553.50 1562.50,1553.50
             1562.50,1553.50 1643.00,1554.00 1643.00,1554.00 Z" />
  <path id="msk-bmstu-fk.2-2.17-wc"
        fill="none" stroke="black" stroke-width="1"
        d="M 1297.00,1637.00
           C 1297.00,1637.00 1297.50,1705.50 1297.50,1705.50
             1297.50,1705.50 1194.50,1705.00 1194.50,1705.00
             1194.50,1705.00 1195.00,1637.50 1195.00,1637.50
             1195.00,1637.50 1297.00,1637.00 1297.00,1637.00 Z" />
  <path id="msk-bmstu-fk.2-2.18.1-wc"
        fill="none" stroke="black" stroke-width="1"
        d="M 1540.00,1636.50
           C 1540.00,1636.50 1541.00,1705.00 1541.00,1705.00
             1541.00,1705.00 1658.00,1704.50 1658.00,1704.50
             1658.00,1704.50 1657.00,1636.50 1657.00,1636.50
             1657.00,1636.50 1540.00,1636.50 1540.00,1636.50 Z" />
  <path id="msk-bmstu-fk.2-2.20-wc"
        fill="none" stroke="black" stroke-width="1"
        d="M 1786.50,1705.00
           C 1786.50,1705.00 1666.00,1705.00 1666.00,1705.00
             1666.00,1705.00 1666.00,1637.00 1666.00,1637.00
             1666.00,1637.00 1787.50,1636.00 1787.50,1636.00
             1787.50,1636.00 1786.50,1705.00 1786.50,1705.00 Z" />
  <path id="msk-bmstu-fk.2-2.8-rm"
        fill="none" stroke="black" stroke-width="1"
        d="M 2189.50,901.00
           C 2189.50,901.00 2465.00,901.00 2465.00,901.00
             2465.00,901.00 2464.00,1264.50 2464.00,1264.50
             2464.00,1264.50 2190.50,1263.00 2190.50,1263.00
             2190.50,1263.00 2189.50,901.00 2189.50,901.00 Z" />
  <path id="msk-bmstu-fk.2-2.19-rm"
        fill="none" stroke="black" stroke-width="1"
        d="M 1666.00,1712.50
           C 1666.00,1712.50 1665.50,1818.50 1665.50,1818.50
             1665.50,1818.50 1784.50,1820.00 1784.50,1820.00
             1784.50,1820.00 1784.00,1828.50 1784.00,1828.50
             1784.00,1828.50 1893.50,1828.50 1893.50,1828.50
             1893.50,1828.50 1893.50,1637.50 1893.50,1637.50
             1893.50,1637.50 1795.00,1636.50 1795.00,1636.50
             1795.00,1636.50 1795.50,1712.50 1795.50,1712.50
             1795.50,1712.50 1666.00,1712.50 1666.00,1712.50 Z" />
  <path id="msk-bmstu-fk.2-2.15-sc"
        fill="none" stroke="black" stroke-width="1"
        d="M 1225.00,1535.00
           C 1225.00,1535.00 1063.50,1534.00 1063.50,1534.00
             1063.50,1534.00 1064.50,1353.00 1064.50,1353.00
             1064.50,1353.00 1224.50,1353.00 1224.50,1353.00
             1224.50,1353.00 1225.00,1535.00 1225.00,1535.00 Z" />
  <path id="msk-bmstu-fk.2-2.16-rm"
        fill="none" stroke="black" stroke-width="1"
        d="M 1305.00,1637.00
           C 1305.00,1637.00 1427.00,1637.50 1427.00,1637.50
             1427.00,1637.50 1426.50,1819.50 1426.50,1819.50
             1426.50,1819.50 1194.50,1819.50 1194.50,1819.50
             1194.50,1819.50 1194.50,1712.00 1194.50,1712.00
             1194.50,1712.00 1304.50,1713.00 1304.50,1713.00
             1304.50,1713.00 1305.00,1637.00 1305.00,1637.00 Z" />
  <path id="msk-bmstu-fk.2-2.18-rm"
        fill="none" stroke="black" stroke-width="1"
        d="M 1434.00,1636.00
           C 1434.00,1636.00 1532.50,1635.50 1532.50,1635.50
             1532.50,1635.50 1532.00,1713.00 1532.00,1713.00
             1532.00,1713.00 1658.00,1713.00 1658.00,1713.00
             1658.00,1713.00 1658.50,1819.00 1658.50,1819.00
             1658.50,1819.00 1434.50,1820.50 1434.50,1820.50
             1434.50,1820.50 1434.00,1636.00 1434.00,1636.00 Z" />
  <path id="msk-bmstu-fk.2-2.45-ps"
        fill="none" stroke="black" stroke-width="1"
        d="M 3417.50,905.00
           C 3417.50,905.00 3417.50,938.00 3417.50,938.00" />
  <path id="msk-bmstu-fk.2-2.48-ps-2"
        fill="none" stroke="black" stroke-width="1"
        d="M 3603.50,754.00
           C 3603.50,754.00 3604.00,788.00 3604.00,788.00" />
  <path id="msk-bmstu-fk.2-2.48-ps-1"
        fill="none" stroke="black" stroke-width="1"
        d="M 3606.00,629.00
           C 3606.00,629.00 3607.00,662.50 3607.00,662.50" />
  <path id="msk-bmstu-fk.2-2.10-ps-1"
        fill="none" stroke="black" stroke-width="1"
        d="M 2474.00,1067.50
           C 2474.00,1067.50 2474.50,1104.00 2474.50,1104.00" />
  <path id="msk-bmstu-fk.2-2.14-ps-6"
        fill="none" stroke="black" stroke-width="1"
        d="M 1198.50,1565.00
           C 1198.50,1565.00 1197.00,1628.00 1197.00,1628.00" />
  <path id="msk-bmstu-fk.2-2.49-ps"
        fill="none" stroke="black" stroke-width="1"
        d="M 3603.00,884.00
           C 3603.00,884.00 3603.50,917.00 3603.50,917.00" />
  <path id="msk-bmstu-fk.2-2.33-ps"
        fill="none" stroke="black" stroke-width="1"
        d="M 979.50,808.00
           C 979.50,808.00 1024.50,808.50 1024.50,808.50" />
  <path id="msk-bmstu-fk.2-2.46-ps"
        fill="none" stroke="black" stroke-width="1"
        d="M 3419.50,763.00
           C 3419.50,763.00 3419.00,796.00 3419.00,796.00" />
  <path id="msk-bmstu-fk.2-2.39-ps"
        fill="none" stroke="black" stroke-width="1"
        d="M 1134.50,627.00
           C 1134.50,627.00 1165.00,627.00 1165.00,627.00" />
  <path id="msk-bmstu-fk.2-2.21-ps-2"
        fill="none" stroke="black" stroke-width="1"
        d="M 958.50,1340.00
           C 958.50,1340.00 1036.00,1341.00 1036.00,1341.00" />
  <path id="msk-bmstu-fk.2-2.38-ps"
        fill="none" stroke="black" stroke-width="1"
        d="M 1052.50,679.50
           C 1052.50,679.50 1053.00,714.00 1053.00,714.00" />
  <path id="msk-bmstu-fk.2-2.35a-ps"
        fill="none" stroke="black" stroke-width="1"
        d="M 888.50,693.50
           C 888.50,693.50 922.50,692.50 922.50,692.50" />
  <path id="msk-bmstu-fk.2-2.22-ps"
        fill="none" stroke="black" stroke-width="1"
        d="M 991.50,1832.00
           C 991.50,1832.00 1029.00,1832.00 1029.00,1832.00" />
  <path id="msk-bmstu-fk.2-2.21-ps-5"
        fill="none" stroke="black" stroke-width="1"
        d="M 958.50,962.00
           C 958.50,962.00 1034.50,961.00 1035.00,961.00" />
  <path id="msk-bmstu-fk.2-2.21-ps-4"
        fill="none" stroke="black" stroke-width="1"
        d="M 959.00,1078.50
           C 959.00,1078.50 1036.50,1078.00 1036.50,1078.00" />
  <path id="msk-bmstu-fk.2-2.21-ps-3"
        fill="none" stroke="black" stroke-width="1"
        d="M 958.50,1197.00
           C 958.50,1197.00 1036.50,1198.00 1036.50,1198.00" />
  <path id="msk-bmstu-fk.2-2.21-ps-1"
        fill="none" stroke="black" stroke-width="1"
        d="M 1046.50,1577.00
           C 1046.50,1577.00 1046.00,1624.00 1046.00,1624.00" />
  <path id="msk-bmstu-fk.2-2.14-ps-4"
        fill="none" stroke="black" stroke-width="1"
        d="M 1434.00,1564.50
           C 1434.00,1564.50 1434.50,1629.00 1435.00,1629.00" />
  <path id="msk-bmstu-fk.2-2.14-ps-5"
        fill="none" stroke="black" stroke-width="1"
        d="M 1321.00,1562.00
           C 1321.00,1562.00 1321.00,1628.00 1321.00,1628.00" />
  <path id="msk-bmstu-fk.2-2.14-ps-3"
        fill="none" stroke="black" stroke-width="1"
        d="M 1548.00,1564.00
           C 1548.00,1564.00 1548.00,1629.00 1548.00,1629.00" />
  <path id="msk-bmstu-fk.2-2.13-ps"
        fill="none" stroke="black" stroke-width="1"
        d="M 2490.50,1276.50
           C 2490.50,1276.50 2531.50,1276.00 2531.50,1276.00" />
  <path id="msk-bmstu-fk.2-2.14-ps-2"
        fill="none" stroke="black" stroke-width="1"
        d="M 1655.50,1564.00
           C 1655.50,1564.00 1657.00,1629.00 1657.00,1629.00" />
  <path id="msk-bmstu-fk.2-2.14-ps-1"
        fill="none" stroke="black" stroke-width="1"
        d="M 1774.00,1564.50
           C 1774.00,1564.50 1775.00,1629.00 1775.00,1629.00" />
  <path id="msk-bmstu-fk.2-2.3-ps"
        fill="none" stroke="black" stroke-width="1"
        d="M 2472.00,1546.00
           C 2472.00,1546.00 2517.00,1546.00 2517.00,1546.00" />
  <path id="msk-bmstu-fk.2-2.10-ps-2"
        fill="none" stroke="black" stroke-width="1"
        d="M 2474.00,1221.00
           C 2474.00,1221.00 2474.00,1250.50 2474.00,1250.50" />
  <path id="msk-bmstu-fk.2-2.44-dr"
        fill="none" stroke="black" stroke-width="1"
        d="M 3418.50,1050.50
           C 3418.50,1050.50 3419.00,1088.00 3419.00,1088.00" />
  <path id="msk-bmstu-fk.2-2.53-dr-2"
        fill="none" stroke="black" stroke-width="1"
        d="M 3628.50,2027.50
           C 3628.50,2027.50 3663.50,2027.50 3663.50,2027.50" />
  <path id="msk-bmstu-fk.2-2.34-st-up"
        fill="none" stroke="black" stroke-width="1"
        d="M 820.00,708.50
           C 820.00,708.50 777.00,708.00 777.00,708.00" />
  <path id="msk-bmstu-fk.2-2.22-st"
        fill="none" stroke="black" stroke-width="1"
        d="M 718.50,2051.00
           C 718.50,2051.00 1088.00,2051.00 1088.50,2051.00" />
  <path id="msk-bmstu-fk.2-2.34-st-down"
        fill="none" stroke="black" stroke-width="1"
        d="M 828.00,708.00
           C 828.00,708.00 868.00,708.00 868.00,708.00" />
  <path id="msk-bmstu-fk.2-2.43-st-down"
        fill="none" stroke="black" stroke-width="1"
        d="M 3289.50,1171.50
           C 3289.50,1171.50 3290.00,1122.00 3290.00,1122.00" />
  <path id="msk-bmstu-fk.2-2.9-st-down"
        fill="none" stroke="black" stroke-width="1"
        d="M 2544.00,951.50
           C 2544.00,951.50 2544.00,902.50 2544.00,902.50" />
  <path id="msk-bmstu-fk.2-2.15-st-up"
        fill="none" stroke="black" stroke-width="1"
        d="M 1186.50,1481.50
           C 1186.50,1481.50 1223.50,1481.50 1223.50,1481.50" />
  <path id="msk-bmstu-fk.2-2.7-ps"
        fill="none" stroke="black" stroke-width="1"
        d="M 2014.50,1276.50
           C 2014.50,1276.50 2067.50,1276.50 2067.50,1276.50" />
  <path id="msk-bmstu-fk.2-2.9-st-up"
        fill="none" stroke="black" stroke-width="1"
        d="M 2567.50,1022.50
           C 2567.50,1022.50 2566.50,974.00 2566.50,974.00" />
  <path id="msk-bmstu-fk.2-2.15-st-down"
        fill="none" stroke="black" stroke-width="1"
        d="M 1102.50,1481.50
           C 1102.50,1481.50 1066.00,1481.00 1066.00,1481.00" />
  <path id="msk-bmstu-fk.2-2.43-st-up"
        fill="none" stroke="black" stroke-width="1"
        d="M 3290.00,1176.50
           C 3290.00,1176.50 3289.50,1226.00 3289.50,1226.00" />
  <path id="msk-bmstu-fk.2-2.53-st"
        fill="none" stroke="black" stroke-width="1"
        d="M 3562.50,2056.00
           C 3562.50,2056.00 3928.00,2056.50 3928.00,2056.50" />
  <path id="msk-bmstu-fk.2-2.1-st"
        fill="none" stroke="black" stroke-width="1"
        d="M 2376.50,1445.00
           C 2376.50,1445.00 2427.50,1445.00 2427.50,1445.00" />
  <path id="msk-bmstu-fk.2-2.53-dr-1"
        fill="none" stroke="black" stroke-width="1"
        d="M 3601.00,1676.50
           C 3601.00,1676.50 3601.50,1717.00 3601.50,1717.00" />
  <path id="msk-bmstu-fk.2-2.53-dr-3"
        fill="none" stroke="black" stroke-width="1"
        d="M 3602.00,1477.00
           C 3602.00,1477.00 3602.50,1507.00 3602.50,1507.00" />
  <path id="msk-bmstu-fk.2-2.8-ps-2"
        fill="none" stroke="black" stroke-width="1"
        d="M 2174.50,959.00
           C 2174.50,959.00 2174.00,996.00 2174.00,996.00" />
  <path id="msk-bmstu-fk.2-2.8-ps-1"
        fill="none" stroke="black" stroke-width="1"
        d="M 2174.50,1160.00
           C 2174.50,1160.00 2174.50,1216.00 2174.50,1216.00" />
  <path id="msk-bmstu-fk.2-2.17-dr"
        fill="none" stroke="black" stroke-width="1"
        d="M 1301.00,1645.50
           C 1301.00,1645.50 1301.00,1683.00 1301.00,1683.00" />
  <path id="msk-bmstu-fk.2-2.4-ps"
        fill="none" stroke="black" stroke-width="1"
        d="M 2207.50,1575.50
           C 2207.50,1575.50 2208.00,1624.00 2208.00,1623.50" />
  <path id="msk-bmstu-fk.2-2.52-dr"
        fill="none" stroke="black" stroke-width="1"
        d="M 3696.00,1238.50
           C 3696.00,1238.50 3696.00,1270.00 3696.00,1270.00" />
  <path id="msk-bmstu-fk.2-2.2-ps"
        fill="none" stroke="black" stroke-width="1"
        d="M 2440.00,1570.00
           C 2440.00,1570.00 2440.00,1618.50 2440.00,1618.50" />
  <path id="msk-bmstu-fk.2-2.47-dr"
        fill="none" stroke="black" stroke-width="1"
        d="M 3483.00,699.50
           C 3483.00,699.50 3536.50,699.00 3536.50,699.00" />
  <path id="msk-bmstu-fk.2-2.51-dr"
        fill="none" stroke="black" stroke-width="1"
        d="M 3640.50,1291.50
           C 3640.50,1291.50 3671.00,1291.00 3671.00,1291.00" />
  <path id="msk-bmstu-fk.2-2.37-dr"
        fill="none" stroke="black" stroke-width="1"
        d="M 983.00,637.00
           C 983.00,637.00 982.50,666.50 982.50,666.50" />
  <path id="msk-bmstu-fk.2-2.50-dr"
        fill="none" stroke="black" stroke-width="1"
        d="M 3601.50,1125.00
           C 3601.50,1125.00 3602.00,1158.50 3602.00,1158.50" />
  <path id="msk-bmstu-fk.2-2.36-dr"
        fill="none" stroke="black" stroke-width="1"
        d="M 894.00,628.50
           C 894.00,628.50 925.00,629.50 925.00,629.50" />
  <path id="msk-bmstu-fk.2-2.43-dr"
        fill="none" stroke="black" stroke-width="1"
        d="M 3419.00,1178.50
           C 3419.00,1178.50 3419.00,1221.00 3419.00,1221.00" />
  <path id="msk-bmstu-fk.2-2.42-dr"
        fill="none" stroke="black" stroke-width="1"
        d="M 3419.00,1303.50
           C 3419.00,1303.50 3418.50,1339.00 3418.50,1339.00" />
  <path id="msk-bmstu-fk.2-2.35-dr"
        fill="none" stroke="black" stroke-width="1"
        d="M 941.50,676.00
           C 941.50,676.00 975.50,676.00 975.50,676.00" />
  <path id="msk-bmstu-fk.2-2.41-dr-2"
        fill="none" stroke="black" stroke-width="1"
        d="M 3602.50,1238.50
           C 3602.50,1238.50 3603.00,1268.50 3603.00,1268.50" />
  <path id="msk-bmstu-fk.2-2.41-dr-1"
        fill="none" stroke="black" stroke-width="1"
        d="M 3486.00,1546.00
           C 3486.00,1546.00 3544.00,1547.00 3544.00,1547.00" />
  <path id="msk-bmstu-fk.2-2.34-dr"
        fill="none" stroke="black" stroke-width="1"
        d="M 875.00,750.00
           C 875.00,750.00 875.50,799.00 875.50,799.00" />
  <path id="msk-bmstu-fk.2-2.40-dr"
        fill="none" stroke="black" stroke-width="1"
        d="M 2739.00,1564.50
           C 2739.00,1564.50 2739.00,1613.50 2739.00,1613.50" />
  <path id="msk-bmstu-fk.2-2.28-dr"
        fill="none" stroke="black" stroke-width="1"
        d="M 894.50,1460.00
           C 894.50,1460.00 931.50,1461.00 931.50,1461.00" />
  <path id="msk-bmstu-fk.2-2.32-dr"
        fill="none" stroke="black" stroke-width="1"
        d="M 894.00,956.00
           C 894.00,956.00 931.50,957.00 931.50,957.00" />
  <path id="msk-bmstu-fk.2-2.24-dr"
        fill="none" stroke="black" stroke-width="1"
        d="M 955.00,1897.50
           C 955.00,1897.50 992.50,1896.50 992.50,1896.50" />
  <path id="msk-bmstu-fk.2-2.31-dr"
        fill="none" stroke="black" stroke-width="1"
        d="M 955.00,890.50
           C 955.00,890.50 955.00,928.50 955.00,928.50" />
  <path id="msk-bmstu-fk.2-2.30-dr"
        fill="none" stroke="black" stroke-width="1"
        d="M 894.00,1192.50
           C 894.00,1192.50 932.00,1192.00 932.00,1192.00" />
  <path id="msk-bmstu-fk.2-2.29-dr"
        fill="none" stroke="black" stroke-width="1"
        d="M 954.50,1283.00
           C 954.50,1283.00 953.50,1322.00 953.50,1322.00" />
  <path id="msk-bmstu-fk.2-2.27-dr"
        fill="none" stroke="black" stroke-width="1"
        d="M 954.00,1390.50
           C 954.00,1390.50 955.00,1428.00 955.00,1428.00" />
  <path id="msk-bmstu-fk.2-2.26-dr"
        fill="none" stroke="black" stroke-width="1"
        d="M 893.50,1691.00
           C 893.50,1691.00 932.50,1691.50 932.50,1691.50" />
  <path id="msk-bmstu-fk.2-2.25-dr"
        fill="none" stroke="black" stroke-width="1"
        d="M 955.00,1740.00
           C 955.00,1740.00 954.50,1774.50 954.50,1774.50" />
  <path id="msk-bmstu-fk.2-2.18.1-dr"
        fill="none" stroke="black" stroke-width="1"
        d="M 1536.00,1647.00
           C 1536.00,1647.00 1537.00,1677.00 1537.00,1677.00" />
  <path id="msk-bmstu-fk.2-2.23-dr"
        fill="none" stroke="black" stroke-width="1"
        d="M 878.50,1966.00
           C 878.50,1966.00 878.50,2003.50 878.50,2003.50" />
  <path id="msk-bmstu-fk.2-2.22-dr"
        fill="none" stroke="black" stroke-width="1"
        d="M 887.00,2019.00
           C 887.00,2019.00 919.00,2018.50 919.00,2018.50" />
  <path id="msk-bmstu-fk.2-2.20-dr"
        fill="none" stroke="black" stroke-width="1"
        d="M 1790.50,1643.50
           C 1790.50,1643.50 1790.50,1678.50 1790.50,1678.50" />
  <path id="msk-bmstu-fk.2-2.1-dr"
        fill="none" stroke="black" stroke-width="1"
        d="M 2298.00,1546.50
           C 2298.00,1546.50 2351.50,1546.50 2351.50,1546.50" />
  <path id="msk-bmstu-fk.2-2.18-dr"
        fill="none" stroke="black" stroke-width="1"
        d="M 1474.00,1631.50
           C 1474.00,1631.50 1512.50,1631.00 1512.50,1631.00" />
  <path id="msk-bmstu-fk.2-2.19-dr"
        fill="none" stroke="black" stroke-width="1"
        d="M 1821.00,1633.00
           C 1821.00,1633.00 1859.00,1633.00 1859.00,1633.00" />
  <path id="msk-bmstu-fk.2-2.12-dr"
        fill="none" stroke="black" stroke-width="1"
        d="M 2581.00,1200.50
           C 2581.00,1200.50 2581.00,1238.50 2581.00,1238.50" />
  <path id="msk-bmstu-fk.2-2.14-dr"
        fill="none" stroke="black" stroke-width="1"
        d="M 1908.50,1569.50
           C 1908.50,1569.50 1909.00,1615.00 1909.00,1615.00" />
  <path id="msk-bmstu-fk.2-2.16-dr"
        fill="none" stroke="black" stroke-width="1"
        d="M 1356.00,1633.00
           C 1356.00,1633.00 1394.50,1633.50 1394.50,1633.50" />
  <path id="msk-bmstu-fk.2-2.15-dr"
        fill="none" stroke="black" stroke-width="1"
        d="M 1080.00,1546.00
           C 1080.00,1546.00 1135.00,1546.50 1135.00,1546.50" />
  <path id="msk-bmstu-fk.2-2.11-dr"
        fill="none" stroke="black" stroke-width="1"
        d="M 2581.00,1100.50
           C 2581.00,1100.50 2580.00,1135.00 2580.00,1135.00" />
  <path id="msk-bmstu-fk.2-2.49-rm"
        fill="none" stroke="black" stroke-width="1"
        d="M 3872.00,816.00
           C 3872.00,816.00 3872.50,826.00 3872.50,826.00
             3872.50,826.00 3882.00,825.50 3882.00,825.50
             3882.00,825.50 3883.00,942.00 3883.00,942.00
             3883.00,942.00 3873.50,942.50 3873.50,942.50
             3873.50,942.50 3874.00,964.50 3874.00,964.50
             3874.00,964.50 3882.50,965.00 3882.50,965.00
             3882.50,965.00 3884.00,1063.50 3884.00,1063.50
             3884.00,1063.50 3873.12,1063.75 3873.12,1063.75
             3873.12,1063.75 3873.38,1067.12 3873.38,1067.12
             3873.38,1067.12 3616.50,1067.00 3616.50,1067.00
             3616.50,1067.00 3616.50,816.50 3616.50,816.50
             3616.50,816.50 3872.00,816.00 3872.00,816.00 Z" />
  <path id="msk-bmstu-fk.2-2.53-rm"
        fill="none" stroke="black" stroke-width="1"
        d="M 3603.50,2019.00
           C 3603.50,2019.00 3604.00,1858.50 3604.00,1858.50
             3604.00,1858.50 3615.00,1858.50 3615.00,1858.50
             3615.00,1858.50 3614.50,1819.50 3614.50,1820.00
             3614.50,1820.50 3611.00,1820.00 3611.00,1820.00
             3611.00,1820.00 3610.50,1567.50 3610.50,1567.50
             3610.50,1567.50 3614.50,1566.50 3614.50,1566.50
             3614.50,1566.50 3615.50,1378.50 3615.50,1378.50
             3615.50,1378.50 3903.50,1378.50 3903.50,1378.50
             3903.50,1378.50 3903.50,1535.00 3903.50,1535.00
             3903.50,1535.00 3884.00,1535.50 3884.00,1535.50
             3884.00,1535.50 3883.50,1556.00 3883.50,1556.00
             3883.50,1556.00 3898.50,1556.50 3898.50,1556.50
             3898.50,1556.50 3899.00,1637.50 3899.00,1637.50
             3899.00,1637.50 3888.00,1637.50 3888.00,1637.50
             3888.00,1637.50 3888.00,1658.50 3888.00,1658.50
             3888.00,1658.50 3899.00,1659.00 3899.00,1659.00
             3899.00,1659.00 3900.00,1730.50 3900.00,1730.50
             3900.00,1730.50 3888.00,1729.50 3888.00,1729.50
             3888.00,1729.50 3888.00,1753.50 3888.00,1753.50
             3888.00,1753.50 3899.00,1753.50 3899.00,1753.50
             3899.00,1753.50 3900.00,1826.50 3900.00,1826.50
             3900.00,1826.50 3880.00,1826.50 3880.00,1826.50
             3880.00,1826.50 3879.50,1849.00 3879.50,1849.00
             3879.50,1849.00 3903.50,1849.50 3903.50,1849.50
             3903.50,1849.50 3903.50,2020.00 3903.50,2020.00
             3903.50,2020.00 3603.50,2019.00 3603.50,2019.00 Z" />
  <path id="msk-bmstu-fk.2-2.9-dr"
        fill="none" stroke="black" stroke-width="1"
        d="M 2506.50,1034.50
           C 2506.50,1034.50 2556.50,1034.50 2556.50,1034.50" />
  <path id="msk-bmstu-fk.2-2.14-pass-7"
        fill="none" stroke="black" stroke-width="1"
        d="M 1184.00,1556.50
           C 1184.00,1556.50 1187.50,1818.50 1187.50,1819.00
             1187.50,1819.50 1182.50,1819.50 1182.50,1819.50
             1182.50,1819.50 1181.00,1828.50 1181.00,1828.50
             1181.00,1828.50 1062.50,1829.00 1062.50,1829.00
             1062.50,1829.00 1063.00,1557.50 1063.00,1557.50
             1063.00,1557.50 1184.00,1556.50 1184.00,1556.50 Z" />
  <path id="msk-bmstu-fk.2-2.6-dr"
        fill="none" stroke="black" stroke-width="1"
        d="M 2115.00,1554.00
           C 2115.00,1554.00 2168.00,1553.50 2168.00,1553.50" />
  <path id="msk-bmstu-fk.2-2.5-dr"
        fill="none" stroke="black" stroke-width="1"
        d="M 2033.50,1633.00
           C 2033.50,1633.00 2083.50,1632.50 2083.50,1632.50" />
  <path id="msk-bmstu-fk.2-2.52-rm"
        fill="none" stroke="black" stroke-width="1"
        d="M 3698.00,1359.00
           C 3698.00,1359.00 3698.00,1231.00 3698.00,1231.00
             3698.00,1231.00 3882.00,1232.00 3882.00,1232.00
             3882.00,1232.00 3883.00,1360.00 3883.00,1360.00
             3883.00,1360.00 3698.00,1359.00 3698.00,1359.00 Z" />
  <path id="msk-bmstu-fk.2-2.51-rm"
        fill="none" stroke="black" stroke-width="1"
        d="M 3616.00,1359.50
           C 3616.00,1359.50 3617.00,1293.50 3617.00,1293.50
             3617.00,1293.50 3694.00,1293.50 3694.00,1293.50
             3694.00,1293.50 3693.50,1360.50 3693.50,1360.50
             3693.50,1360.50 3616.00,1359.50 3616.00,1359.50 Z" />
  <path id="msk-bmstu-fk.2-2.14-pass-6"
        fill="none" stroke="black" stroke-width="1"
        d="M 1307.50,1553.50
           C 1307.50,1553.50 1306.50,1629.00 1306.50,1629.00
             1306.50,1629.00 1212.00,1627.50 1212.00,1627.50
             1212.00,1627.50 1210.50,1553.50 1210.50,1553.50
             1210.50,1553.50 1307.50,1553.50 1307.50,1553.50 Z" />
  <path id="msk-bmstu-fk.2-2.50-rm"
        fill="none" stroke="black" stroke-width="1"
        d="M 3617.00,1074.50
           C 3617.00,1074.50 3872.00,1074.50 3872.00,1074.50
             3872.00,1074.50 3873.50,1086.50 3873.50,1086.50
             3873.50,1086.50 3882.50,1086.00 3882.50,1086.00
             3882.50,1086.00 3883.00,1178.00 3883.00,1178.00
             3883.00,1178.00 3871.50,1178.00 3871.50,1178.00
             3871.50,1178.00 3871.50,1197.50 3871.50,1197.50
             3871.50,1197.50 3883.00,1198.00 3883.00,1197.50
             3883.00,1197.00 3882.50,1224.00 3882.50,1224.00
             3882.50,1224.00 3616.50,1224.50 3616.50,1224.50
             3616.50,1224.50 3617.00,1074.50 3617.00,1074.50 Z" />
  <path id="msk-bmstu-fk.2-2.45-rm"
        fill="none" stroke="black" stroke-width="1"
        d="M 3406.50,1005.50
           C 3406.50,1005.50 3407.00,836.00 3407.00,836.00
             3407.00,836.00 3125.00,836.00 3125.00,836.00
             3125.00,836.00 3126.50,1005.00 3126.50,1005.00
             3126.50,1005.00 3406.50,1005.50 3406.50,1005.50 Z" />
  <path id="msk-bmstu-fk.2-2.48-rm"
        fill="none" stroke="black" stroke-width="1"
        d="M 3616.50,564.00
           C 3616.50,564.00 3883.00,563.00 3883.00,563.00
             3883.00,563.00 3882.50,692.00 3882.50,692.00
             3882.50,692.00 3873.50,692.00 3873.50,692.00
             3873.50,692.00 3873.00,714.00 3873.00,714.00
             3873.00,714.00 3883.00,714.00 3883.00,714.00
             3883.00,714.00 3883.00,804.00 3883.00,804.00
             3883.00,804.00 3872.50,804.00 3872.50,804.00
             3872.50,804.00 3873.00,809.00 3873.00,809.00
             3873.00,809.00 3616.50,808.00 3616.50,808.00
             3616.50,808.00 3616.50,564.00 3616.50,564.00 Z" />
  <path id="msk-bmstu-fk.2-2.46-rm"
        fill="none" stroke="black" stroke-width="1"
        d="M 3407.00,820.50
           C 3407.00,820.50 3407.00,565.50 3407.00,565.50
             3407.00,565.50 3124.50,565.50 3124.50,565.50
             3124.50,565.50 3124.00,820.00 3124.00,820.00
             3124.00,820.00 3407.00,820.50 3407.00,820.50 Z" />
  <path id="msk-bmstu-fk.2-2.47-rm"
        fill="none" stroke="black" stroke-width="1"
        d="M 3572.00,695.00
           C 3572.00,695.00 3572.50,667.50 3572.50,667.50
             3572.50,667.50 3594.00,668.50 3594.00,668.50
             3594.00,668.50 3593.50,563.00 3593.50,563.00
             3593.50,563.00 3561.50,563.00 3561.50,563.00
             3561.50,563.00 3561.25,558.50 3561.25,558.50
             3561.25,558.50 3448.25,558.25 3448.25,558.25
             3448.25,558.25 3447.75,563.75 3447.75,563.75
             3447.75,563.75 3430.75,564.00 3430.75,564.00
             3430.75,564.00 3431.00,667.75 3431.00,667.75
             3431.00,667.75 3445.75,668.50 3445.75,668.50
             3445.75,668.50 3447.25,695.50 3447.25,695.50
             3447.25,695.50 3572.00,695.00 3572.00,695.00 Z" />
  <path id="msk-bmstu-fk.2-2.9-sc"
        fill="none" stroke="black" stroke-width="1"
        d="M 2490.50,1024.50
           C 2490.50,1024.50 2489.50,900.50 2489.50,900.50
             2489.50,900.50 2733.00,900.50 2733.00,900.50
             2733.00,900.50 2732.50,1024.50 2732.50,1024.50
             2732.50,1024.50 2490.50,1024.50 2490.50,1024.50 Z" />
  <path id="msk-bmstu-fk.2-2.14-pass-4"
        fill="none" stroke="black" stroke-width="1"
        d="M 1534.50,1554.00
           C 1534.50,1554.00 1534.50,1628.00 1534.50,1628.00
             1534.50,1628.00 1447.50,1628.50 1447.50,1628.50
             1447.50,1628.50 1447.00,1554.00 1447.00,1554.00
             1447.00,1554.00 1534.50,1554.00 1534.50,1554.00 Z" />
  <path id="msk-bmstu-fk.2-2.14-pass-5"
        fill="none" stroke="black" stroke-width="1"
        d="M 1419.50,1553.00
           C 1419.50,1553.00 1421.00,1630.00 1421.00,1630.00
             1421.00,1630.00 1336.50,1629.50 1336.50,1629.50
             1336.50,1629.50 1336.50,1553.50 1336.50,1553.50
             1336.50,1553.50 1419.50,1553.00 1419.50,1553.00 Z" />
  <path id="length-6"
        fill="none" stroke="black" stroke-width="1"
        d="M 2440.00,461.00
           C 2440.00,461.00 2211.50,461.00 2211.50,461.00" />
  <path id="msk-bmstu-fk.2-2.43-rm"
        fill="none" stroke="black" stroke-width="1"
        d="M 3125.00,1227.50
           C 3125.00,1227.50 3125.50,1121.00 3125.50,1121.00
             3125.50,1121.00 3407.00,1121.00 3407.00,1121.00
             3407.00,1121.00 3407.50,1227.00 3407.50,1227.00
             3407.50,1227.00 3125.00,1227.50 3125.00,1227.50 Z" />
  <path id="msk-bmstu-fk.2-2.39-rm"
        fill="none" stroke="black" stroke-width="1"
        d="M 1232.00,623.50
           C 1232.00,623.50 1066.50,623.00 1066.50,623.00
             1066.50,623.00 1067.00,551.50 1067.00,551.50
             1067.00,551.50 1233.00,551.50 1233.00,551.50
             1233.00,551.50 1232.00,623.50 1232.00,623.50 Z" />
  <path id="msk-bmstu-fk.2-2.42-rm"
        fill="none" stroke="black" stroke-width="1"
        d="M 3407.00,1339.00
           C 3407.00,1339.00 3123.50,1338.50 3123.50,1338.50
             3123.50,1338.50 3122.00,1242.50 3122.00,1242.50
             3122.00,1242.50 3407.50,1242.50 3407.50,1242.50
             3407.50,1242.50 3407.00,1339.00 3407.00,1339.00 Z" />
  <path id="msk-bmstu-fk.2-2.44-rm"
        fill="none" stroke="black" stroke-width="1"
        d="M 3407.50,1113.00
           C 3407.50,1113.00 3407.50,1010.50 3407.50,1010.50
             3407.50,1010.50 3126.50,1010.50 3126.00,1010.50
             3125.50,1010.50 3126.50,1112.50 3126.50,1112.50
             3126.50,1112.50 3407.50,1113.00 3407.50,1113.00 Z" />
  <path id="msk-bmstu-fk.2-2.41-rm-2"
        fill="none" stroke="black" stroke-width="1"
        d="M 3617.00,1289.50
           C 3617.00,1289.50 3617.00,1232.00 3617.00,1232.00
             3617.00,1232.00 3694.00,1231.50 3694.00,1231.50
             3694.00,1231.50 3694.00,1289.00 3694.00,1289.00
             3694.00,1289.00 3617.00,1289.50 3617.00,1289.50 Z" />
  <path id="msk-bmstu-fk.2-2.37-rm"
        fill="none" stroke="black" stroke-width="1"
        d="M 947.50,624.00
           C 947.50,624.00 947.50,551.00 947.50,551.00
             947.50,551.00 1037.00,550.50 1037.00,550.50
             1037.00,550.50 1038.00,672.00 1038.00,672.00
             1038.00,672.00 987.00,672.00 987.00,672.00
             987.00,672.00 986.50,625.00 986.50,625.00
             986.50,625.00 947.50,624.00 947.50,624.00 Z" />
  <path id="msk-bmstu-fk.2-2.41-rm-1"
        fill="none" stroke="black" stroke-width="1"
        d="M 3431.00,1538.50
           C 3431.00,1538.50 3431.00,702.50 3431.00,702.50
             3431.00,702.50 3594.00,704.50 3594.00,704.50
             3594.00,704.50 3594.00,1539.00 3594.00,1539.00
             3594.00,1539.00 3431.00,1538.50 3431.00,1538.50 Z" />
  <path id="msk-bmstu-fk.2-2.21-pass-3"
        fill="none" stroke="black" stroke-width="1"
        d="M 1036.00,1184.50
           C 1036.00,1184.50 1036.50,1094.50 1036.50,1094.50
             1036.50,1094.50 958.00,1094.00 958.00,1094.00
             958.00,1094.00 957.00,1183.50 957.00,1183.50
             957.00,1183.50 1036.00,1184.50 1036.00,1184.50 Z" />
  <path id="msk-bmstu-fk.2-2.38-rm"
        fill="none" stroke="black" stroke-width="1"
        d="M 1067.00,727.00
           C 1067.00,727.00 1067.50,630.50 1067.50,630.50
             1067.50,630.50 1240.00,631.00 1240.00,631.00
             1240.00,631.00 1241.00,551.50 1241.00,551.50
             1241.00,551.50 1410.50,551.50 1410.50,551.50
             1410.50,551.50 1410.50,728.00 1410.50,728.00
             1410.50,728.00 1067.00,727.00 1067.00,727.00 Z" />
  <path id="msk-bmstu-fk.2-2.36-rm"
        fill="none" stroke="black" stroke-width="1"
        d="M 878.50,625.50
           C 878.50,625.50 879.00,550.50 879.00,550.50
             879.00,550.50 940.00,551.00 940.00,551.00
             940.00,551.00 940.50,624.50 940.50,624.50
             940.50,624.50 878.50,625.50 878.50,625.50 Z" />
  <path id="msk-bmstu-fk.2-2.40-rm"
        fill="none" stroke="black" stroke-width="1"
        d="M 2754.00,1831.50
           C 2754.00,1831.50 2857.50,1831.50 2857.50,1831.50
             2857.50,1831.50 2858.00,1822.50 2858.00,1822.50
             2858.00,1822.50 2886.00,1821.50 2886.00,1821.50
             2886.00,1821.50 2886.00,1831.00 2886.00,1831.00
             2886.00,1831.00 2974.00,1831.50 2974.00,1831.50
             2974.00,1831.50 2974.50,1821.00 2974.50,1821.00
             2974.50,1821.00 3006.00,1821.00 3006.00,1821.00
             3006.00,1821.00 3006.00,1831.50 3006.00,1831.50
             3006.00,1831.50 3091.50,1831.50 3091.50,1831.50
             3091.50,1831.50 3091.00,1822.00 3091.00,1822.00
             3091.00,1822.00 3121.00,1821.50 3121.00,1821.50
             3121.00,1821.50 3121.00,1831.50 3121.00,1831.50
             3121.00,1831.50 3209.50,1831.50 3209.50,1831.50
             3209.50,1831.50 3209.50,1821.50 3209.50,1821.50
             3209.50,1821.50 3235.50,1821.50 3235.50,1821.50
             3235.50,1821.50 3236.00,1831.00 3236.00,1831.00
             3236.00,1831.00 3323.00,1831.50 3323.00,1831.50
             3323.00,1831.50 3323.00,1821.50 3323.00,1821.50
             3323.00,1821.50 3352.50,1822.00 3352.50,1822.00
             3352.50,1822.00 3352.00,1831.00 3352.00,1831.00
             3352.00,1831.00 3439.00,1831.00 3439.00,1831.00
             3439.00,1831.00 3439.50,1821.50 3439.50,1821.50
             3439.50,1821.50 3469.00,1821.50 3469.00,1821.50
             3469.00,1821.50 3469.00,1826.50 3469.00,1826.50
             3469.00,1826.50 3588.00,1827.00 3588.00,1827.00
             3588.00,1827.00 3588.00,1561.00 3588.00,1561.00
             3588.00,1561.00 3421.00,1560.00 3421.00,1560.00
             3421.00,1560.00 3421.00,1552.00 3421.00,1552.00
             3421.00,1552.00 3346.50,1552.00 3346.50,1552.00
             3346.50,1552.00 3346.00,1562.50 3346.00,1562.50
             3346.00,1562.50 3320.50,1563.00 3320.50,1563.00
             3320.50,1563.00 3320.50,1552.00 3320.50,1552.00
             3320.50,1552.00 3233.50,1551.50 3233.50,1551.50
             3233.50,1551.50 3233.50,1562.50 3233.50,1562.50
             3233.50,1562.50 3207.00,1562.00 3207.00,1562.00
             3207.00,1562.00 3207.50,1551.50 3207.50,1551.50
             3207.50,1551.50 3120.50,1551.50 3120.50,1551.50
             3120.50,1551.50 3120.50,1562.50 3120.50,1562.50
             3120.50,1562.50 3092.00,1562.50 3092.00,1562.50
             3092.00,1562.50 3091.50,1551.00 3091.50,1551.00
             3091.50,1551.00 3000.00,1551.50 3000.00,1551.50
             3000.00,1551.50 3000.00,1562.00 3000.00,1562.00
             3000.00,1562.00 2974.00,1562.00 2974.00,1562.00
             2974.00,1562.00 2974.00,1552.00 2974.00,1552.00
             2974.00,1552.00 2887.00,1551.50 2887.00,1551.50
             2887.00,1551.50 2886.50,1562.00 2886.50,1562.00
             2886.50,1562.00 2859.50,1561.50 2859.50,1561.50
             2859.50,1561.50 2859.50,1552.00 2859.50,1552.00
             2859.50,1552.00 2755.00,1551.50 2755.00,1551.50
             2755.00,1551.50 2754.00,1831.50 2754.00,1831.50 Z" />
  <path id="msk-bmstu-fk.2-2.33-rm"
        fill="none" stroke="black" stroke-width="1"
        d="M 878.50,803.00
           C 878.50,803.00 878.50,746.50 878.50,746.50
             878.50,746.50 939.50,745.00 939.50,745.00
             939.50,745.00 939.50,679.00 939.50,679.00
             939.50,679.00 1037.00,680.50 1037.00,680.50
             1037.00,680.50 1037.00,749.50 1037.00,749.50
             1037.00,749.50 1047.00,749.50 1047.00,749.50
             1047.00,749.50 1046.50,803.00 1046.50,803.00
             1046.50,803.00 878.50,803.00 878.50,803.00 Z" />
  <path id="msk-bmstu-fk.2-2.34-sc"
        fill="none" stroke="black" stroke-width="1"
        d="M 762.00,804.00
           C 762.00,804.00 762.00,736.00 762.00,736.00
             762.00,736.00 770.50,735.00 770.50,735.00
             770.50,735.00 770.50,709.50 770.50,709.50
             770.50,709.50 761.50,710.00 761.50,710.00
             761.50,710.00 762.00,551.00 762.00,551.00
             762.00,551.00 870.50,550.00 870.50,550.00
             870.50,550.00 870.50,803.00 870.50,803.00
             870.50,803.00 762.00,804.00 762.00,804.00 Z" />
  <path id="msk-bmstu-fk.2-2.35a-rm"
        fill="none" stroke="black" stroke-width="1"
        d="M 879.00,696.50
           C 879.00,696.50 931.00,696.50 931.00,696.50
             931.00,696.50 931.00,739.00 931.00,739.00
             931.00,739.00 879.00,739.00 879.00,739.00
             879.00,739.00 879.00,696.50 879.00,696.50 Z" />
  <path id="msk-bmstu-fk.2-2.28-wc"
        fill="none" stroke="black" stroke-width="1"
        d="M 875.50,1578.00
           C 875.50,1578.00 950.50,1578.00 950.50,1578.00
             950.50,1578.00 950.50,1464.00 950.50,1464.00
             950.50,1464.00 875.50,1464.00 875.50,1464.00
             875.50,1464.00 875.50,1578.00 875.50,1578.00 Z" />
  <path id="msk-bmstu-fk.2-2.35-rm"
        fill="none" stroke="black" stroke-width="1"
        d="M 931.00,689.50
           C 931.00,689.50 879.00,689.50 879.00,689.50
             879.00,689.50 879.50,632.00 879.50,632.00
             879.50,632.00 979.50,632.50 979.50,632.50
             979.50,632.50 979.50,671.50 979.50,671.50
             979.50,671.50 931.50,672.00 931.50,672.00
             931.50,672.00 931.00,689.50 931.00,689.50 Z" />
  <path id="msk-bmstu-fk.2-2.32-wc"
        fill="none" stroke="black" stroke-width="1"
        d="M 875.50,1074.50
           C 875.50,1074.50 950.00,1075.00 950.00,1075.00
             950.00,1075.00 949.50,960.50 949.50,960.50
             949.50,960.50 875.50,959.50 875.50,959.50
             875.50,959.50 875.50,1074.50 875.50,1074.50 Z" />
  <path id="msk-bmstu-fk.2-2.14-pass-2"
        fill="none" stroke="black" stroke-width="1"
        d="M 1760.00,1552.50
           C 1760.00,1552.50 1761.50,1628.50 1761.50,1628.50
             1761.50,1628.50 1672.00,1629.00 1672.00,1629.00
             1672.00,1629.00 1669.50,1553.00 1669.50,1553.00
             1669.50,1553.00 1760.00,1552.50 1760.00,1552.50 Z" />
  <path id="msk-bmstu-fk.2-2.31-rm"
        fill="none" stroke="black" stroke-width="1"
        d="M 867.50,1073.50
           C 867.50,1073.50 772.50,1075.00 772.50,1075.00
             772.50,1075.00 771.50,810.00 771.50,810.00
             771.50,810.00 951.00,810.50 951.00,810.50
             951.00,810.50 951.00,954.00 951.00,954.00
             951.00,954.00 866.50,953.00 866.50,953.00
             866.50,953.00 867.50,1073.50 867.50,1073.50 Z" />
  <path id="msk-bmstu-fk.2-2.29-rm"
        fill="none" stroke="black" stroke-width="1"
        d="M 771.00,1080.00
           C 771.00,1080.00 868.00,1080.00 868.00,1080.00
             868.00,1080.00 867.50,1195.50 867.50,1195.50
             867.50,1195.50 950.50,1196.00 950.50,1196.00
             950.50,1196.00 950.00,1354.00 950.00,1354.00
             950.00,1354.00 773.00,1353.50 773.00,1353.50
             773.00,1353.50 772.50,1329.00 772.50,1329.00
             772.50,1329.00 761.00,1330.00 761.00,1330.00
             761.00,1330.00 761.50,1204.50 761.50,1204.50
             761.50,1204.50 770.00,1204.00 770.00,1204.00
             770.00,1204.00 771.00,1178.00 771.00,1178.00
             771.00,1178.00 762.00,1177.50 762.00,1177.50
             762.00,1177.50 761.50,1090.50 761.50,1090.50
             761.50,1090.50 771.50,1090.00 771.50,1090.00
             771.50,1090.00 771.00,1080.00 771.00,1080.00 Z" />
  <path id="msk-bmstu-fk.2-2.30-wc"
        fill="none" stroke="black" stroke-width="1"
        d="M 875.50,1189.00
           C 875.50,1189.00 875.50,1081.00 875.50,1081.00
             875.50,1081.00 951.00,1079.50 951.00,1079.50
             951.00,1079.50 950.50,1188.00 950.50,1188.00
             950.50,1188.00 875.50,1189.00 875.50,1189.00 Z" />
  <path id="msk-bmstu-fk.2-2.27-rm"
        fill="none" stroke="black" stroke-width="1"
        d="M 749.50,1578.50
           C 749.50,1578.50 749.00,1554.00 749.00,1554.00
             749.00,1554.00 759.00,1554.00 759.00,1554.00
             759.00,1554.00 759.00,1522.00 759.00,1522.00
             759.00,1522.00 749.50,1522.50 749.50,1522.50
             749.50,1522.50 749.50,1373.00 749.50,1373.00
             749.50,1373.00 762.50,1372.00 762.50,1372.00
             762.50,1372.00 762.50,1362.50 762.50,1362.50
             762.50,1362.50 950.00,1360.50 950.00,1360.50
             950.00,1360.50 950.50,1456.50 950.50,1456.50
             950.50,1456.50 866.00,1455.50 866.00,1455.50
             866.00,1455.50 868.50,1578.00 868.50,1578.00
             868.50,1578.00 749.50,1578.50 749.50,1578.50 Z" />
  <path id="msk-bmstu-fk.2-2.26-wc"
        fill="none" stroke="black" stroke-width="1"
        d="M 875.00,1584.50
           C 875.00,1584.50 875.00,1688.00 875.00,1688.00
             875.00,1688.00 951.50,1688.00 951.50,1688.00
             951.50,1688.00 950.50,1586.00 950.50,1586.00
             950.50,1586.00 875.00,1584.50 875.00,1584.50 Z" />
  <path id="msk-bmstu-fk.2-2.23-rm"
        fill="none" stroke="black" stroke-width="1"
        d="M 875.00,2012.50
           C 875.00,2012.50 874.50,1843.00 874.50,1843.00
             874.50,1843.00 759.00,1843.00 759.00,1843.00
             759.00,1843.00 758.50,1854.00 758.50,1854.00
             758.50,1854.00 750.00,1854.50 750.00,1854.50
             750.00,1854.50 748.50,2011.00 748.50,2011.00
             748.50,2011.00 875.00,2012.50 875.00,2012.50 Z" />
  <path id="msk-bmstu-fk.2-2.24-rm"
        fill="none" stroke="black" stroke-width="1"
        d="M 939.50,2011.50
           C 939.50,2011.50 940.00,1902.50 940.00,1902.50
             940.00,1902.50 1047.00,1902.00 1047.00,1902.00
             1047.00,1902.00 1047.50,2012.00 1047.50,2012.00
             1047.50,2012.00 939.50,2011.50 939.50,2011.50 Z" />
  <path id="msk-bmstu-fk.2-2.21-pass-5"
        fill="none" stroke="black" stroke-width="1"
        d="M 1037.00,946.00
           C 1037.00,946.00 1037.00,841.50 1037.00,841.50
             1037.00,841.50 957.50,842.50 957.50,842.50
             957.50,842.50 958.50,948.50 958.50,948.50
             958.50,948.50 1037.00,946.00 1037.00,946.00 Z" />
  <path id="msk-bmstu-fk.2-2.25-rm"
        fill="none" stroke="black" stroke-width="1"
        d="M 950.50,1819.50
           C 950.50,1819.50 749.00,1820.00 749.00,1820.00
             749.00,1820.00 749.00,1753.00 749.00,1753.00
             749.00,1753.00 760.00,1753.00 760.00,1753.00
             760.00,1753.00 760.00,1724.50 760.00,1724.50
             760.00,1724.50 749.50,1725.50 749.50,1725.50
             749.50,1725.50 750.00,1653.50 750.00,1653.50
             750.00,1653.50 759.00,1653.50 759.00,1653.50
             759.00,1653.50 758.50,1624.50 758.50,1624.50
             758.50,1624.50 749.00,1625.00 749.00,1625.00
             749.00,1625.00 749.50,1585.00 749.50,1585.00
             749.50,1585.00 867.00,1585.50 867.00,1585.50
             867.00,1585.50 867.00,1695.50 867.00,1695.50
             867.00,1695.50 951.00,1694.50 951.00,1694.50
             951.00,1694.50 950.50,1819.50 950.50,1819.50 Z" />
  <path id="msk-bmstu-fk.2-2.21-pass-4"
        fill="none" stroke="black" stroke-width="1"
        d="M 1037.00,1063.50
           C 1037.00,1063.50 1036.00,973.00 1036.00,973.00
             1036.00,973.00 958.00,972.50 958.00,972.50
             958.00,972.50 958.50,1061.00 958.50,1061.00
             958.50,1061.00 1037.00,1063.50 1037.00,1063.50 Z" />
  <path id="msk-bmstu-fk.2-2.21-pass-2"
        fill="none" stroke="black" stroke-width="1"
        d="M 1036.00,1327.50
           C 1036.00,1327.50 1036.50,1212.50 1036.50,1212.50
             1036.50,1212.50 959.00,1212.00 959.00,1212.00
             959.00,1212.00 959.00,1328.50 959.00,1328.50
             959.00,1328.50 1036.00,1327.50 1036.00,1327.50 Z" />
  <path id="msk-bmstu-fk.2-2.4-pass"
        fill="none" stroke="black" stroke-width="1"
        d="M 1924.50,1557.00
           C 1924.50,1557.00 1924.00,1629.00 1924.00,1629.00
             1924.00,1629.00 2192.50,1629.00 2192.50,1629.00
             2192.50,1629.00 2193.50,1563.00 2193.50,1563.00
             2193.50,1563.00 2182.00,1563.00 2182.00,1563.00
             2182.00,1563.00 2182.00,1558.00 2182.00,1558.00
             2182.00,1558.00 1924.50,1557.00 1924.50,1557.00 Z" />
  <path id="msk-bmstu-fk.2-2.22-rm"
        fill="none" stroke="black" stroke-width="1"
        d="M 932.00,2012.50
           C 932.00,2012.50 882.00,2012.00 882.00,2012.00
             882.00,2012.00 882.50,1842.50 882.50,1842.50
             882.50,1842.50 1038.00,1843.50 1038.00,1843.50
             1038.00,1843.50 1037.50,1848.50 1037.50,1848.50
             1037.50,1848.50 1048.00,1850.00 1048.00,1850.00
             1048.00,1850.00 1047.00,1894.50 1047.00,1894.50
             1047.00,1894.50 931.50,1894.00 931.50,1894.00
             931.50,1894.00 932.00,2012.50 932.00,2012.50 Z" />
  <path id="msk-bmstu-fk.2-2.14-pass-1"
        fill="none" stroke="black" stroke-width="1"
        d="M 1787.50,1553.50
           C 1787.50,1553.50 1893.50,1553.00 1893.50,1553.00
             1893.50,1553.00 1893.00,1628.50 1893.00,1628.50
             1893.00,1628.50 1789.00,1629.50 1789.00,1629.50
             1789.00,1629.50 1787.50,1553.50 1787.50,1553.50 Z" />
  <path id="msk-bmstu-fk.2-2.21-pass-1"
        fill="none" stroke="black" stroke-width="1"
        d="M 958.50,1820.00
           C 958.50,1820.00 1037.00,1819.50 1037.00,1819.50
             1037.00,1819.50 1036.00,1353.00 1036.00,1353.00
             1036.00,1353.00 958.00,1353.50 958.00,1353.50
             958.00,1353.50 958.50,1820.00 958.50,1820.00 Z" />
  <path id="msk-bmstu-fk.2-2.3-rm"
        fill="none" stroke="black" stroke-width="1"
        d="M 2726.00,1854.00
           C 2726.00,1854.00 2455.00,1854.00 2455.00,1854.00
             2455.00,1854.00 2456.00,1562.50 2456.00,1562.50
             2456.00,1562.50 2726.00,1561.00 2726.00,1561.00
             2726.00,1561.00 2726.00,1854.00 2726.00,1854.00 Z" />
  <path id="msk-bmstu-fk.2-2.7-rm"
        fill="none" stroke="black" stroke-width="1"
        d="M 2162.00,1262.00
           C 2162.00,1262.00 1924.00,1262.00 1924.00,1262.00
             1924.00,1262.00 1924.00,907.50 1924.00,907.50
             1924.00,907.50 2162.50,908.00 2162.50,908.00
             2162.50,908.00 2162.00,1262.00 2162.00,1262.00 Z" />
  <path id="msk-bmstu-fk.2-2.2-rm"
        fill="none" stroke="black" stroke-width="1"
        d="M 2426.50,1852.50
           C 2426.50,1852.50 2219.00,1852.00 2219.50,1852.00
             2220.00,1852.00 2218.50,1562.50 2218.50,1562.50
             2218.50,1562.50 2429.00,1562.00 2429.00,1562.00
             2429.00,1562.00 2426.50,1852.50 2426.50,1852.50 Z" />
  <path id="msk-bmstu-fk.2-2.1-sc"
        fill="none" stroke="black" stroke-width="1"
        d="M 2219.00,1535.50
           C 2219.00,1535.50 2219.50,1289.50 2219.50,1289.50
             2219.50,1289.50 2429.00,1289.00 2429.00,1289.00
             2429.00,1289.00 2429.00,1535.50 2429.00,1535.50
             2429.00,1535.50 2219.00,1535.50 2219.00,1535.50 Z" />
</svg>
