<?xml version="1.0" encoding="UTF-8" standalone="no"?>
<!DOCTYPE svg PUBLIC "-//W3C//DTD SVG 20010904//EN"
              "http://www.w3.org/TR/2001/REC-SVG-20010904/DTD/svg10.dtd">

<svg xmlns="http://www.w3.org/2000/svg"
     width="15.0633in" height="10.66in"
     viewBox="0 0 4519 3198">
  <path id="msk-bmstu-fk.bm1-0.5-wc"
        fill="none" stroke="black" stroke-width="1"
        d="M 2547.00,1417.00
           C 2547.00,1417.00 2723.00,1418.00 2723.00,1418.00
             2723.00,1418.00 2722.50,1459.50 2722.50,1459.50
             2722.50,1459.50 2750.50,1460.00 2750.50,1460.00
             2750.50,1460.00 2751.50,1515.50 2751.50,1515.50
             2751.50,1515.50 2724.00,1515.00 2724.00,1515.00
             2724.00,1515.00 2722.00,1624.50 2722.00,1624.50
             2722.00,1624.50 2548.50,1623.50 2548.50,1623.50
             2548.50,1623.50 2547.00,1417.00 2547.00,1417.00 Z" />
  <path id="msk-bmstu-fk.bm1-0.42-rm-left"
        fill="none" stroke="black" stroke-width="1"
        d="M 3417.00,1346.00
           C 3417.00,1346.00 3420.00,1575.50 3420.00,1575.50
             3420.00,1575.50 3253.00,1575.50 3253.00,1575.50
             3253.00,1575.50 3253.50,1346.00 3253.50,1346.00
             3253.50,1346.00 3417.00,1346.00 3417.00,1346.00 Z" />
  <path id="msk-bmstu-fk.bm1-0.52-rm"
        fill="none" stroke="black" stroke-width="1"
        d="M 3406.00,608.00
           C 3406.00,608.00 3406.50,742.00 3406.50,742.00
             3406.50,742.00 3338.00,742.50 3338.00,742.50
             3338.00,742.50 3337.50,787.00 3337.50,787.00
             3337.50,787.00 3140.50,786.50 3140.50,786.50
             3140.50,786.50 3140.50,609.50 3140.50,609.50
             3140.50,609.50 3406.00,608.00 3406.00,608.00 Z" />
  <path id="msk-bmstu-fk.bm1-0.55-rm"
        fill="none" stroke="black" stroke-width="1"
        d="M 3861.00,1106.50
           C 3861.00,1106.50 3632.00,1105.50 3632.00,1105.50
             3632.00,1105.50 3633.00,580.50 3633.00,580.50
             3633.00,580.50 3862.00,581.50 3862.00,581.50
             3862.00,581.50 3861.00,1106.50 3861.00,1106.50 Z" />
  <path id="msk-bmstu-fk.bm1-0.56-rm"
        fill="none" stroke="black" stroke-width="1"
        d="M 3631.00,1816.50
           C 3631.00,1816.50 3862.00,1816.00 3862.00,1816.00
             3862.00,1816.00 3862.00,2169.50 3862.00,2169.50
             3862.00,2169.50 3766.00,2169.50 3766.00,2169.50
             3766.00,2169.50 3766.00,2219.50 3766.00,2219.50
             3766.00,2219.50 3861.50,2219.00 3861.50,2219.00
             3861.50,2219.00 3861.00,2571.00 3861.00,2571.00
             3861.00,2571.00 3634.50,2600.50 3634.50,2600.50
             3634.50,2600.50 3634.50,2218.50 3634.50,2218.50
             3634.50,2218.50 3727.00,2219.00 3726.50,2219.00
             3726.00,2219.00 3726.00,2168.50 3726.00,2168.50
             3726.00,2168.50 3634.00,2168.50 3634.00,2168.50
             3634.00,2168.50 3631.00,1816.50 3631.00,1816.50 Z" />
  <path id="msk-bmstu-fk.bm1-0.51-rm"
        fill="none" stroke="black" stroke-width="1"
        d="M 3344.00,816.00
           C 3344.00,816.00 3344.00,748.00 3344.00,748.00
             3344.00,748.00 3407.00,748.00 3407.00,748.00
             3407.00,748.00 3406.50,816.00 3406.50,816.00
             3406.50,816.00 3344.00,816.00 3344.00,816.00 Z" />
  <path id="msk-bmstu-fk.bm1-0.53-rm"
        fill="none" stroke="black" stroke-width="1"
        d="M 3404.00,340.00
           C 3404.00,340.00 3142.00,340.00 3142.00,340.00
             3142.00,340.00 3142.00,586.50 3142.00,586.50
             3142.00,586.50 3402.50,586.50 3402.50,586.50
             3402.50,586.50 3404.00,340.00 3404.00,340.00 Z" />
  <path id="msk-bmstu-fk.bm1-0.50-sc"
        fill="none" stroke="black" stroke-width="1"
        d="M 3338.50,792.50
           C 3338.50,792.50 3337.50,888.50 3337.50,888.50
             3337.50,888.50 3141.00,887.00 3141.00,887.00
             3141.00,887.00 3142.00,793.00 3142.00,793.00
             3142.00,793.00 3338.50,792.50 3338.50,792.50 Z" />
  <path id="msk-bmstu-fk.bm1-0.54-rm"
        fill="none" stroke="black" stroke-width="1"
        d="M 3861.50,342.00
           C 3861.50,342.00 3862.00,529.50 3862.00,529.50
             3862.00,529.50 3632.50,530.00 3632.50,530.00
             3632.50,530.00 3633.00,342.00 3633.00,342.00
             3633.00,342.00 3861.50,342.00 3861.50,342.00 Z" />
  <path id="msk-bmstu-fk.bm1-0.49-rm"
        fill="none" stroke="black" stroke-width="1"
        d="M 3344.00,822.00
           C 3344.00,822.00 3343.50,889.00 3343.50,889.00
             3343.50,889.00 3406.50,886.50 3406.50,886.50
             3406.50,886.50 3406.00,822.00 3406.00,822.00
             3406.00,822.00 3344.00,822.00 3344.00,822.00 Z" />
  <path id="msk-bmstu-fk.bm1-0.45-pass-up"
        fill="none" stroke="black" stroke-width="1"
        d="M 3437.50,328.50
           C 3437.50,328.50 3438.50,484.50 3438.50,484.50
             3438.50,484.50 3581.50,484.50 3581.50,484.50
             3581.50,484.50 3583.00,329.00 3583.00,329.00
             3583.00,329.00 3437.50,328.50 3437.50,328.50 Z" />
  <path id="msk-bmstu-fk.bm1-0.14-rm"
        fill="none" stroke="black" stroke-width="1"
        d="M 2192.50,682.00
           C 2192.50,682.00 2192.00,798.00 2192.00,798.00
             2192.00,798.00 2201.00,797.50 2201.00,797.50
             2201.00,797.50 2201.50,826.50 2201.50,826.50
             2201.50,826.50 2192.00,827.00 2192.00,827.00
             2192.00,827.00 2192.00,1034.00 2192.00,1034.00
             2192.00,1034.00 2309.50,1035.50 2309.50,1035.50
             2309.50,1035.50 2308.50,1014.00 2308.50,1014.00
             2308.50,1014.00 2371.00,1013.00 2371.00,1013.00
             2371.00,1013.00 2370.50,1035.00 2370.50,1035.00
             2370.50,1035.00 2462.50,1035.00 2462.50,1035.00
             2462.50,1035.00 2461.50,827.00 2461.50,827.00
             2461.50,827.00 2452.00,827.00 2452.00,827.00
             2452.00,827.00 2452.00,797.00 2452.00,797.00
             2452.00,797.00 2462.50,797.50 2462.50,797.50
             2462.50,797.50 2462.50,682.50 2462.50,682.50
             2462.50,682.50 2192.50,682.00 2192.50,682.00 Z" />
  <path id="msk-bmstu-fk.bm1-0.48-rm"
        fill="none" stroke="black" stroke-width="1"
        d="M 3406.00,894.00
           C 3406.00,894.00 3406.50,995.50 3406.50,995.50
             3406.50,995.50 3141.00,996.50 3141.00,996.50
             3141.00,996.50 3141.00,894.00 3141.00,894.00
             3141.00,894.00 3406.00,894.00 3406.00,894.00 Z" />
  <path id="msk-bmstu-fk.bm1-0.47-wc"
        fill="none" stroke="black" stroke-width="1"
        d="M 3211.00,1012.50
           C 3211.00,1012.50 3211.00,1060.00 3211.00,1060.00
             3211.00,1060.00 3331.00,1058.50 3331.00,1058.50
             3331.00,1058.50 3330.50,1011.00 3330.50,1011.00
             3330.50,1011.00 3211.00,1012.50 3211.00,1012.50 Z" />
  <path id="msk-bmstu-fk.bm1-0.46-rm"
        fill="none" stroke="black" stroke-width="1"
        d="M 3337.50,1012.50
           C 3337.50,1012.50 3337.50,1066.00 3337.50,1066.00
             3337.50,1066.00 3202.50,1064.50 3202.50,1064.50
             3202.50,1064.50 3202.50,1012.50 3202.50,1012.50
             3202.50,1012.50 3124.50,1011.50 3124.00,1011.50
             3123.50,1011.50 3124.00,1106.50 3124.00,1106.50
             3124.00,1106.50 3405.50,1107.00 3405.50,1107.00
             3405.50,1107.00 3405.50,1011.00 3405.50,1011.00
             3405.50,1011.00 3337.50,1012.50 3337.50,1012.50 Z" />
  <path id="msk-bmstu-fk.bm1-0.45-pass-central"
        fill="none" stroke="black" stroke-width="1"
        d="M 3433.00,732.00
           C 3433.00,732.00 3434.50,523.00 3434.50,523.00
             3434.50,523.00 3582.00,523.00 3582.00,523.00
             3582.00,523.00 3582.00,731.50 3582.00,731.50
             3582.00,731.50 3433.00,732.00 3433.00,732.00 Z" />
  <path id="msk-bmstu-fk.bm1-0.43-rm"
        fill="none" stroke="black" stroke-width="1"
        d="M 3582.00,1294.50
           C 3582.00,1294.50 3582.00,1156.00 3582.00,1156.00
             3582.00,1156.00 3455.00,1155.50 3455.00,1155.50
             3455.00,1155.50 3454.00,1293.50 3454.00,1293.50
             3454.00,1293.50 3582.00,1294.50 3582.00,1294.50 Z" />
  <path id="msk-bmstu-fk.bm1-0.44-rm"
        fill="none" stroke="black" stroke-width="1"
        d="M 3632.00,1156.00
           C 3632.00,1156.00 3633.00,1295.00 3633.00,1295.00
             3633.00,1295.00 3873.00,1294.50 3873.00,1294.50
             3873.00,1294.50 3874.00,1155.00 3874.00,1155.00
             3874.00,1155.00 3632.00,1156.00 3632.00,1156.00 Z" />
  <path id="msk-bmstu-fk.bm1-0.42-rm-down"
        fill="none" stroke="black" stroke-width="1"
        d="M 3874.00,1767.00
           C 3874.00,1767.00 3873.00,1623.50 3873.00,1623.50
             3873.00,1623.50 3631.00,1623.00 3631.00,1623.00
             3631.00,1623.00 3630.50,1767.00 3630.50,1767.00
             3630.50,1767.00 3874.00,1767.00 3874.00,1767.00 Z" />
  <path id="msk-bmstu-fk.bm1-0.45-pass-down"
        fill="none" stroke="black" stroke-width="1"
        d="M 3438.50,1108.50
           C 3438.50,1108.50 3439.50,759.00 3439.50,759.00
             3439.50,759.00 3583.00,759.00 3583.00,759.00
             3583.00,759.00 3582.00,1109.00 3582.00,1109.00
             3582.00,1109.00 3438.50,1108.50 3438.50,1108.50 Z" />
  <path id="msk-bmstu-fk.bm1-0.16-rm"
        fill="none" stroke="black" stroke-width="1"
        d="M 2720.00,827.00
           C 2720.00,827.00 2721.00,1034.50 2721.00,1034.50
             2721.00,1034.50 2494.50,1034.00 2494.50,1034.00
             2494.50,1034.00 2494.00,827.00 2494.00,827.00
             2494.00,827.00 2720.00,827.00 2720.00,827.00 Z" />
  <path id="msk-bmstu-fk.bm1-0.11-wc"
        fill="none" stroke="black" stroke-width="1"
        d="M 2106.00,1070.50
           C 2106.00,1070.50 1937.00,1070.50 1937.00,1070.50
             1937.00,1070.50 1936.50,1204.50 1936.50,1204.50
             1936.50,1204.50 2106.50,1205.50 2106.50,1205.50
             2106.50,1205.50 2106.00,1070.50 2106.00,1070.50 Z" />
  <path id="msk-bmstu-fk.bm1-0.41-rm"
        fill="none" stroke="black" stroke-width="1"
        d="M 3133.50,1351.00
           C 3133.00,1351.00 3134.00,1580.00 3134.00,1580.00
             3134.00,1580.00 3218.50,1580.00 3218.50,1580.00
             3218.50,1580.00 3219.50,1351.50 3219.50,1351.50
             3219.50,1351.50 3134.00,1351.00 3133.50,1351.00 Z" />
  <path id="msk-bmstu-fk.bm1-0.42-rm-central"
        fill="none" stroke="black" stroke-width="1"
        d="M 3493.50,1350.00
           C 3493.50,1350.00 3873.50,1347.50 3873.50,1347.50
             3873.50,1347.50 3873.00,1575.00 3873.00,1575.00
             3873.00,1575.00 3498.00,1576.00 3498.00,1576.00
             3498.00,1576.00 3493.50,1350.00 3493.50,1350.00 Z" />
  <path id="msk-bmstu-fk.bm1-0.40-rm-left"
        fill="none" stroke="black" stroke-width="1"
        d="M 2871.50,1347.00
           C 2871.50,1347.00 2872.50,1574.50 2872.50,1574.50
             2872.50,1574.50 2760.00,1577.00 2760.00,1577.00
             2760.00,1577.00 2760.50,1347.50 2760.50,1347.50
             2760.50,1347.50 2871.50,1347.00 2871.50,1347.00 Z" />
  <path id="msk-bmstu-fk.bm1-0.18-rm"
        fill="none" stroke="black" stroke-width="1"
        d="M 2608.00,1065.50
           C 2608.00,1065.50 2609.00,1205.00 2609.00,1205.00
             2609.00,1205.00 2728.50,1205.00 2728.50,1205.00
             2728.50,1205.00 2727.50,1066.50 2727.50,1066.50
             2727.50,1066.50 2608.00,1065.50 2608.00,1065.50 Z" />
  <path id="msk-bmstu-fk.bm1-0.40-rm-right"
        fill="none" stroke="black" stroke-width="1"
        d="M 3100.50,1347.00
           C 3100.50,1347.00 2905.50,1347.50 2905.50,1347.50
             2905.50,1347.50 2907.50,1576.00 2907.50,1576.00
             2907.50,1576.00 3100.00,1576.50 3100.00,1576.50
             3100.00,1576.50 3100.50,1347.00 3100.50,1347.00 Z" />
  <path id="msk-bmstu-fk.bm1-0.17-rm"
        fill="none" stroke="black" stroke-width="1"
        d="M 2460.00,1067.00
           C 2460.00,1067.00 2461.50,1205.00 2461.50,1205.00
             2461.50,1205.00 2600.50,1205.50 2600.50,1205.50
             2600.50,1205.50 2599.50,1067.00 2599.50,1067.00
             2599.50,1067.00 2460.00,1067.00 2460.00,1067.00 Z" />
  <path id="msk-bmstu-fk.bm1-0.8-sc"
        fill="none" stroke="black" stroke-width="1"
        d="M 2228.50,1201.00
           C 2228.50,1201.00 2229.00,1071.50 2229.00,1071.50
             2229.00,1071.50 2430.50,1071.50 2430.50,1071.50
             2430.50,1071.50 2431.00,1201.50 2431.00,1201.50
             2431.00,1201.50 2228.50,1201.00 2228.50,1201.00 Z" />
  <path id="msk-bmstu-fk.bm1-0.13-rm"
        fill="none" stroke="black" stroke-width="1"
        d="M 2166.00,682.50
           C 2166.00,682.50 2166.50,754.00 2166.50,754.00
             2166.50,754.00 1938.00,753.00 1938.00,753.00
             1938.00,753.00 1938.00,683.50 1938.00,683.50
             1938.00,683.50 2166.00,682.50 2166.00,682.50 Z" />
  <path id="msk-bmstu-fk.bm1-0.15-sc"
        fill="none" stroke="black" stroke-width="1"
        d="M 2494.50,682.50
           C 2494.50,682.50 2495.00,795.00 2495.00,795.00
             2495.00,795.00 2721.50,796.00 2721.50,796.00
             2721.50,796.00 2719.50,682.50 2719.50,682.50
             2719.50,682.50 2494.50,682.50 2494.50,682.50 Z" />
  <path id="msk-bmstu-fk.bm1-0.12-rm"
        fill="none" stroke="black" stroke-width="1"
        d="M 2166.00,1035.50
           C 2166.00,1035.50 2166.50,761.50 2166.50,761.50
             2166.50,761.50 1937.00,762.50 1937.00,762.50
             1937.00,762.50 1938.50,944.00 1938.50,944.00
             1938.50,944.00 1948.00,944.50 1948.00,944.50
             1948.00,944.50 1950.00,964.50 1950.00,964.50
             1950.00,964.50 1938.50,963.50 1938.50,963.50
             1938.50,963.50 1938.50,1036.50 1938.50,1036.50
             1938.50,1036.50 2166.00,1035.50 2166.00,1035.50 Z" />
  <path id="msk-bmstu-fk.bm1-0.4-rm"
        fill="none" stroke="black" stroke-width="1"
        d="M 2460.00,1348.00
           C 2460.00,1348.00 2460.50,1455.50 2460.50,1455.50
             2460.50,1455.50 2544.50,1456.00 2544.50,1456.00
             2544.50,1456.00 2544.00,1348.50 2544.00,1348.50
             2544.00,1348.50 2460.00,1348.00 2460.00,1348.00 Z" />
  <path id="msk-bmstu-fk.bm1-0.10-rm"
        fill="none" stroke="black" stroke-width="1"
        d="M 2114.00,1071.00
           C 2114.00,1071.00 2114.50,1138.50 2114.50,1138.50
             2114.50,1138.50 2199.00,1138.50 2199.00,1138.50
             2199.00,1138.50 2198.50,1070.00 2198.50,1070.00
             2198.50,1070.00 2114.00,1071.00 2114.00,1071.00 Z" />
  <path id="msk-bmstu-fk.bm1-0.9-rm"
        fill="none" stroke="black" stroke-width="1"
        d="M 2116.00,1205.00
           C 2116.00,1205.00 2114.50,1146.00 2114.50,1146.00
             2114.50,1146.00 2197.50,1146.00 2197.50,1146.00
             2197.50,1146.00 2198.50,1205.50 2198.50,1205.50
             2198.50,1205.50 2116.00,1205.00 2116.00,1205.00 Z" />
  <path id="msk-bmstu-fk.bm1-0.39-rm"
        fill="none" stroke="black" stroke-width="1"
        d="M 797.50,2950.50
           C 797.50,2950.50 1026.00,2926.50 1026.00,2927.00
             1026.00,2927.50 1027.50,2588.00 1027.50,2588.00
             1027.50,2588.00 1012.50,2588.50 1012.50,2588.50
             1012.50,2588.50 1013.00,2543.00 1013.00,2543.00
             1013.00,2543.00 1026.00,2544.00 1026.00,2544.00
             1026.00,2544.00 1027.50,2363.50 1027.50,2364.00
             1027.50,2364.50 935.50,2365.00 935.50,2365.00
             935.50,2365.00 935.50,2335.00 935.50,2335.00
             935.50,2335.00 880.50,2334.00 880.50,2334.00
             880.50,2334.00 881.50,2365.50 881.50,2365.50
             881.50,2365.50 797.50,2365.00 797.50,2365.00
             797.50,2365.00 798.00,2543.50 798.00,2543.50
             798.00,2543.50 965.00,2543.00 965.00,2543.00
             965.00,2543.00 963.50,2589.00 963.50,2589.00
             963.50,2589.00 796.50,2588.00 796.50,2588.00
             796.50,2588.00 797.50,2950.50 797.50,2950.50 Z" />
  <path id="msk-bmstu-fk.bm1-0.3-rm"
        fill="none" stroke="black" stroke-width="1"
        d="M 2459.00,1514.00
           C 2459.00,1514.00 2459.50,1622.50 2459.50,1622.50
             2459.50,1622.50 2543.00,1623.00 2543.00,1623.00
             2543.00,1623.00 2544.00,1461.50 2544.00,1461.50
             2544.00,1461.50 2445.00,1459.50 2445.00,1459.50
             2445.00,1459.50 2445.00,1515.00 2445.00,1515.00
             2445.00,1515.00 2459.00,1514.00 2459.00,1514.00 Z" />
  <path id="msk-bmstu-fk.bm1-0.34-rm-left"
        fill="none" stroke="black" stroke-width="1"
        d="M 797.50,612.50
           C 797.50,612.50 797.50,343.50 797.50,343.50
             797.50,343.50 1028.50,343.50 1028.50,343.50
             1028.50,343.50 1029.50,516.50 1029.50,516.50
             1029.50,516.50 959.00,515.50 959.00,515.50
             959.00,515.50 959.50,612.50 959.50,612.50
             959.50,612.50 797.50,612.50 797.50,612.50 Z" />
  <path id="msk-bmstu-fk.bm1-0.38-rm"
        fill="none" stroke="black" stroke-width="1"
        d="M 797.50,1813.50
           C 797.50,1813.50 866.50,1813.50 866.50,1813.50
             866.50,1813.50 866.50,1808.50 866.50,1808.50
             866.50,1808.50 924.00,1808.00 924.00,1808.00
             924.00,1808.00 925.50,1959.50 925.50,1959.50
             925.50,1959.50 1027.00,1961.00 1027.00,1961.00
             1027.00,1961.00 1027.50,2321.00 1027.50,2321.00
             1027.50,2321.00 797.50,2324.00 797.50,2324.00
             797.50,2324.00 797.50,1813.50 797.50,1813.50 Z" />
  <path id="msk-bmstu-fk.bm1-0.33-rm"
        fill="none" stroke="black" stroke-width="1"
        d="M 798.00,620.50
           C 798.00,620.50 958.50,620.00 958.50,620.00
             958.50,620.00 959.00,985.50 959.00,985.50
             959.00,985.50 924.00,985.50 924.00,985.50
             924.00,985.50 922.50,1107.50 922.50,1107.50
             922.50,1107.50 797.50,1107.50 797.50,1107.50
             797.50,1107.50 798.00,620.50 798.00,620.50 Z" />
  <path id="msk-bmstu-fk.bm1-0.36-rm"
        fill="none" stroke="black" stroke-width="1"
        d="M 1167.00,524.50
           C 1167.00,524.50 1166.50,600.50 1166.50,600.50
             1166.50,600.50 1293.50,601.00 1293.50,601.00
             1293.50,601.00 1294.00,524.50 1294.00,524.50
             1294.00,524.50 1167.00,524.50 1167.00,524.50 Z" />
  <path id="msk-bmstu-fk.bm1-0.37-rm"
        fill="none" stroke="black" stroke-width="1"
        d="M 783.50,1622.00
           C 783.50,1622.00 784.00,1760.50 784.00,1760.50
             784.00,1760.50 866.50,1759.50 866.50,1759.50
             866.50,1759.50 867.00,1765.00 867.00,1765.00
             867.00,1765.00 925.00,1765.50 925.00,1765.50
             925.00,1765.50 925.50,1622.00 925.50,1622.00
             925.50,1622.00 783.50,1622.00 783.50,1622.00 Z" />
  <path id="msk-bmstu-fk.bm1-0.35-rm"
        fill="none" stroke="black" stroke-width="1"
        d="M 1079.00,524.00
           C 1079.00,524.00 1078.50,602.50 1078.50,602.50
             1078.50,602.50 1158.50,601.00 1158.50,601.00
             1158.50,601.00 1157.50,523.50 1157.50,523.50
             1157.50,523.50 1079.00,524.00 1079.00,524.00 Z" />
  <path id="msk-bmstu-fk.bm1-0.34-rm-right"
        fill="none" stroke="black" stroke-width="1"
        d="M 1261.50,332.50
           C 1261.50,332.50 1420.00,332.50 1420.00,332.50
             1420.00,332.50 1418.50,493.00 1418.50,493.00
             1418.50,493.00 1261.00,492.50 1261.00,492.50
             1261.00,492.50 1261.50,332.50 1261.50,332.50 Z" />
  <path id="msk-bmstu-fk.bm1-0.34-rm-central"
        fill="none" stroke="black" stroke-width="1"
        d="M 1081.50,334.00
           C 1081.50,334.00 1080.50,490.50 1080.50,490.50
             1080.50,490.50 1227.50,488.50 1227.50,488.50
             1227.50,488.50 1227.00,334.00 1227.00,334.00
             1227.00,334.00 1081.50,334.00 1081.50,334.00 Z" />
  <path id="msk-bmstu-fk.bm1-0.32-rm"
        fill="none" stroke="black" stroke-width="1"
        d="M 782.50,1299.00
           C 782.50,1299.00 782.00,1160.50 782.00,1160.50
             782.00,1160.50 927.00,1161.00 927.00,1161.00
             927.00,1161.00 928.00,1299.50 928.00,1299.50
             928.00,1299.50 782.50,1299.00 782.50,1299.00 Z" />
  <path id="msk-bmstu-fk.bm1-0.31-sc"
        fill="none" stroke="black" stroke-width="1"
        d="M 1220.50,1299.50
           C 1220.50,1299.50 1118.00,1297.50 1118.00,1297.50
             1118.00,1297.50 1117.00,1302.50 1117.00,1302.50
             1117.00,1302.50 1077.50,1302.00 1077.50,1302.00
             1077.50,1302.00 1077.50,1147.00 1077.50,1147.00
             1077.50,1147.00 1221.00,1146.00 1221.00,1146.00
             1221.00,1146.00 1220.50,1299.50 1220.50,1299.50 Z" />
  <path id="msk-bmstu-fk.bm1-0.30-rm"
        fill="none" stroke="black" stroke-width="1"
        d="M 779.50,1570.00
           C 779.50,1570.00 781.00,1502.00 781.00,1502.00
             781.00,1502.00 940.00,1502.00 940.00,1502.00
             940.00,1502.00 940.00,1569.50 940.00,1569.50
             940.00,1569.50 779.50,1570.00 779.50,1570.00 Z" />
  <path id="msk-bmstu-fk.bm1-0.24-pass-left.5"
        fill="none" stroke="black" stroke-width="1"
        d="M 1028.00,1105.50
           C 1028.00,1105.50 931.00,1105.50 931.00,1105.50
             931.00,1105.50 932.50,993.50 932.50,993.50
             932.50,993.50 966.50,994.00 966.50,994.00
             966.50,994.00 967.00,524.00 967.00,524.00
             967.00,524.00 1028.00,525.00 1028.00,525.00
             1028.00,525.00 1028.00,1105.50 1028.00,1105.50 Z" />
  <path id="msk-bmstu-fk.bm1-0.24-pass-left.4"
        fill="none" stroke="black" stroke-width="1"
        d="M 1024.50,1161.50
           C 1024.50,1161.50 931.50,1162.50 931.50,1162.50
             931.50,1162.50 932.50,1299.00 932.50,1299.00
             932.50,1299.00 1025.00,1300.00 1025.00,1300.00
             1025.00,1300.00 1024.50,1161.50 1024.50,1161.50 Z" />
  <path id="msk-bmstu-fk.bm1-0.24-pass-left.3"
        fill="none" stroke="black" stroke-width="1"
        d="M 1026.50,1570.00
           C 1026.50,1570.00 943.50,1570.50 943.50,1570.50
             943.50,1570.50 944.50,1347.50 944.50,1347.50
             944.50,1347.50 1026.50,1347.00 1026.50,1347.00
             1026.50,1347.00 1026.50,1570.00 1026.50,1570.00 Z" />
  <path id="msk-bmstu-fk.bm1-0.1-ps-out"
        fill="none" stroke="black" stroke-width="1"
        d="M 2303.50,1325.00
           C 2303.50,1325.00 2354.50,1325.00 2354.50,1325.00" />
  <path id="msk-bmstu-fk.bm1-0.40-ps-left"
        fill="none" stroke="black" stroke-width="1"
        d="M 2884.00,1368.00
           C 2884.00,1368.00 2886.00,1556.00 2886.00,1556.00" />
  <path id="msk-bmstu-fk.bm1-0.55-ps-1"
        fill="none" stroke="black" stroke-width="1"
        d="M 3715.50,556.00
           C 3715.50,556.00 3769.00,556.00 3769.00,556.00" />
  <path id="msk-bmstu-fk.bm1-0.14-ps"
        fill="none" stroke="black" stroke-width="1"
        d="M 2480.00,692.00
           C 2480.00,692.00 2479.00,744.00 2479.00,744.00" />
  <path id="msk-bmstu-fk.bm1-0.15-ps-ev"
        fill="none" stroke="black" stroke-width="1"
        d="M 2508.50,662.00
           C 2508.50,662.00 2556.00,661.50 2556.00,661.50" />
  <path id="msk-bmstu-fk.bm1-0.35-dr-ev"
        fill="none" stroke="black" stroke-width="1"
        d="M 1102.00,625.50
           C 1102.00,625.50 1138.50,625.50 1138.50,625.50" />
  <path id="msk-bmstu-fk.bm1-0.39-dr-ev"
        fill="none" stroke="black" stroke-width="1"
        d="M 1072.00,2859.50
           C 1072.00,2859.50 1071.50,2905.00 1071.50,2905.00" />
  <path id="msk-bmstu-fk.bm1-0.56-ps-ev"
        fill="none" stroke="black" stroke-width="1"
        d="M 3606.00,1864.00
           C 3606.00,1864.00 3605.50,1913.50 3605.50,1913.50" />
  <path id="msk-bmstu-fk.bm1-0.46-ps-ev"
        fill="none" stroke="black" stroke-width="1"
        d="M 3112.00,1030.50
           C 3112.00,1030.50 3112.00,1081.00 3112.00,1081.00" />
  <path id="msk-bmstu-fk.bm1-0.45-ps-ev"
        fill="none" stroke="black" stroke-width="1"
        d="M 3517.50,322.00
           C 3517.50,322.00 3567.00,320.00 3567.00,320.00" />
  <path id="msk-bmstu-fk.bm1-0.45-ps-1"
        fill="none" stroke="black" stroke-width="1"
        d="M 3452.00,746.50
           C 3452.00,746.50 3570.00,745.00 3570.00,745.00" />
  <path id="msk-bmstu-fk.bm1-0.24-ps-ev"
        fill="none" stroke="black" stroke-width="1"
        d="M 1050.50,1881.00
           C 1050.50,1881.00 1052.00,1925.50 1052.00,1925.50" />
  <path id="msk-bmstu-fk.bm1-0.55-ps-4"
        fill="none" stroke="black" stroke-width="1"
        d="M 3762.00,1132.00
           C 3762.00,1132.00 3793.00,1133.00 3793.00,1133.00" />
  <path id="msk-bmstu-fk.bm1-0.55-ps-3"
        fill="none" stroke="black" stroke-width="1"
        d="M 3607.00,1016.00
           C 3607.00,1016.00 3606.50,1056.00 3606.50,1056.00" />
  <path id="msk-bmstu-fk.bm1-0.13-ps"
        fill="none" stroke="black" stroke-width="1"
        d="M 2178.50,706.50
           C 2178.50,706.50 2179.50,741.00 2179.50,741.00" />
  <path id="msk-bmstu-fk.bm1-0.54-ps"
        fill="none" stroke="black" stroke-width="1"
        d="M 3605.50,390.00
           C 3605.50,390.00 3606.50,484.00 3606.50,484.00" />
  <path id="msk-bmstu-fk.bm1-0.55-ps-2"
        fill="none" stroke="black" stroke-width="1"
        d="M 3604.50,779.00
           C 3604.50,779.00 3606.50,822.00 3606.50,822.00" />
  <path id="msk-bmstu-fk.bm1-0.53-ps-1"
        fill="none" stroke="black" stroke-width="1"
        d="M 3420.00,544.00
           C 3420.00,544.00 3422.00,586.00 3422.00,586.00" />
  <path id="msk-bmstu-fk.bm1-0.45-ps-2"
        fill="none" stroke="black" stroke-width="1"
        d="M 3447.00,505.00
           C 3447.00,505.00 3570.00,506.50 3570.00,506.50" />
  <path id="msk-bmstu-fk.bm1-0.53-ps-2"
        fill="none" stroke="black" stroke-width="1"
        d="M 3421.50,390.50
           C 3421.50,390.50 3424.50,485.50 3424.50,485.50" />
  <path id="msk-bmstu-fk.bm1-0.7-dr-ev-left"
        fill="none" stroke="black" stroke-width="1"
        d="M 1900.00,1231.50
           C 1900.00,1231.50 1901.00,1289.50 1901.00,1289.50" />
  <path id="msk-bmstu-fk.bm1-0.49-ps"
        fill="none" stroke="black" stroke-width="1"
        d="M 3423.00,830.00
           C 3423.00,830.00 3424.00,870.00 3424.00,870.00" />
  <path id="msk-bmstu-fk.bm1-0.23-dr-ev-behind"
        fill="none" stroke="black" stroke-width="1"
        d="M 1459.00,1614.00
           C 1459.00,1614.00 1511.50,1611.50 1511.50,1611.50" />
  <path id="msk-bmstu-fk.bm1-0.23-dr-ev-front"
        fill="none" stroke="black" stroke-width="1"
        d="M 1456.50,1315.00
           C 1456.50,1315.00 1515.50,1315.50 1515.50,1315.50" />
  <path id="msk-bmstu-fk.bm1-0.13-dr-ev"
        fill="none" stroke="black" stroke-width="1"
        d="M 1894.50,698.50
           C 1894.50,698.50 1894.00,739.00 1894.00,739.00" />
  <path id="msk-bmstu-fk.bm1-0.41-dr-ev"
        fill="none" stroke="black" stroke-width="1"
        d="M 3149.00,1619.50
           C 3149.00,1619.50 3203.00,1619.00 3203.00,1619.00" />
  <path id="msk-bmstu-fk.bm1-0.7-dr-ev-right"
        fill="none" stroke="black" stroke-width="1"
        d="M 2755.00,1234.00
           C 2755.00,1234.00 2755.00,1292.50 2755.00,1292.50" />
  <path id="msk-bmstu-fk.bm1-0.52-ps"
        fill="none" stroke="black" stroke-width="1"
        d="M 3420.00,653.00
           C 3420.00,653.00 3420.00,686.50 3420.00,686.50" />
  <path id="msk-bmstu-fk.bm1-0.48-ps"
        fill="none" stroke="black" stroke-width="1"
        d="M 3422.50,926.50
           C 3422.50,926.50 3422.00,993.50 3422.00,993.50" />
  <path id="msk-bmstu-fk.bm1-0.42-ps-out-2"
        fill="none" stroke="black" stroke-width="1"
        d="M 3504.50,1335.00
           C 3504.50,1335.00 3549.00,1333.00 3549.00,1333.00" />
  <path id="msk-bmstu-fk.bm1-0.42-ps-in-3"
        fill="none" stroke="black" stroke-width="1"
        d="M 3758.50,1597.50
           C 3758.50,1597.50 3814.00,1595.00 3814.00,1595.00" />
  <path id="msk-bmstu-fk.bm1-0.46-dr"
        fill="none" stroke="black" stroke-width="1"
        d="M 3423.00,1031.00
           C 3423.00,1031.00 3423.00,1080.50 3423.00,1080.50" />
  <path id="msk-bmstu-fk.bm1-0.4-dr"
        fill="none" stroke="black" stroke-width="1"
        d="M 2482.50,1458.50
           C 2482.50,1458.50 2520.50,1459.50 2520.50,1459.50" />
  <path id="msk-bmstu-fk.bm1-0.17-dr"
        fill="none" stroke="black" stroke-width="1"
        d="M 2603.50,1119.00
           C 2603.50,1119.00 2604.00,1152.50 2604.00,1152.50" />
  <path id="msk-bmstu-fk.bm1-0.7-st-ev-left"
        fill="none" stroke="black" stroke-width="1"
        d="M 1844.50,1231.00
           C 1844.50,1231.00 1844.50,1301.00 1844.50,1301.00" />
  <path id="msk-bmstu-fk.bm1-0.24-st-ev"
        fill="none" stroke="black" stroke-width="1"
        d="M 1136.00,1870.50
           C 1136.00,1870.50 1136.50,1940.00 1136.50,1940.00" />
  <path id="msk-bmstu-fk.bm1-0.35-st-ev"
        fill="none" stroke="black" stroke-width="1"
        d="M 1147.50,633.00
           C 1147.50,633.00 1147.50,702.00 1147.50,702.00" />
  <path id="msk-bmstu-fk.bm1-0.7-st-ev-right"
        fill="none" stroke="black" stroke-width="1"
        d="M 2818.50,1235.00
           C 2818.50,1235.00 2818.50,1304.00 2818.50,1304.00" />
  <path id="msk-bmstu-fk.bm1-0.23-st-ev-front"
        fill="none" stroke="black" stroke-width="1"
        d="M 1453.00,1253.50
           C 1453.00,1253.50 1522.00,1254.00 1522.00,1254.00" />
  <path id="msk-bmstu-fk.bm1-0.23-st-ev-behind"
        fill="none" stroke="black" stroke-width="1"
        d="M 1451.00,1671.00
           C 1451.00,1671.00 1519.00,1671.00 1519.00,1671.00" />
  <path id="msk-bmstu-fk.bm1-0.56-st-ev"
        fill="none" stroke="black" stroke-width="1"
        d="M 3535.00,1852.00
           C 3535.00,1852.00 3535.00,1921.00 3535.00,1921.00" />
  <path id="msk-bmstu-fk.bm1-0.39-st-ev"
        fill="none" stroke="black" stroke-width="1"
        d="M 1171.00,2846.50
           C 1171.00,2846.50 1169.50,2916.50 1170.00,2916.50" />
  <path id="msk-bmstu-fk.bm1-0.13-st-ev"
        fill="none" stroke="black" stroke-width="1"
        d="M 1825.00,758.00
           C 1825.00,758.00 1892.00,756.50 1892.00,756.50" />
  <path id="msk-bmstu-fk.bm1-0.50-st"
        fill="none" stroke="black" stroke-width="1"
        d="M 3294.50,844.50
           C 3294.50,844.50 3294.00,887.00 3294.00,887.00" />
  <path id="msk-bmstu-fk.bm1-0.41-st-ev"
        fill="none" stroke="black" stroke-width="1"
        d="M 3142.50,1674.50
           C 3142.50,1674.50 3211.00,1675.50 3211.00,1675.50" />
  <path id="msk-bmstu-fk.bm1-0.31-st"
        fill="none" stroke="black" stroke-width="1"
        d="M 1183.50,1148.00
           C 1183.50,1148.00 1183.50,1193.00 1183.50,1193.00" />
  <path id="msk-bmstu-fk.bm1-0.45-st-ev"
        fill="none" stroke="black" stroke-width="1"
        d="M 3503.00,235.00
           C 3503.00,235.00 3505.00,280.00 3505.00,280.00" />
  <path id="msk-bmstu-fk.bm1-0.46-st-ev"
        fill="none" stroke="black" stroke-width="1"
        d="M 3040.00,921.00
           C 3040.00,921.00 3099.00,920.00 3099.00,920.00" />
  <path id="msk-bmstu-fk.bm1-0.15-st-ev"
        fill="none" stroke="black" stroke-width="1"
        d="M 2641.00,571.00
           C 2641.00,571.00 2641.00,640.50 2641.00,640.50" />
  <path id="msk-bmstu-fk.bm1-0.43-dr"
        fill="none" stroke="black" stroke-width="1"
        d="M 3482.50,1133.00
           C 3482.50,1133.00 3536.50,1133.50 3536.50,1133.50" />
  <path id="msk-bmstu-fk.bm1-0.15-st"
        fill="none" stroke="black" stroke-width="1"
        d="M 2590.50,743.00
           C 2590.50,743.00 2589.50,795.00 2589.50,795.00" />
  <path id="msk-bmstu-fk.bm1-0.8-st"
        fill="none" stroke="black" stroke-width="1"
        d="M 2279.50,1145.00
           C 2279.50,1145.00 2229.00,1145.00 2229.00,1145.00" />
  <path id="msk-bmstu-fk.bm1-0.47-dr-right"
        fill="none" stroke="black" stroke-width="1"
        d="M 3333.00,1016.50
           C 3333.00,1016.50 3334.00,1052.50 3334.00,1052.50" />
  <path id="msk-bmstu-fk.bm1-0.51-dr"
        fill="none" stroke="black" stroke-width="1"
        d="M 3355.50,819.00
           C 3355.50,819.00 3394.00,818.50 3394.00,818.50" />
  <path id="msk-bmstu-fk.bm1-0.47-dr-left"
        fill="none" stroke="black" stroke-width="1"
        d="M 3206.00,1016.50
           C 3206.00,1016.50 3206.00,1052.50 3206.00,1052.50" />
  <path id="msk-bmstu-fk.bm1-0.12-dr"
        fill="none" stroke="black" stroke-width="1"
        d="M 2030.00,757.00
           C 2030.00,757.00 2067.00,756.50 2067.00,756.50" />
  <path id="msk-bmstu-fk.bm1-0.50-dr"
        fill="none" stroke="black" stroke-width="1"
        d="M 3340.50,831.00
           C 3340.50,831.00 3340.50,879.50 3340.50,879.50" />
  <path id="msk-bmstu-fk.bm1-0.36-dr"
        fill="none" stroke="black" stroke-width="1"
        d="M 1162.00,543.00
           C 1162.00,543.00 1162.00,581.00 1162.00,581.00" />
  <path id="msk-bmstu-fk.bm1-0.5-dr"
        fill="none" stroke="black" stroke-width="1"
        d="M 2545.50,1577.50
           C 2545.50,1577.50 2545.50,1611.50 2545.50,1611.50" />
  <path id="msk-bmstu-fk.bm1-0.35-dr"
        fill="none" stroke="black" stroke-width="1"
        d="M 1050.50,530.00
           C 1050.50,530.00 1051.50,581.00 1051.50,581.00" />
  <path id="msk-bmstu-fk.bm1-0.11-dr"
        fill="none" stroke="black" stroke-width="1"
        d="M 2110.00,1158.00
           C 2110.00,1158.00 2110.50,1192.00 2110.50,1192.00" />
  <path id="msk-bmstu-fk.bm1-0.7-dr-left"
        fill="none" stroke="black" stroke-width="1"
        d="M 2216.50,1235.00
           C 2216.50,1235.00 2217.00,1290.50 2217.00,1290.50" />
  <path id="msk-bmstu-fk.bm1-0.10-dr"
        fill="none" stroke="black" stroke-width="1"
        d="M 2154.00,1142.00
           C 2154.00,1142.00 2186.50,1142.00 2186.50,1142.00" />
  <path id="msk-bmstu-fk.bm1-0.7-dr-right"
        fill="none" stroke="black" stroke-width="1"
        d="M 2444.00,1232.00
           C 2444.00,1232.00 2444.50,1292.50 2444.50,1292.50" />
  <path id="msk-bmstu-fk.bm1-0.44-ps"
        fill="none" stroke="black" stroke-width="1"
        d="M 3605.50,1207.00
           C 3605.00,1207.50 3606.00,1242.00 3606.00,1242.00" />
  <path id="msk-bmstu-fk.bm1-0.34-dr-2"
        fill="none" stroke="black" stroke-width="1"
        d="M 1100.50,506.00
           C 1100.50,506.00 1140.00,507.00 1140.00,507.00" />
  <path id="msk-bmstu-fk.bm1-0.34-dr-1"
        fill="none" stroke="black" stroke-width="1"
        d="M 963.00,562.50
           C 963.00,562.50 964.50,601.50 964.50,601.50" />
  <path id="msk-bmstu-fk.bm1-0.33-dr-2"
        fill="none" stroke="black" stroke-width="1"
        d="M 962.00,628.00
           C 962.00,628.00 963.00,665.00 963.00,665.00" />
  <path id="msk-bmstu-fk.bm1-0.31-dr"
        fill="none" stroke="black" stroke-width="1"
        d="M 1241.00,1154.50
           C 1241.00,1154.50 1241.50,1201.50 1241.50,1201.50" />
  <path id="msk-bmstu-fk.bm1-0.33-dr-1"
        fill="none" stroke="black" stroke-width="1"
        d="M 927.00,998.00
           C 927.00,998.00 927.00,1035.50 927.00,1035.50" />
  <path id="msk-bmstu-fk.bm1-0.32-dr"
        fill="none" stroke="black" stroke-width="1"
        d="M 929.00,1216.00
           C 929.00,1216.00 929.50,1244.50 929.50,1244.50" />
  <path id="msk-bmstu-fk.bm1-0.39-dr"
        fill="none" stroke="black" stroke-width="1"
        d="M 967.50,2345.00
           C 967.50,2345.00 1014.00,2345.50 1014.00,2345.50" />
  <path id="msk-bmstu-fk.bm1-0.38-dr"
        fill="none" stroke="black" stroke-width="1"
        d="M 929.50,1835.50
           C 929.50,1835.50 929.50,1872.50 929.50,1872.50" />
  <path id="msk-bmstu-fk.bm1-0.28-dr"
        fill="none" stroke="black" stroke-width="1"
        d="M 1370.50,1473.50
           C 1370.50,1473.50 1400.00,1474.00 1400.00,1474.00" />
  <path id="msk-bmstu-fk.bm1-0.27-dr"
        fill="none" stroke="black" stroke-width="1"
        d="M 1287.00,1535.50
           C 1287.00,1535.50 1287.00,1565.50 1287.00,1565.50" />
  <path id="msk-bmstu-fk.bm1-0.37-dr"
        fill="none" stroke="black" stroke-width="1"
        d="M 928.50,1674.50
           C 928.50,1674.50 928.50,1713.50 928.50,1713.50" />
  <path id="msk-bmstu-fk.bm1-0.30-dr"
        fill="none" stroke="black" stroke-width="1"
        d="M 941.50,1516.00
           C 941.50,1516.00 942.00,1553.50 942.00,1553.50" />
  <path id="msk-bmstu-fk.bm1-0.29-dr"
        fill="none" stroke="black" stroke-width="1"
        d="M 941.50,1444.00
           C 941.50,1444.00 942.00,1473.50 942.00,1473.50" />
  <path id="msk-bmstu-fk.bm1-0.21-dr"
        fill="none" stroke="black" stroke-width="1"
        d="M 1692.00,1435.00
           C 1692.00,1435.00 1721.50,1435.00 1721.50,1435.00" />
  <path id="msk-bmstu-fk.bm1-0.26-dr"
        fill="none" stroke="black" stroke-width="1"
        d="M 1284.50,1439.00
           C 1284.50,1439.00 1284.00,1468.50 1284.00,1468.50" />
  <path id="msk-bmstu-fk.bm1-0.25-dr"
        fill="none" stroke="black" stroke-width="1"
        d="M 1200.00,1428.00
           C 1200.00,1428.00 1229.50,1429.00 1229.50,1429.00" />
  <path id="msk-bmstu-fk.bm1-0.42-ps-out-4"
        fill="none" stroke="black" stroke-width="1"
        d="M 3791.00,1326.50
           C 3791.00,1326.50 3854.00,1326.00 3854.00,1326.00" />
  <path id="msk-bmstu-fk.bm1-0.22-dr"
        fill="none" stroke="black" stroke-width="1"
        d="M 1761.00,1386.50
           C 1761.00,1386.50 1761.00,1417.00 1761.00,1416.50" />
  <path id="msk-bmstu-fk.bm1-0.20-dr"
        fill="none" stroke="black" stroke-width="1"
        d="M 1592.50,1434.50
           C 1592.50,1434.50 1621.50,1434.00 1621.50,1434.00" />
  <path id="msk-bmstu-fk.bm1-0.42-ps-in-2"
        fill="none" stroke="black" stroke-width="1"
        d="M 3631.00,1597.50
           C 3631.00,1597.50 3706.00,1597.50 3706.00,1597.50" />
  <path id="msk-bmstu-fk.bm1-0.42-ps-in-1"
        fill="none" stroke="black" stroke-width="1"
        d="M 3450.50,1373.50
           C 3450.50,1373.50 3450.00,1549.00 3450.00,1549.00" />
  <path id="msk-bmstu-fk.bm1-0.42-ps-out-3"
        fill="none" stroke="black" stroke-width="1"
        d="M 3660.50,1327.50
           C 3660.50,1327.50 3724.00,1327.00 3724.00,1327.00" />
  <path id="msk-bmstu-fk.bm1-0.40-ps-right"
        fill="none" stroke="black" stroke-width="1"
        d="M 3114.00,1386.00
           C 3114.00,1386.00 3114.00,1434.00 3114.00,1434.00" />
  <path id="msk-bmstu-fk.bm1-0.42-ps-out-1"
        fill="none" stroke="black" stroke-width="1"
        d="M 3232.50,1394.00
           C 3232.50,1394.00 3234.00,1429.00 3234.00,1429.00" />
  <path id="msk-bmstu-fk.bm1-0.24-ps-5"
        fill="none" stroke="black" stroke-width="1"
        d="M 930.50,1133.00
           C 930.50,1133.00 969.00,1133.00 969.00,1133.00" />
  <path id="msk-bmstu-fk.bm1-0.29-rm"
        fill="none" stroke="black" stroke-width="1"
        d="M 779.50,1347.00
           C 779.50,1347.00 940.00,1347.00 940.00,1347.00
             940.00,1347.00 939.50,1497.00 939.50,1497.00
             939.50,1497.00 779.50,1497.00 779.50,1497.00
             779.50,1497.00 779.50,1347.00 779.50,1347.00 Z" />
  <path id="msk-bmstu-fk.bm1-0.34-ps-right"
        fill="none" stroke="black" stroke-width="1"
        d="M 1240.50,399.50
           C 1240.50,399.50 1241.00,437.50 1241.00,437.50" />
  <path id="msk-bmstu-fk.bm1-0.24-ps-4"
        fill="none" stroke="black" stroke-width="1"
        d="M 947.00,1326.50
           C 947.00,1326.50 997.00,1324.50 997.00,1324.50" />
  <path id="msk-bmstu-fk.bm1-0.34-ps-left"
        fill="none" stroke="black" stroke-width="1"
        d="M 1051.50,436.50
           C 1051.50,436.50 1051.00,474.50 1051.00,474.50" />
  <path id="msk-bmstu-fk.bm1-0.24-ps-3"
        fill="none" stroke="black" stroke-width="1"
        d="M 948.50,1596.50
           C 948.50,1596.50 998.50,1595.50 998.50,1595.50" />
  <path id="msk-bmstu-fk.bm1-0.24-ps-2"
        fill="none" stroke="black" stroke-width="1"
        d="M 933.00,1788.00
           C 933.00,1788.00 999.50,1786.50 999.00,1787.00" />
  <path id="msk-bmstu-fk.bm1-0.16-ps"
        fill="none" stroke="black" stroke-width="1"
        d="M 2644.50,1056.50
           C 2644.50,1056.50 2679.50,1056.50 2679.50,1056.50" />
  <path id="msk-bmstu-fk.bm1-0.24-ps-1"
        fill="none" stroke="black" stroke-width="1"
        d="M 1428.00,1428.00
           C 1428.00,1428.00 1427.00,1467.00 1427.00,1467.00" />
  <path id="msk-bmstu-fk.bm1-0.24-pass-left.2"
        fill="none" stroke="black" stroke-width="1"
        d="M 934.50,1623.00
           C 934.50,1623.00 932.50,1761.00 932.50,1761.00
             932.50,1761.00 1025.50,1760.50 1025.50,1760.50
             1025.50,1760.50 1025.00,1620.50 1025.00,1620.50
             1025.00,1620.50 934.50,1623.00 934.50,1623.00 Z" />
  <path id="msk-bmstu-fk.bm1-0.9-ps"
        fill="none" stroke="black" stroke-width="1"
        d="M 2125.50,1216.00
           C 2125.50,1216.00 2165.50,1216.50 2165.50,1216.50" />
  <path id="msk-bmstu-fk.bm1-0.19-ps"
        fill="none" stroke="black" stroke-width="1"
        d="M 1543.00,1386.00
           C 1543.00,1386.00 1540.00,1423.00 1540.00,1423.00" />
  <path id="msk-bmstu-fk.bm1-0.6-ps"
        fill="none" stroke="black" stroke-width="1"
        d="M 2651.50,1326.00
           C 2651.50,1326.00 2707.00,1326.00 2707.00,1326.00" />
  <path id="msk-bmstu-fk.bm1-0.18-ps"
        fill="none" stroke="black" stroke-width="1"
        d="M 2619.00,1217.00
           C 2619.00,1217.00 2650.00,1216.00 2650.00,1216.00" />
  <path id="msk-bmstu-fk.bm1-0.24-pass-left.1"
        fill="none" stroke="black" stroke-width="1"
        d="M 1026.00,1813.50
           C 1026.00,1813.50 934.00,1813.50 934.00,1813.50
             934.00,1813.50 933.50,1952.50 933.50,1952.50
             933.50,1952.50 1025.00,1952.00 1025.00,1952.00
             1025.00,1952.00 1026.00,1813.50 1026.00,1813.50 Z" />
  <path id="msk-bmstu-fk.bm1-0.8-ps"
        fill="none" stroke="black" stroke-width="1"
        d="M 2254.50,1216.00
           C 2254.50,1216.00 2292.50,1215.50 2292.50,1215.50" />
  <path id="msk-bmstu-fk.bm1-0.1-ps-in"
        fill="none" stroke="black" stroke-width="1"
        d="M 2216.00,1459.50
           C 2216.00,1459.50 2216.50,1577.50 2216.50,1577.50" />
  <path id="msk-bmstu-fk.bm1-0.3-ps"
        fill="none" stroke="black" stroke-width="1"
        d="M 2437.50,1460.00
           C 2437.50,1460.00 2437.50,1514.50 2437.50,1514.50" />
  <path id="msk-bmstu-fk.bm1-0.24-pass-right"
        fill="none" stroke="black" stroke-width="1"
        d="M 1074.50,1310.50
           C 1074.50,1310.50 1116.00,1310.50 1116.00,1310.50
             1116.00,1310.50 1116.00,1347.50 1116.00,1347.50
             1116.00,1347.50 1165.00,1348.50 1165.00,1348.50
             1165.00,1348.50 1164.50,1376.00 1164.50,1376.00
             1164.50,1376.00 1241.50,1377.50 1241.50,1377.50
             1241.50,1377.50 1242.00,1344.50 1242.00,1344.50
             1242.00,1344.50 1408.50,1348.50 1408.50,1348.50
             1408.50,1348.50 1408.50,1471.00 1408.50,1471.00
             1408.50,1471.00 1329.50,1472.00 1329.50,1472.00
             1329.50,1472.00 1328.50,1427.00 1328.50,1427.00
             1328.50,1427.00 1076.00,1426.00 1076.00,1426.00
             1076.00,1426.00 1074.50,1310.50 1074.50,1310.50 Z" />
  <path id="msk-bmstu-fk.bm1-0.7-pass-central"
        fill="none" stroke="black" stroke-width="1"
        d="M 2228.00,1307.50
           C 2228.00,1307.50 2432.00,1307.50 2432.00,1307.50
             2432.00,1307.50 2432.00,1298.50 2432.50,1298.00
             2433.00,1297.50 2437.00,1297.50 2437.00,1297.50
             2437.00,1297.50 2436.50,1229.50 2436.50,1229.50
             2436.50,1229.50 2242.50,1229.00 2242.50,1229.00
             2242.50,1229.00 2242.50,1233.00 2242.50,1233.00
             2242.50,1233.00 2225.50,1233.00 2225.50,1233.00
             2225.50,1233.00 2223.50,1296.00 2223.50,1296.00
             2223.50,1296.00 2228.50,1295.50 2228.50,1295.50
             2228.50,1295.50 2228.00,1307.50 2228.00,1307.50 Z" />
  <path id="msk-bmstu-fk.bm1-0.2-ps"
        fill="none" stroke="black" stroke-width="1"
        d="M 2305.00,1661.50
           C 2305.00,1661.50 2351.50,1662.00 2351.50,1662.00" />
  <path id="msk-bmstu-fk.bm1-0.2-rm"
        fill="none" stroke="black" stroke-width="1"
        d="M 2277.00,1672.00
           C 2277.00,1672.00 2277.00,1823.00 2277.00,1823.00
             2277.00,1823.00 2383.50,1822.50 2383.50,1822.50
             2383.50,1822.50 2383.50,1671.50 2383.50,1671.50
             2383.50,1671.50 2277.00,1672.00 2277.00,1672.00 Z" />
  <path id="msk-bmstu-fk.bm1-0.7-pass-left"
        fill="none" stroke="black" stroke-width="1"
        d="M 1936.00,1228.50
           C 1936.00,1228.50 1937.00,1305.50 1937.00,1305.50
             1937.00,1305.50 2196.50,1306.00 2196.50,1306.00
             2196.50,1306.00 2197.00,1228.00 2197.00,1228.00
             2197.00,1228.00 1936.00,1228.50 1936.00,1228.50 Z" />
  <path id="msk-bmstu-fk.bm1-0.21-rm"
        fill="none" stroke="black" stroke-width="1"
        d="M 1654.00,1437.50
           C 1654.00,1437.50 1654.00,1573.50 1654.00,1573.50
             1654.00,1573.50 1757.50,1575.50 1757.50,1575.50
             1757.50,1575.50 1758.50,1437.00 1758.50,1437.00
             1758.50,1437.00 1654.00,1437.50 1654.00,1437.50 Z" />
  <path id="msk-bmstu-fk.bm1-0.28-rm"
        fill="none" stroke="black" stroke-width="1"
        d="M 1329.00,1476.50
           C 1329.00,1476.50 1329.50,1523.50 1329.50,1523.50
             1329.50,1523.50 1407.00,1523.00 1407.00,1523.00
             1407.00,1523.00 1408.00,1476.50 1408.00,1476.50
             1408.00,1476.50 1329.00,1476.50 1329.00,1476.50 Z" />
  <path id="msk-bmstu-fk.bm1-0.27-wc"
        fill="none" stroke="black" stroke-width="1"
        d="M 1329.00,1527.50
           C 1329.00,1527.50 1328.00,1574.50 1328.00,1574.50
             1328.00,1574.50 1408.00,1574.00 1408.00,1574.00
             1408.00,1574.00 1408.50,1528.50 1408.50,1528.50
             1408.50,1528.50 1329.00,1527.50 1329.00,1527.50 Z" />
  <path id="msk-bmstu-fk.bm1-0.26-rm"
        fill="none" stroke="black" stroke-width="1"
        d="M 1288.00,1432.50
           C 1288.00,1432.50 1287.50,1523.50 1287.50,1523.50
             1287.50,1523.50 1324.50,1523.00 1324.50,1523.00
             1324.50,1523.00 1323.00,1431.00 1323.00,1431.00
             1323.00,1431.00 1288.00,1432.50 1288.00,1432.50 Z" />
  <path id="msk-bmstu-fk.bm1-0.25-rm"
        fill="none" stroke="black" stroke-width="1"
        d="M 1074.50,1432.50
           C 1074.50,1432.50 1075.00,1573.50 1075.00,1573.50
             1075.00,1573.50 1163.50,1573.00 1163.50,1573.00
             1163.50,1573.00 1163.00,1547.00 1163.00,1547.00
             1163.00,1547.00 1243.00,1547.00 1243.00,1547.00
             1243.00,1547.00 1243.00,1574.50 1243.00,1574.50
             1243.00,1574.50 1284.00,1574.50 1284.00,1574.50
             1284.00,1574.50 1282.00,1432.50 1282.00,1432.50
             1282.00,1432.50 1074.50,1432.50 1074.50,1432.50 Z" />
  <path id="msk-bmstu-fk.bm1-0.22-rm"
        fill="none" stroke="black" stroke-width="1"
        d="M 1764.50,1556.00
           C 1764.50,1556.00 1764.50,1371.00 1764.50,1371.00
             1764.50,1371.00 1789.50,1371.50 1789.50,1371.50
             1789.50,1371.50 1791.00,1352.00 1791.00,1352.00
             1791.00,1352.00 1897.00,1350.50 1897.00,1350.50
             1897.00,1350.50 1897.50,1574.00 1897.50,1574.00
             1897.50,1574.00 1786.50,1573.50 1786.50,1573.50
             1786.50,1573.50 1786.50,1555.00 1786.50,1555.00
             1786.50,1555.00 1764.50,1556.00 1764.50,1556.00 Z" />
  <path id="msk-bmstu-fk.bm1-0.7-pass-right"
        fill="none" stroke="black" stroke-width="1"
        d="M 2463.00,1307.50
           C 2463.00,1307.50 2463.00,1232.00 2463.00,1232.00
             2463.00,1232.00 2722.50,1231.50 2722.50,1231.50
             2722.50,1231.50 2722.50,1305.00 2722.50,1305.00
             2722.50,1305.00 2463.00,1307.50 2463.00,1307.50 Z" />
  <path id="msk-bmstu-fk.bm1-0.20-rm"
        fill="none" stroke="black" stroke-width="1"
        d="M 1562.00,1437.00
           C 1562.00,1437.00 1649.00,1436.00 1649.00,1436.00
             1649.00,1436.00 1650.00,1572.00 1650.00,1572.00
             1650.00,1572.00 1561.50,1573.50 1561.50,1573.50
             1561.50,1573.50 1562.00,1437.00 1562.00,1437.00 Z" />
  <path id="msk-bmstu-fk.bm1-0.23-rm"
        fill="none" stroke="black" stroke-width="1"
        d="M 1445.50,1349.00
           C 1445.50,1349.00 1445.50,1573.50 1445.50,1573.50
             1445.50,1573.50 1528.50,1574.00 1528.50,1574.00
             1528.50,1574.00 1528.50,1348.50 1528.50,1348.50
             1528.50,1348.50 1445.50,1349.00 1445.50,1349.00 Z" />
  <path id="msk-bmstu-fk.bm1-0.1-rm-right"
        fill="none" stroke="black" stroke-width="1"
        d="M 2228.00,1348.50
           C 2228.00,1348.50 2230.00,1620.00 2230.00,1620.00
             2230.00,1620.00 2431.00,1620.50 2431.00,1620.50
             2431.00,1620.50 2430.00,1348.50 2430.00,1348.50
             2430.00,1348.50 2228.00,1348.50 2228.00,1348.50 Z" />
  <path id="msk-bmstu-fk.bm1-0.19-rm"
        fill="none" stroke="black" stroke-width="1"
        d="M 1562.50,1351.50
           C 1562.50,1351.50 1561.50,1433.50 1561.50,1433.50
             1561.50,1433.50 1759.00,1432.50 1759.00,1432.50
             1759.00,1432.50 1760.00,1351.00 1760.00,1351.00
             1760.00,1351.00 1562.50,1351.50 1562.50,1351.50 Z" />
  <path id="msk-bmstu-fk.bm1-0.1-rm-left"
        fill="none" stroke="black" stroke-width="1"
        d="M 2198.00,1347.50
           C 2198.00,1347.50 2198.50,1619.00 2198.50,1619.00
             2198.50,1619.00 1933.50,1618.00 1933.50,1618.00
             1933.50,1618.00 1936.00,1347.00 1936.00,1347.00
             1936.00,1347.00 2198.00,1347.50 2198.00,1347.50 Z" />
  <path id="msk-bmstu-fk.bm1-0.6-rm"
        fill="none" stroke="black" stroke-width="1"
        d="M 2549.00,1348.00
           C 2549.00,1348.00 2548.50,1412.50 2548.50,1412.50
             2548.50,1412.50 2723.00,1413.00 2723.00,1413.00
             2723.00,1413.00 2721.50,1348.50 2721.50,1348.50
             2721.50,1348.50 2549.00,1348.00 2549.00,1348.00 Z" />
  <path id="msk-bmstu-fk.bm1-bld"
        fill="none" stroke="black" stroke-width="1"
        d="M 750.50,3007.50
           C 750.50,3007.50 751.00,1811.50 751.00,1811.50
             751.00,1811.50 730.50,1811.50 730.50,1811.50
             730.50,1811.50 730.00,1108.50 730.00,1108.50
             730.00,1108.50 752.00,1108.50 752.00,1108.50
             752.00,1108.50 751.50,298.50 751.50,298.50
             751.50,298.50 1450.00,301.00 1450.00,301.00
             1450.00,301.00 1449.00,522.00 1449.00,522.00
             1449.00,522.00 1316.00,521.50 1316.00,521.50
             1316.00,521.50 1316.00,626.00 1316.00,626.00
             1316.00,626.00 1239.00,625.00 1238.50,625.00
             1238.00,625.00 1238.00,711.00 1238.00,711.00
             1238.00,711.00 1075.00,711.50 1075.00,711.50
             1075.00,711.50 1075.50,1108.00 1075.50,1108.00
             1075.50,1108.00 1254.00,1106.00 1254.00,1106.00
             1254.00,1106.00 1255.50,1303.00 1255.50,1303.00
             1255.50,1303.00 1443.50,1304.00 1443.50,1304.00
             1443.50,1304.00 1443.00,1163.00 1443.00,1163.00
             1443.00,1163.00 1531.50,1163.00 1531.50,1163.00
             1531.50,1163.00 1531.50,1303.50 1531.50,1303.50
             1531.50,1303.50 1753.50,1304.00 1753.50,1304.00
             1753.50,1304.00 1753.00,1221.00 1753.00,1221.00
             1753.00,1221.00 1894.50,1220.50 1894.50,1220.50
             1894.50,1220.50 1894.00,837.50 1894.00,837.50
             1894.00,837.50 1815.00,837.00 1815.00,837.00
             1815.00,837.00 1816.00,641.50 1816.00,641.50
             1816.00,641.50 2494.50,642.00 2494.50,642.00
             2494.50,642.00 2494.50,563.00 2494.50,563.00
             2494.50,563.00 2732.50,562.50 2732.50,562.50
             2732.50,562.50 2732.00,642.00 2732.00,642.00
             2732.00,642.00 2769.50,641.00 2769.50,641.00
             2769.50,641.00 2768.00,1226.00 2768.00,1226.00
             2768.00,1226.00 2909.50,1226.00 2909.50,1226.00
             2909.50,1226.00 2909.50,1305.50 2909.50,1305.50
             2909.50,1305.50 3412.00,1305.00 3412.00,1305.00
             3412.00,1305.00 3411.00,1138.00 3411.00,1138.00
             3411.00,1138.00 3100.00,1138.00 3100.00,1138.00
             3100.00,1138.00 3102.50,1112.50 3102.50,1112.50
             3102.50,1112.50 3032.00,1112.00 3032.00,1112.00
             3032.00,1112.00 3032.00,829.00 3032.00,829.00
             3032.00,829.00 3101.00,828.50 3101.00,828.50
             3101.00,828.50 3100.00,302.00 3100.00,302.00
             3100.00,302.00 3504.50,303.50 3504.50,303.50
             3504.50,303.50 3504.00,281.00 3504.00,281.00
             3504.00,281.00 3457.50,282.00 3457.50,282.00
             3457.50,282.00 3458.50,224.00 3458.50,224.00
             3458.50,224.00 3594.50,224.00 3594.50,224.00
             3594.50,224.00 3594.50,293.50 3594.50,293.50
             3594.50,293.50 3909.50,293.50 3909.50,293.50
             3909.50,293.50 3909.50,1111.50 3909.50,1111.50
             3909.50,1111.50 3927.50,1109.50 3927.50,1109.50
             3927.50,1109.50 3928.00,1808.50 3928.00,1808.50
             3928.00,1808.50 3909.00,1809.50 3909.00,1809.50
             3909.00,1809.50 3908.00,2615.00 3908.00,2615.00
             3908.00,2615.00 3585.50,2656.50 3585.50,2656.50
             3585.50,2656.50 3585.00,1931.00 3585.00,1931.00
             3585.00,1931.00 3444.50,1930.50 3444.50,1930.50
             3444.50,1930.50 3444.00,1843.00 3444.00,1843.00
             3444.00,1843.00 3584.50,1843.00 3585.00,1843.00
             3585.50,1843.00 3584.50,1624.00 3584.50,1624.00
             3584.50,1624.00 3221.00,1625.50 3221.00,1625.50
             3221.00,1625.50 3221.50,1766.50 3221.50,1766.50
             3221.50,1766.50 3131.50,1766.00 3131.50,1766.00
             3131.50,1766.00 3131.50,1626.00 3131.50,1626.00
             3131.50,1626.00 2765.50,1626.50 2765.50,1626.50
             2765.50,1626.50 2765.00,1670.50 2765.00,1670.50
             2765.00,1670.50 2402.00,1672.00 2402.00,1672.00
             2402.00,1672.00 2403.00,1843.50 2403.00,1843.50
             2403.00,1843.50 2256.50,1843.50 2256.50,1843.50
             2256.50,1843.50 2256.50,1671.00 2256.50,1671.00
             2256.50,1671.00 1892.00,1671.50 1892.00,1671.50
             1892.00,1671.50 1892.50,1621.50 1892.50,1621.50
             1892.50,1621.50 1529.00,1622.50 1529.00,1622.50
             1529.00,1622.50 1529.00,1762.50 1529.00,1762.50
             1529.00,1762.50 1441.50,1762.50 1441.50,1762.50
             1441.50,1762.50 1441.00,1622.00 1441.00,1622.00
             1441.00,1622.00 1075.50,1620.50 1075.50,1620.50
             1075.50,1620.50 1076.00,1861.50 1076.00,1861.50
             1076.00,1861.50 1215.50,1861.00 1215.50,1861.00
             1215.50,1861.00 1217.00,1950.50 1217.00,1950.50
             1217.00,1950.50 1076.00,1950.00 1076.00,1950.00
             1076.00,1950.00 1075.50,2837.50 1075.50,2837.50
             1075.50,2837.50 1216.00,2837.50 1216.00,2837.50
             1216.00,2837.50 1216.50,2926.00 1216.50,2926.00
             1216.50,2926.00 1075.50,2926.50 1075.50,2926.50
             1075.50,2926.50 1076.00,2974.50 1076.00,2974.50
             1076.00,2974.50 750.50,3007.50 750.50,3007.50 Z" />
  <path id="length-6"
        fill="none" stroke="black" stroke-width="1"
        d="M 2217.50,208.50
           C 2217.50,208.50 2444.50,208.00 2444.50,208.00" />
</svg>
