<?xml version="1.0" encoding="UTF-8" standalone="no"?>
<!DOCTYPE svg PUBLIC "-//W3C//DTD SVG 20010904//EN"
              "http://www.w3.org/TR/2001/REC-SVG-20010904/DTD/svg10.dtd">

<svg xmlns="http://www.w3.org/2000/svg"
     width="15.0633in" height="10.66in"
     viewBox="0 0 4519 3198">
  <path id="msk-bmstu-fk.up-3.5-rm-1"
        fill="none" stroke="black" stroke-width="1"
        d="M 2761.50,1597.50
           C 2761.50,1597.50 2762.00,1873.00 2762.00,1873.00
             2762.00,1873.00 3912.50,1872.50 3912.50,1872.50
             3912.50,1872.50 3912.00,1596.50 3912.00,1596.50
             3912.00,1596.50 2761.50,1597.50 2761.50,1597.50 Z" />
  <path id="msk-bmstu-fk.up-3.1-dr"
        fill="none" stroke="black" stroke-width="1"
        d="M 2482.00,987.50
           C 2482.00,987.50 2482.50,948.00 2482.50,948.00" />
  <path id="msk-bmstu-fk.up-3.9-ps"
        fill="none" stroke="black" stroke-width="1"
        d="M 1907.50,1872.50
           C 1907.50,1872.50 1908.00,1600.00 1908.00,1600.00" />
  <path id="msk-bmstu-fk.up-3.2-st"
        fill="none" stroke="black" stroke-width="1"
        d="M 1077.00,1524.50
           C 1077.00,1524.50 1123.00,1525.00 1123.00,1525.00" />
  <path id="msk-bmstu-fk.up-3.1-st"
        fill="none" stroke="black" stroke-width="1"
        d="M 2549.00,941.00
           C 2549.00,941.00 2548.50,994.00 2548.50,994.00" />
  <path id="msk-bmstu-fk.up-3.6-dr"
        fill="none" stroke="black" stroke-width="1"
        d="M 2481.50,1130.50
           C 2481.50,1130.50 2480.50,1161.00 2480.50,1161.00" />
  <path id="msk-bmstu-fk.up-3.8-ps"
        fill="none" stroke="black" stroke-width="1"
        d="M 2181.00,975.00
           C 2181.00,975.00 2181.00,1007.00 2181.00,1007.00" />
  <path id="msk-bmstu-fk.up-3.4-ps-2"
        fill="none" stroke="black" stroke-width="1"
        d="M 3492.50,724.00
           C 3492.50,724.00 3523.00,724.00 3523.00,724.00" />
  <path id="msk-bmstu-fk.up-3.2-dr"
        fill="none" stroke="black" stroke-width="1"
        d="M 1083.50,1591.50
           C 1083.50,1591.50 1113.00,1592.00 1113.00,1592.00" />
  <path id="msk-bmstu-fk.up-3.4-ps-1"
        fill="none" stroke="black" stroke-width="1"
        d="M 3492.00,1273.00
           C 3492.00,1273.00 3534.50,1272.50 3534.50,1272.50" />
  <path id="msk-bmstu-fk.up-3.9-dr"
        fill="none" stroke="black" stroke-width="1"
        d="M 1059.00,1473.00
           C 1059.00,1473.00 1058.00,1505.50 1058.00,1505.50" />
  <path id="msk-bmstu-fk.up-3.5-ps"
        fill="none" stroke="black" stroke-width="1"
        d="M 2752.50,1874.50
           C 2752.50,1874.50 2752.00,1598.00 2752.00,1598.00" />
  <path id="msk-bmstu-fk.up-3.7-ps"
        fill="none" stroke="black" stroke-width="1"
        d="M 2308.00,1077.50
           C 2308.00,1077.50 2340.50,1078.50 2340.50,1078.50" />
  <path id="msk-bmstu-fk.up-3.7-rm"
        fill="none" stroke="black" stroke-width="1"
        d="M 2469.00,1091.00
           C 2469.00,1091.00 2194.00,1089.50 2194.00,1089.50
             2194.00,1089.50 2194.00,1312.00 2194.00,1312.00
             2194.00,1312.00 2225.00,1310.00 2225.00,1310.00
             2225.00,1310.00 2224.50,1919.50 2224.50,1919.50
             2224.50,1919.50 2432.50,1919.00 2432.50,1919.00
             2432.50,1919.00 2433.50,1311.00 2433.50,1311.00
             2433.50,1311.00 2468.00,1310.00 2468.00,1310.00
             2468.00,1310.00 2469.00,1091.00 2469.00,1091.00 Z" />
  <path id="msk-bmstu-fk.up-3.9-rm-3"
        fill="none" stroke="black" stroke-width="1"
        d="M 1051.00,772.00
           C 1051.00,772.00 1051.00,595.50 1051.00,595.50
             1051.00,595.50 1424.00,596.00 1424.00,596.00
             1424.00,596.00 1424.00,772.50 1424.00,772.50
             1424.00,772.50 1051.00,772.00 1051.00,772.00 Z" />
  <path id="msk-bmstu-fk.up-3.8-rm"
        fill="none" stroke="black" stroke-width="1"
        d="M 1919.00,937.50
           C 1919.00,937.50 2167.50,938.00 2167.50,938.00
             2167.50,938.00 2168.00,1334.50 2168.00,1334.50
             2168.00,1334.50 2197.50,1334.50 2197.50,1334.50
             2197.50,1334.50 2198.00,1919.50 2198.00,1919.50
             2198.00,1919.50 1916.50,1919.50 1916.50,1919.50
             1916.50,1919.50 1919.00,937.50 1919.00,937.50 Z" />
  <path id="msk-bmstu-fk.up-3.4-rm"
        fill="none" stroke="black" stroke-width="1"
        d="M 3435.50,733.00
           C 3435.50,733.00 3599.00,733.00 3599.00,733.00
             3599.00,733.00 3599.00,1260.00 3599.00,1260.00
             3599.00,1260.00 3435.00,1261.50 3435.50,1261.50
             3436.00,1261.50 3435.50,733.00 3435.50,733.00 Z" />
  <path id="msk-bmstu-fk.up-3.9-rm-2"
        fill="none" stroke="black" stroke-width="1"
        d="M 1051.00,2056.50
           C 1051.00,2056.50 748.00,2056.00 748.00,2056.00
             748.00,2056.00 749.50,1402.00 749.50,1402.00
             749.50,1402.00 767.00,1401.50 767.00,1401.50
             767.00,1401.50 768.00,595.50 768.00,595.50
             768.00,595.50 1049.00,596.00 1049.00,596.00
             1049.00,596.00 1051.00,2056.50 1051.00,2056.50 Z" />
  <path id="msk-bmstu-fk.up-3.3-rm"
        fill="none" stroke="black" stroke-width="1"
        d="M 2195.00,1066.00
           C 2195.00,1066.00 2195.00,937.00 2195.00,937.00
             2195.00,937.00 2468.50,937.50 2468.50,937.50
             2468.50,937.50 2468.50,1067.00 2468.50,1067.00
             2468.50,1067.00 2195.00,1066.00 2195.00,1066.00 Z" />
  <path id="msk-bmstu-fk.up-3.9-rm-1"
        fill="none" stroke="black" stroke-width="1"
        d="M 1052.00,1871.50
           C 1052.00,1871.50 1052.00,1602.00 1052.00,1602.00
             1052.00,1602.00 1897.50,1598.50 1897.50,1598.50
             1897.50,1598.50 1896.50,1874.00 1896.50,1874.00
             1896.50,1874.00 1052.00,1871.50 1052.00,1871.50 Z" />
  <path id="msk-bmstu-fk.up-3.2-sc"
        fill="none" stroke="black" stroke-width="1"
        d="M 1068.50,1578.50
           C 1068.50,1578.50 1069.00,1398.00 1069.00,1398.00
             1069.00,1398.00 1229.50,1397.50 1229.50,1397.50
             1229.50,1397.50 1229.50,1579.50 1229.50,1579.50
             1229.50,1579.50 1068.50,1578.50 1068.50,1578.50 Z" />
  <path id="msk-bmstu-fk.up-3.5-rm-4"
        fill="none" stroke="black" stroke-width="1"
        d="M 3120.50,1389.50
           C 3120.50,1389.50 3120.50,602.00 3120.50,602.00
             3120.50,602.00 3891.00,601.00 3891.00,601.00
             3891.00,601.00 3890.00,1387.00 3890.00,1387.00
             3890.00,1387.00 3120.50,1389.50 3120.50,1389.50 Z" />
  <path id="msk-bmstu-fk.up-3.6-rm"
        fill="none" stroke="black" stroke-width="1"
        d="M 2494.50,1090.00
           C 2494.50,1090.00 2493.50,1334.50 2493.50,1334.50
             2493.50,1334.50 2459.00,1335.00 2459.00,1335.00
             2459.00,1335.00 2459.00,1918.00 2459.00,1918.00
             2459.00,1918.00 2742.00,1919.50 2742.00,1919.50
             2742.00,1919.50 2744.50,1091.50 2744.50,1091.50
             2744.50,1091.50 2494.50,1090.00 2494.50,1090.00 Z" />
  <path id="msk-bmstu-fk.up-3.5-rm-3"
        fill="none" stroke="black" stroke-width="1"
        d="M 3432.00,1594.50
           C 3432.00,1594.50 3911.50,1593.00 3911.50,1593.00
             3911.50,1593.00 3912.50,1400.00 3912.50,1400.00
             3912.50,1400.00 3431.50,1398.50 3431.50,1398.50
             3431.50,1398.50 3432.00,1594.50 3432.00,1594.50 Z" />
  <path id="msk-bmstu-fk.up-3.5-rm-2"
        fill="none" stroke="black" stroke-width="1"
        d="M 3608.00,1874.50
           C 3608.00,1874.50 3609.00,2056.50 3609.00,2056.50
             3609.00,2056.50 3913.50,2056.00 3913.50,2056.00
             3913.50,2056.00 3912.00,1876.00 3912.00,1876.00
             3912.00,1876.00 3608.00,1874.50 3608.00,1874.50 Z" />
  <path id="msk-bmstu-fk.up-3.1-sc"
        fill="none" stroke="black" stroke-width="1"
        d="M 2494.50,1067.50
           C 2494.50,1067.50 2494.50,936.50 2494.50,936.50
             2494.50,936.50 2745.00,937.00 2745.00,937.00
             2745.00,937.00 2745.50,1067.50 2745.50,1067.50
             2745.50,1067.50 2494.50,1067.50 2494.50,1067.50 Z" />
  <path id="msk-bmstu-fk.up-bld"
        fill="none" stroke="black" stroke-width="1"
        d="M 729.50,2076.00
           C 729.50,2076.00 729.00,1382.50 729.00,1382.50
             729.00,1382.50 747.00,1383.00 747.00,1383.00
             747.00,1383.00 747.50,576.00 747.50,576.00
             747.50,576.00 1443.50,575.50 1443.50,575.50
             1443.50,575.50 1443.00,792.00 1443.00,792.00
             1443.00,792.00 1068.00,792.50 1068.00,792.50
             1068.00,792.50 1069.00,1374.50 1069.00,1374.50
             1069.00,1374.50 1253.00,1374.00 1253.00,1374.00
             1253.00,1374.00 1253.50,1580.00 1253.50,1580.00
             1253.50,1580.00 1899.00,1580.00 1899.00,1580.00
             1899.00,1580.00 1899.50,917.50 1899.50,917.50
             1899.50,917.50 2764.50,917.50 2764.50,917.50
             2764.50,917.50 2765.00,1577.50 2765.00,1577.50
             2765.00,1577.50 3412.00,1579.50 3412.00,1579.50
             3412.00,1579.50 3412.00,1408.00 3412.00,1408.00
             3412.00,1408.00 3101.00,1408.00 3101.00,1408.00
             3101.00,1408.00 3101.00,582.00 3101.00,582.00
             3101.00,582.00 3910.00,581.50 3910.00,581.50
             3910.00,581.50 3910.50,1380.50 3910.50,1380.50
             3910.50,1380.50 3932.00,1380.00 3932.00,1380.00
             3932.00,1380.00 3932.00,2076.50 3932.00,2076.50
             3932.00,2076.50 3588.50,2076.50 3588.50,2076.50
             3588.50,2076.50 3589.00,1894.50 3589.00,1894.50
             3589.00,1894.50 2762.00,1893.50 2762.00,1893.50
             2762.00,1893.50 2762.50,1938.50 2762.50,1938.50
             2762.50,1938.50 1896.00,1939.00 1896.00,1939.00
             1896.00,1939.00 1896.50,1892.50 1896.50,1892.50
             1896.50,1892.50 1070.00,1892.00 1070.00,1892.00
             1070.00,1892.00 1071.00,2077.50 1071.00,2077.50
             1071.00,2077.50 729.50,2076.00 729.50,2076.00 Z" />
  <path id="length-10"
        fill="none" stroke="black" stroke-width="1"
        d="M 691.50,1861.00
           C 691.50,1861.00 690.50,1481.00 690.50,1481.00" />
</svg>
